<svg fill="none" height="308" width="302" xmlns="http://www.w3.org/2000/svg"><path d="M0 0h302v308H0z" fill="#e5e5e5"/><path d="M0 0h302v308H0z" fill="#ffdab9"/><path d="M198.885 22.577L178.241 72.12l-23.21-49.735a5 5 0 00-9.482 1.413l-6.898 48.695-41.778-51.157a5 5 0 00-8.799 4.023l10.202 58.43c-11.183 2.909-20.517 6.02-29.732 10.747-10.434 5.353-20.488 12.659-32.877 23.736-.394.352-.73.764-.994 1.222-7.101 12.266-11.646 23.207-14.006 36.389-2.34 13.069-2.49 28.094-1.156 48.443a5 5 0 00.346 1.528c5.96 14.917 11.206 26.612 18.238 37.425 7.061 10.859 15.8 20.644 28.591 31.964.125.111.256.215.392.313 18.743 13.501 31.157 19.261 55.545 26.25A5.01 5.01 0 00124 302h62.5c.075 0 .15-.002.225-.005 8.964-.404 16.048-1.225 22.722-3.191 6.72-1.979 12.766-5.039 19.784-9.616.177-.115.347-.242.508-.379 18.638-15.846 31.43-29.052 40.442-43.485 9.054-14.502 14.098-29.929 17.738-49.929l.021-.12c2.244-14.3 3.334-27.436 1.216-40.631-2.131-13.279-7.457-26.302-17.581-40.541a4.937 4.937 0 00-.318-.403c-7.515-8.555-18.385-15.71-29.295-20.991-9.395-4.549-19.155-7.87-27.378-9.5l-6.11-59.222a5 5 0 00-9.589-1.41z" fill="#e15458" stroke="#000" stroke-linejoin="round" stroke-width="10"/></svg>