<svg height="80pt" viewBox="0 0 80 80" width="80pt" xmlns="http://www.w3.org/2000/svg"><path d="M25.727 34.918v7.227c0 2.417-.868 3.628-2.594 3.628-.863 0-1.524-.312-1.977-.937-.457-.625-.683-1.523-.683-2.691v-7.227h.726v7.316c0 .926.164 1.637.496 2.125.34.48.817.723 1.438.723.613 0 1.082-.242 1.398-.723.317-.488.477-1.207.477-2.156v-7.285zm7.894 10.707h-.918l-4.047-9.602h-.058c.058.664.086 1.305.086 1.918v7.684h-.704V34.918h.93l4.024 9.492h.043c-.04-.8-.059-1.472-.059-2.008v-7.484h.703zm6.227 0h-3.883V34.918h3.883v.687h-3.164v4.067h2.988v.687h-2.988v4.578h3.164zm5.996-2.805c0 .88-.242 1.59-.73 2.137-.489.543-1.11.816-1.864.816-.852 0-1.54-.125-2.055-.375v-.777c.254.14.567.254.946.336a4.95 4.95 0 001.109.125c.547 0 1-.207 1.352-.621.351-.414.523-.941.523-1.582 0-.59-.121-1.059-.371-1.406s-.727-.696-1.43-1.04c-.55-.28-.965-.546-1.238-.808a2.417 2.417 0 01-.606-.914c-.132-.348-.199-.762-.199-1.246 0-.528.11-.996.324-1.406.215-.41.512-.727.899-.95.387-.23.809-.347 1.27-.347.413 0 .788.047 1.124.14.344.094.614.192.809.301l-.281.688a3.588 3.588 0 00-1.653-.418c-.527 0-.957.183-1.289.543-.328.355-.492.828-.492 1.422 0 .601.121 1.066.36 1.398.238.332.707.676 1.406 1.031.722.352 1.25.766 1.582 1.238.336.47.504 1.04.504 1.715zm4.851-7.382c-.808 0-1.449.425-1.93 1.28-.472.852-.71 2.028-.71 3.54 0 .98.113 1.836.332 2.562.218.727.535 1.285.945 1.676.41.39.887.586 1.426.586.558 0 1.035-.098 1.437-.3v.66c-.382.218-.882.331-1.5.331-.68 0-1.277-.222-1.789-.66-.508-.441-.902-1.074-1.18-1.906-.277-.832-.417-1.824-.417-2.965 0-1.71.304-3.05.91-4.027.61-.977 1.437-1.465 2.488-1.465.656 0 1.227.148 1.715.453l-.328.629a2.551 2.551 0 00-1.399-.395zm9.086 4.82c0 1.77-.265 3.133-.797 4.086-.527.953-1.293 1.43-2.293 1.43-1.011 0-1.777-.481-2.3-1.438-.52-.961-.782-2.328-.782-4.094 0-1.847.258-3.219.774-4.125.52-.902 1.297-1.355 2.332-1.355.996 0 1.754.476 2.277 1.43.528.949.79 2.3.79 4.066zm-5.426 0c0 1.59.2 2.793.594 3.61.399.812.98 1.214 1.742 1.214.766 0 1.348-.402 1.743-1.207.402-.805.601-2.012.601-3.617 0-1.59-.195-2.785-.586-3.59-.39-.813-.969-1.215-1.734-1.215-.785 0-1.38.41-1.774 1.23-.39.813-.586 2.004-.586 3.575zm0 0"/><g fill="none" stroke="#000" stroke-width="1.25"><path d="M18.125 47.5h43.75m-43.75-14.375h43.75M15 50h50m-53.125 2.5h56.25m-50-21.875l22.188-7.5 20.937 7.5"/><path d="M23.125 31.25l17.344-5.625L57.5 31.25"/></g><path d="M46.117 57.68v2.41c0 .805-.289 1.207-.863 1.207-.29 0-.508-.102-.66-.313-.149-.207-.227-.504-.227-.894v-2.41h.242v2.441c0 .309.055.543.164.707.114.16.274.242.48.242a.52.52 0 00.466-.242c.105-.164.16-.402.16-.719v-2.43zm1.914 3.57v-1.828c0-.438-.133-.656-.39-.656-.2 0-.344.082-.438.246-.094.164-.137.425-.137.785v1.453h-.234v-2.648h.195l.02.367h.023a.708.708 0 01.239-.309.566.566 0 01.336-.11c.203 0 .359.067.46.208.102.137.153.355.153.66v1.832zm1.157 0h-.231v-2.648h.23zm-.266-3.383c0-.074.016-.133.047-.172a.148.148 0 01.117-.062c.043 0 .078.023.102.062.027.04.039.098.039.172 0 .07-.012.125-.04.168a.113.113 0 01-.101.059.144.144 0 01-.117-.059.276.276 0 01-.047-.168zm1.465 3.219c.07 0 .133-.012.191-.031v.195a.708.708 0 01-.277.047c-.274 0-.41-.203-.41-.61v-1.882h-.239v-.137l.235-.066.074-.63h.16v.63h.422v.203h-.422v1.816c0 .18.02.3.059.363.039.067.11.102.207.102zm1.363.21a.724.724 0 01-.648-.355c-.149-.238-.223-.57-.223-.996 0-.453.066-.8.2-1.035.136-.242.327-.36.581-.36.219 0 .395.106.52.313.129.211.191.492.191.848v.215h-1.254c0 .383.055.672.164.863a.51.51 0 00.48.29c.165 0 .34-.056.524-.165v.227a.99.99 0 01-.535.156zm-.105-2.538c-.317 0-.493.32-.524.957h1.02c0-.293-.047-.524-.137-.695-.086-.172-.207-.262-.36-.262zm1.964 2.539c-.515 0-.773-.453-.773-1.367 0-.45.066-.793.195-1.028s.317-.351.567-.351c.12 0 .23.035.34.101a.722.722 0 01.253.285h.02l-.008-.296v-1.188h.23v3.797h-.19l-.02-.371h-.02a.813.813 0 01-.25.312.578.578 0 01-.344.106zm.016-.2c.184 0 .324-.085.426-.257.101-.172.152-.426.152-.758v-.152c0-.403-.05-.696-.148-.88a.465.465 0 00-.442-.28c-.191 0-.328.101-.41.3-.082.2-.125.485-.125.864 0 .382.043.671.129.867.086.195.227.297.418.297zm4.379.153h-.305l-1.351-3.2h-.02c.02.22.031.434.031.638v2.562h-.234v-3.57h.309l1.34 3.164h.015c-.016-.266-.02-.489-.02-.668V57.68h.235zm1.77 0l-.032-.371h-.008c-.129.281-.32.418-.578.418a.495.495 0 01-.414-.203c-.105-.137-.156-.324-.156-.555 0-.25.074-.453.227-.598.148-.148.363-.23.636-.242l.285-.015v-.22c0-.245-.03-.425-.093-.538s-.164-.172-.309-.172a.877.877 0 00-.46.148l-.102-.183c.183-.114.375-.168.578-.168.218 0 .375.066.472.207.094.137.145.367.145.687v1.805zm-.563-.148c.164 0 .293-.082.383-.247.093-.164.14-.394.14-.695v-.273l-.277.011c-.21.012-.371.07-.477.18-.101.106-.152.262-.152.465 0 .195.035.336.102.426.07.086.164.133.28.133zm1.937-.016c.07 0 .133-.012.188-.031v.195a.675.675 0 01-.273.047c-.274 0-.41-.203-.41-.61v-1.882h-.239v-.137l.234-.066.075-.63h.16v.63h.422v.203h-.422v1.816c0 .18.02.3.058.363.04.067.11.102.207.102zm.844.164h-.23v-2.648h.23zm-.265-3.383c0-.074.015-.133.043-.172a.148.148 0 01.117-.062c.043 0 .078.023.105.062a.3.3 0 01.04.172c0 .07-.012.125-.04.168a.124.124 0 01-.105.059.144.144 0 01-.117-.059.305.305 0 01-.043-.168zm2.468 2.051c0 .45-.07.789-.215 1.027a.66.66 0 01-.601.352c-.258 0-.457-.117-.598-.352-.136-.238-.203-.578-.203-1.027 0-.91.27-1.367.813-1.367.25 0 .449.117.59.36.144.237.214.573.214 1.007zm-1.375 0c0 .383.047.672.137.867.09.195.234.293.426.293.379 0 .57-.387.57-1.16 0-.766-.191-1.148-.57-1.148-.2 0-.34.097-.43.289s-.133.476-.133.859zm3.153 1.332v-1.828c0-.438-.13-.656-.391-.656a.472.472 0 00-.437.246c-.09.164-.133.425-.133.785v1.453h-.235v-2.648h.196l.02.367h.023a.68.68 0 01.238-.309.566.566 0 01.336-.11c.203 0 .36.067.46.208.102.137.153.355.153.66v1.832zm1.968-.664c0 .223-.058.398-.175.523s-.286.188-.508.188c-.121 0-.227-.012-.317-.043s-.164-.066-.21-.106v-.27c.058.06.136.11.238.145.097.04.199.055.304.055a.4.4 0 00.32-.133.53.53 0 00.118-.36.494.494 0 00-.086-.296 1.175 1.175 0 00-.316-.273 2.147 2.147 0 01-.371-.274.829.829 0 01-.157-.23.783.783 0 01-.05-.301c0-.191.062-.348.19-.473s.294-.187.49-.187c.214 0 .394.05.534.152l-.117.2a.75.75 0 00-.426-.133c-.136 0-.246.039-.328.12s-.12.188-.12.32c0 .118.026.216.081.294.055.078.172.176.352.285.175.117.297.211.363.281a.7.7 0 01.145.227.83.83 0 01.046.289zM35.73 69.105c-.27 0-.484.141-.644.426-.156.281-.234.676-.234 1.18 0 .328.035.613.109.855.074.243.18.426.316.559a.669.669 0 00.473.195c.188 0 .348-.035.48-.101v.219c-.128.074-.292.109-.5.109a.883.883 0 01-.597-.219c-.168-.144-.297-.355-.39-.633a3.108 3.108 0 01-.141-.988c0-.57.101-1.02.304-1.344s.48-.488.828-.488c.22 0 .41.05.57.152l-.109.207a.858.858 0 00-.465-.129zm1.278.747v1.726c0 .266.031.453.094.574s.16.18.289.18c.199 0 .347-.078.437-.238.098-.164.145-.426.145-.79v-1.452h.226V72.5h-.195l-.027-.371h-.02a.726.726 0 01-.238.312.565.565 0 01-.328.106c-.215 0-.371-.074-.47-.227-.097-.148-.148-.398-.148-.742v-1.726zM39.14 72.5h-.23v-3.797h.23zm1.195-.168a.566.566 0 00.191-.027v.195a.695.695 0 01-.277.047c-.273 0-.41-.203-.41-.61v-1.882h-.238v-.137l.234-.066.078-.63h.16v.63h.418v.203h-.418v1.816c0 .18.02.3.059.363.039.067.105.098.203.098zm.836-2.48v1.726c0 .266.031.453.094.574s.16.18.289.18c.199 0 .347-.078.441-.238.094-.164.14-.426.14-.79v-1.452h.231V72.5h-.195l-.031-.371h-.02a.698.698 0 01-.238.312.548.548 0 01-.328.106c-.211 0-.368-.074-.47-.227-.097-.148-.144-.398-.144-.742v-1.726zm2.637-.051c.082 0 .16.011.23.031l-.055.234a.475.475 0 00-.18-.035c-.09 0-.175.043-.253.137a.999.999 0 00-.18.383 2.163 2.163 0 00-.066.547V72.5h-.23v-2.648h.19l.024.464h.016c.125-.343.293-.515.504-.515zm1.656 2.699l-.028-.371h-.011c-.125.281-.317.418-.574.418a.502.502 0 01-.418-.203c-.106-.137-.157-.324-.157-.555 0-.25.075-.45.227-.598.152-.148.363-.23.637-.242l.285-.015v-.22c0-.245-.031-.425-.09-.538-.063-.114-.164-.172-.309-.172a.89.89 0 00-.465.148l-.101-.183c.187-.114.379-.168.582-.168.215 0 .375.066.469.207.097.137.144.367.144.687V72.5zm-.563-.148c.168 0 .293-.082.387-.247.094-.164.137-.394.137-.695v-.273l-.274.011c-.215.012-.37.07-.476.18-.102.106-.153.262-.153.465 0 .191.032.336.102.426.066.086.16.133.277.133zm1.684.148h-.23v-3.797h.23zm3.629-1.79c0 .59-.09 1.044-.266 1.364-.176.317-.43.473-.765.473-.336 0-.59-.156-.766-.477-.176-.32-.262-.773-.262-1.363 0-.617.086-1.074.258-1.375.176-.3.434-.453.777-.453.332 0 .586.16.762.476.172.317.262.77.262 1.356zm-1.809 0c0 .532.067.93.196 1.204.136.27.328.406.582.406.257 0 .449-.136.582-.402.132-.27.199-.672.199-1.207 0-.531-.063-.93-.195-1.195-.13-.274-.32-.407-.579-.407-.261 0-.457.137-.59.41-.128.27-.195.668-.195 1.192zm3.172-.91c.082 0 .16.013.23.032l-.054.234a.495.495 0 00-.184-.035c-.086 0-.172.043-.25.137a.999.999 0 00-.18.383 2.163 2.163 0 00-.066.547V72.5h-.23v-2.648h.187l.028.464h.015c.125-.343.293-.515.504-.515zm2.02.052v.164l-.364.039c.051.066.09.156.121.273s.047.238.047.363c0 .258-.058.465-.175.625a.542.542 0 01-.461.239h-.059l-.05-.004a.985.985 0 00-.188.164.315.315 0 00-.063.195c0 .074.028.133.086.176a.423.423 0 00.238.059h.165c.238 0 .421.062.55.183.13.125.196.3.196.531 0 .258-.09.465-.266.614-.172.152-.402.23-.688.23-.242 0-.425-.062-.554-.183-.13-.122-.192-.297-.192-.524 0-.168.043-.308.125-.43a.895.895 0 01.399-.277.496.496 0 01-.195-.148.355.355 0 01.003-.438c.055-.066.13-.133.227-.203a.64.64 0 01-.309-.3 1.111 1.111 0 01-.101-.49c0-.28.058-.503.18-.667a.574.574 0 01.488-.242.65.65 0 01.277.05zm-1.426 3.125a.57.57 0 00.129.394c.086.094.219.14.394.14.22 0 .39-.058.516-.171a.593.593 0 00.195-.469.496.496 0 00-.133-.371c-.086-.086-.21-.129-.378-.129h-.168a.53.53 0 00-.399.164.623.623 0 00-.156.442zm.14-2.262c0 .219.043.383.122.492a.373.373 0 00.316.168c.285 0 .426-.227.426-.684 0-.218-.035-.39-.11-.515-.07-.125-.175-.188-.316-.188s-.25.067-.324.192c-.074.129-.114.304-.114.535zm2.735 1.785l-.031-.371h-.008c-.13.281-.32.418-.578.418-.172 0-.309-.067-.414-.203s-.157-.324-.157-.555c0-.25.075-.45.227-.598.148-.148.363-.23.637-.242l.285-.015v-.22c0-.245-.031-.425-.094-.538s-.164-.172-.309-.172a.877.877 0 00-.46.148l-.102-.183c.184-.114.375-.168.578-.168.219 0 .375.066.473.207.093.137.144.367.144.687V72.5zm-.563-.148c.164 0 .293-.082.383-.247.094-.164.14-.394.14-.695v-.273l-.277.011c-.21.012-.37.07-.476.18-.102.106-.152.262-.152.465 0 .191.035.336.101.426.07.086.164.133.281.133zm2.649.148v-1.828c0-.438-.133-.656-.39-.656-.2 0-.345.082-.438.246-.094.164-.137.425-.137.785V72.5h-.234v-2.648h.195l.02.367h.023a.708.708 0 01.238-.309.566.566 0 01.336-.11c.203 0 .36.067.461.208.102.137.152.355.152.66V72.5zm1.156 0h-.23v-2.648h.23zm-.266-3.383c0-.074.016-.133.047-.172a.148.148 0 01.118-.062c.042 0 .078.023.101.062.027.04.04.098.04.172a.31.31 0 01-.04.168.113.113 0 01-.102.059.144.144 0 01-.117-.059.276.276 0 01-.047-.168zm1.829 3.383h-1.059v-.188l.781-2.257h-.73v-.203h.972v.187l-.777 2.258h.813zm1.5 0l-.032-.371h-.007c-.13.281-.32.418-.579.418a.502.502 0 01-.418-.203c-.101-.137-.156-.324-.156-.555 0-.25.078-.45.227-.598.152-.148.363-.23.636-.242l.29-.015v-.22c0-.245-.032-.425-.094-.538s-.164-.172-.309-.172a.89.89 0 00-.465.148l-.097-.183c.183-.114.375-.168.578-.168.219 0 .375.066.472.207.094.137.141.367.141.687V72.5zm-.567-.148c.168 0 .297-.082.387-.247.094-.164.14-.394.14-.695v-.273l-.277.011c-.215.012-.37.07-.476.18-.102.106-.153.262-.153.465 0 .191.032.336.102.426a.34.34 0 00.277.133zm1.938-.02a.566.566 0 00.191-.027v.195a.688.688 0 01-.273.047c-.274 0-.41-.203-.41-.61v-1.882h-.243v-.137l.235-.066.078-.63h.16v.63h.418v.203h-.418v1.816c0 .18.02.3.059.363.039.067.105.098.203.098zm.847.168h-.234v-2.648h.234zm-.265-3.383c0-.074.011-.133.043-.172a.148.148 0 01.117-.062c.043 0 .078.023.105.062.024.04.04.098.04.172 0 .07-.016.125-.04.168a.124.124 0 01-.105.059.144.144 0 01-.117-.059.276.276 0 01-.043-.168zm2.465 2.051c0 .45-.07.789-.211 1.027-.141.235-.34.352-.602.352-.258 0-.457-.117-.598-.352-.136-.238-.203-.578-.203-1.027 0-.91.27-1.367.809-1.367.254 0 .453.117.594.36.14.237.21.573.21 1.007zm-1.372 0c0 .383.043.672.137.867.09.195.23.293.426.293.379 0 .57-.387.57-1.16 0-.766-.191-1.148-.57-1.148-.2 0-.344.097-.434.289-.086.191-.129.476-.129.859zM67.55 72.5v-1.828c0-.438-.13-.656-.39-.656-.2 0-.345.082-.438.246-.09.164-.137.425-.137.785V72.5h-.23v-2.648h.195l.02.367h.023a.68.68 0 01.238-.309.554.554 0 01.332-.11c.207 0 .36.067.461.208.105.137.156.355.156.66V72.5zm-39.87-5.625h-1.293v-3.57h1.293v.23h-1.055v1.356h.996v.23h-.996v1.524h1.055zm1.242.047c-.516 0-.774-.453-.774-1.367 0-.45.067-.793.196-1.028s.316-.351.566-.351a.61.61 0 01.34.101.722.722 0 01.254.285h.02l-.008-.296v-1.188h.23v3.797h-.191l-.02-.371h-.02a.813.813 0 01-.25.312.578.578 0 01-.343.106zm.015-.2c.184 0 .325-.085.426-.257.102-.172.153-.426.153-.758v-.152c0-.403-.051-.696-.149-.88a.465.465 0 00-.441-.28c-.192 0-.328.101-.41.3-.082.2-.125.485-.125.864 0 .382.043.671.129.867.085.195.226.297.417.297zm1.743-2.495v1.726c0 .266.03.453.093.574s.16.18.29.18c.199 0 .347-.078.437-.238.098-.164.145-.426.145-.79v-1.452h.226v2.648h-.195l-.028-.371h-.02a.726.726 0 01-.237.312.565.565 0 01-.328.106c-.215 0-.372-.074-.47-.227-.097-.148-.148-.398-.148-.742v-1.726zm2.582 2.695a.655.655 0 01-.602-.344c-.133-.23-.2-.566-.2-1.016 0-.453.067-.796.204-1.03a.652.652 0 01.602-.356c.164 0 .3.027.41.09l-.09.203a.77.77 0 00-.3-.074c-.388 0-.583.386-.583 1.164 0 .77.195 1.156.582 1.156.117 0 .242-.028.38-.078v.195a1.045 1.045 0 01-.402.09zm1.898-.047l-.031-.371h-.008c-.129.281-.32.418-.578.418a.502.502 0 01-.418-.203c-.102-.137-.156-.324-.156-.555 0-.25.078-.45.226-.598.153-.148.368-.23.64-.242l.286-.015v-.22c0-.245-.031-.425-.094-.538s-.164-.172-.308-.172a.89.89 0 00-.465.148l-.098-.183c.184-.114.375-.168.578-.168.22 0 .375.066.47.207.097.137.144.367.144.687v1.805zm-.566-.148c.168 0 .297-.082.386-.247.094-.164.141-.394.141-.695v-.273l-.277.011c-.215.012-.371.07-.477.18-.101.106-.152.262-.152.465 0 .191.035.336.101.426.067.086.16.133.278.133zm1.937-.02a.566.566 0 00.192-.027v.195a.688.688 0 01-.274.047c-.273 0-.41-.203-.41-.61V64.43h-.242v-.137l.234-.066.078-.63h.16v.63h.419v.203h-.418v1.816c0 .18.02.3.058.363.04.067.11.098.203.098zm.848.168h-.234v-2.648h.234zm-.266-3.383c0-.074.012-.133.043-.172a.148.148 0 01.117-.062c.043 0 .079.023.106.062.023.04.039.098.039.172 0 .07-.016.125-.04.168a.124.124 0 01-.105.059.144.144 0 01-.117-.059.276.276 0 01-.043-.168zm2.465 2.051c0 .45-.07.789-.21 1.027-.141.235-.34.352-.602.352-.258 0-.457-.117-.598-.352-.137-.238-.203-.578-.203-1.027 0-.91.27-1.367.808-1.367.254 0 .454.117.594.36.14.237.211.573.211 1.007zm-1.371 0c0 .383.043.672.137.867.09.195.23.293.426.293.378 0 .57-.387.57-1.16 0-.766-.192-1.148-.57-1.148-.2 0-.344.097-.434.289-.086.191-.129.476-.129.859zm3.152 1.332v-1.828c0-.438-.129-.656-.39-.656-.2 0-.344.082-.438.246-.09.164-.136.425-.136.785v1.453h-.23v-2.648h.194l.02.367h.02a.715.715 0 01.242-.309.554.554 0 01.332-.11c.207 0 .359.067.465.208.101.137.152.355.152.66v1.832zm1.953 0l-.027-.371h-.012c-.125.281-.32.418-.574.418-.176 0-.312-.067-.418-.203s-.156-.324-.156-.555c0-.25.074-.45.227-.598.152-.148.363-.23.636-.242l.285-.015v-.22c0-.245-.03-.425-.093-.538-.059-.114-.164-.172-.305-.172a.88.88 0 00-.465.148l-.101-.183a1.08 1.08 0 01.578-.168c.218 0 .375.066.472.207.098.137.145.367.145.687v1.805zm-.562-.148c.164 0 .293-.082.383-.247.094-.164.14-.394.14-.695v-.273l-.273.011c-.215.012-.375.07-.477.18-.105.106-.156.262-.156.465 0 .191.035.336.102.426.07.086.164.133.281.133zm1.684.148h-.23v-3.797h.23zm1.105-.445c-.105.367-.242.73-.406 1.09h-.153a7.31 7.31 0 00.247-1.145h.277zm2.984-.489c0 .293-.082.528-.246.711a.791.791 0 01-.617.27c-.285 0-.515-.04-.687-.121v-.262c.086.047.191.086.316.113s.246.043.371.043a.57.57 0 00.45-.207.796.796 0 00.175-.527c0-.2-.043-.356-.125-.469-.082-.117-.242-.234-.476-.347a1.896 1.896 0 01-.414-.27.852.852 0 01-.204-.305 1.195 1.195 0 01-.066-.414c0-.176.04-.332.11-.469s.171-.242.3-.316a.799.799 0 01.422-.117 1.408 1.408 0 01.645.148l-.094.227a1.221 1.221 0 00-.551-.137.552.552 0 00-.43.18.67.67 0 00-.164.473c0 .199.04.355.121.468.078.11.235.223.47.344.237.117.413.254.526.41s.168.348.168.574zm1.25.98a.65.65 0 01-.597-.343c-.133-.23-.2-.566-.2-1.016 0-.453.067-.796.2-1.03a.658.658 0 01.605-.356.81.81 0 01.41.09l-.09.203a.787.787 0 00-.3-.074c-.39 0-.586.386-.586 1.164 0 .77.195 1.156.586 1.156.113 0 .238-.028.375-.078v.195a1.045 1.045 0 01-.402.09zm1.106-.046h-.23v-2.648h.23zm-.266-3.383c0-.074.016-.133.043-.172a.148.148 0 01.117-.062c.043 0 .079.023.106.062.027.04.039.098.039.172 0 .07-.012.125-.04.168a.124.124 0 01-.105.059.144.144 0 01-.117-.059.305.305 0 01-.043-.168zm1.727 3.43a.717.717 0 01-.645-.356c-.152-.238-.226-.57-.226-.996 0-.453.066-.8.203-1.035.133-.242.328-.36.578-.36.219 0 .395.106.52.313.128.211.19.492.19.848v.215h-1.253c.004.383.059.672.164.867a.513.513 0 00.48.285c.165 0 .34-.055.524-.164v.227a.99.99 0 01-.535.156zm-.106-2.535c-.316 0-.492.316-.523.953h1.02c0-.293-.047-.524-.137-.695-.086-.172-.207-.258-.36-.258zm2.516 2.488v-1.828c0-.438-.133-.656-.39-.656-.2 0-.344.082-.438.246-.094.164-.137.425-.137.785v1.453h-.234v-2.648h.195l.02.367h.023a.708.708 0 01.238-.309.566.566 0 01.336-.11c.203 0 .36.067.461.208.102.137.153.355.153.66v1.832zm1.414-.168c.07 0 .133-.008.188-.027v.195a.688.688 0 01-.274.047c-.273 0-.41-.203-.41-.61V64.43h-.242v-.137l.234-.066.078-.63h.16v.63h.422v.203h-.422v1.816c0 .18.02.3.059.363.04.067.105.098.207.098zm.844.168h-.235v-2.648h.235zm-.266-3.383c0-.074.012-.133.043-.172a.148.148 0 01.117-.062c.043 0 .078.023.106.062.023.04.039.098.039.172 0 .07-.016.125-.04.168a.124.124 0 01-.105.059.144.144 0 01-.117-.059.276.276 0 01-.043-.168zm1.653.938h-.418v2.445h-.227V64.43h-.336v-.13l.336-.1V64c0-.34.04-.582.117-.73.082-.145.219-.22.418-.22a.79.79 0 01.309.06l-.082.214a.574.574 0 00-.235-.058.23.23 0 00-.18.07.495.495 0 00-.09.227c-.019.109-.03.253-.03.44v.224h.418zm.66 2.445h-.23v-2.648h.23zm-.266-3.383c0-.074.016-.133.043-.172a.148.148 0 01.117-.062c.043 0 .078.023.106.062.027.04.039.098.039.172 0 .07-.012.125-.04.168a.124.124 0 01-.105.059.144.144 0 01-.117-.059.305.305 0 01-.043-.168zm1.656 3.43a.655.655 0 01-.601-.344c-.133-.23-.2-.566-.2-1.016 0-.453.067-.796.204-1.03a.652.652 0 01.601-.356.81.81 0 01.41.09l-.09.203a.787.787 0 00-.3-.074c-.39 0-.582.386-.582 1.164 0 .77.191 1.156.582 1.156.117 0 .242-.028.375-.078v.195a.761.761 0 01-.196.066 1.08 1.08 0 01-.203.024zm2.84-.047l-.031-.371h-.008c-.129.281-.32.418-.578.418a.502.502 0 01-.418-.203c-.102-.137-.156-.324-.156-.555 0-.25.078-.45.226-.598.153-.148.368-.23.637-.242l.29-.015v-.22c0-.245-.032-.425-.095-.538s-.164-.172-.308-.172a.89.89 0 00-.465.148l-.098-.183c.184-.114.375-.168.578-.168.22 0 .375.066.47.207.097.137.144.367.144.687v1.805zm-.566-.148c.168 0 .297-.082.386-.247.094-.164.141-.394.141-.695v-.273l-.277.011c-.215.012-.371.07-.477.18-.101.106-.152.262-.152.465 0 .191.035.336.101.426a.34.34 0 00.278.133zm2.648.148v-1.828c0-.438-.129-.656-.39-.656a.462.462 0 00-.434.246c-.094.164-.137.425-.137.785v1.453h-.234v-2.648h.195l.02.367h.023a.68.68 0 01.238-.309.566.566 0 01.336-.11c.204 0 .36.067.461.208.102.137.153.355.153.66v1.832zm1.574.047c-.511 0-.77-.453-.77-1.367 0-.45.063-.793.192-1.028.13-.234.32-.351.57-.351.118 0 .231.031.337.101a.704.704 0 01.257.285h.02l-.012-.296v-1.188h.235v3.797h-.192l-.02-.371h-.023a.772.772 0 01-.246.312.59.59 0 01-.348.106zm.016-.2c.188 0 .328-.085.43-.257.097-.172.148-.426.148-.758v-.152c0-.403-.047-.696-.144-.88-.098-.187-.243-.28-.442-.28-.191 0-.328.101-.41.3-.086.2-.125.485-.125.864 0 .382.043.671.129.867.086.195.223.297.414.297zm0 0"/><path d="M72.188 3.438v74.374" fill="none" stroke="#000" stroke-dasharray="1 1" stroke-linejoin="round" stroke-width=".625"/></svg>