<svg fill="none" height="128" width="128" xmlns="http://www.w3.org/2000/svg"><path d="M41.16 55.867v11.567c0 3.867-1.383 5.8-4.148 5.8-1.383 0-2.438-.5-3.164-1.5-.727-1-1.09-2.433-1.09-4.3V55.867h1.16v11.707c0 1.485.266 2.617.797 3.399.539.773 1.305 1.16 2.297 1.16.984 0 1.73-.387 2.238-1.16.508-.782.762-1.93.762-3.446v-11.66zM53.793 73h-1.465l-6.48-15.363h-.094c.094 1.062.14 2.086.14 3.07V73H44.77V55.867h1.488l6.433 15.188h.07a67.905 67.905 0 01-.093-3.211V55.867h1.125zm9.96 0h-6.21V55.867h6.21v1.102h-5.062v6.504h4.782v1.101H58.69v7.324h5.063zm9.599-4.488c0 1.406-.391 2.547-1.172 3.422-.782.867-1.774 1.3-2.977 1.3-1.367 0-2.465-.199-3.293-.597v-1.243c.406.227.91.407 1.512.54a8.288 8.288 0 001.781.199c.875 0 1.594-.332 2.156-.996.563-.664.844-1.508.844-2.531 0-.946-.2-1.696-.597-2.25-.399-.555-1.16-1.11-2.286-1.665-.882-.445-1.543-.875-1.98-1.289a3.978 3.978 0 01-.973-1.464c-.21-.555-.316-1.22-.316-1.993 0-.843.172-1.593.515-2.25a3.716 3.716 0 011.442-1.523 3.893 3.893 0 012.027-.55c.664 0 1.266.073 1.805.222.547.148.976.308 1.289.48l-.445 1.102c-.868-.445-1.75-.668-2.649-.668-.844 0-1.531.289-2.062.867-.524.57-.785 1.328-.785 2.273 0 .961.19 1.708.574 2.239.383.531 1.133 1.082 2.25 1.652 1.156.563 2 1.223 2.531 1.98.539.75.809 1.665.809 2.743zm7.757-11.813c-1.289 0-2.316.684-3.082 2.051-.757 1.36-1.136 3.246-1.136 5.66 0 1.57.175 2.938.527 4.102.351 1.164.855 2.058 1.512 2.683.656.625 1.418.938 2.285.938.89 0 1.656-.16 2.297-.48v1.054c-.61.352-1.41.527-2.403.527a4.26 4.26 0 01-2.859-1.054c-.812-.703-1.441-1.72-1.887-3.047-.445-1.336-.668-2.918-.668-4.746 0-2.735.485-4.883 1.453-6.446.977-1.562 2.305-2.343 3.985-2.343 1.047 0 1.96.242 2.742.726l-.527 1.008c-.657-.422-1.403-.633-2.239-.633zm14.543 7.711c0 2.836-.425 5.016-1.277 6.54-.844 1.523-2.066 2.284-3.668 2.284-1.617 0-2.844-.765-3.68-2.296-.836-1.54-1.254-3.723-1.254-6.551 0-2.953.415-5.153 1.243-6.598.828-1.445 2.07-2.168 3.726-2.168 1.594 0 2.809.762 3.645 2.285.844 1.516 1.265 3.684 1.265 6.504zm-8.683 0c0 2.547.316 4.473.949 5.778.64 1.296 1.57 1.945 2.789 1.945 1.227 0 2.156-.645 2.79-1.934.64-1.289.96-3.218.96-5.789 0-2.539-.312-4.453-.937-5.742-.625-1.297-1.551-1.945-2.778-1.945-1.258 0-2.203.656-2.836 1.968-.625 1.305-.937 3.211-.937 5.72z" fill="#000"/><g stroke="#000" stroke-width="2"><path d="M29 76h70M29 53h70M24 80h80m-85 4h90M29 49l35.5-12L98 49"/><path d="M37 50l27.752-9L92 50"/></g><path d="M73.79 92.29v3.854c0 1.29-.462 1.934-1.384 1.934-.46 0-.812-.166-1.054-.5-.243-.333-.364-.811-.364-1.433v-3.856h.387v3.902c0 .495.089.873.266 1.133.18.258.435.387.765.387.328 0 .577-.129.746-.387.17-.26.254-.643.254-1.148v-3.887zM76.847 98v-2.922c0-.703-.209-1.055-.625-1.055-.318 0-.551.132-.7.395-.145.263-.218.681-.218 1.254V98h-.371v-4.238h.312l.031.59h.036c.088-.214.216-.38.382-.496s.345-.176.536-.176c.328 0 .574.11.738.332.164.219.246.571.246 1.058V98zm1.855 0h-.371v-4.238h.371zm-.426-5.414c0-.117.024-.208.07-.274a.226.226 0 01.188-.097.19.19 0 01.168.097.506.506 0 01.063.274.51.51 0 01-.063.27.19.19 0 01-.168.097.226.226 0 01-.187-.098.465.465 0 01-.07-.27zm2.34 5.148a.912.912 0 00.305-.047V98a1.072 1.072 0 01-.441.078c-.438 0-.657-.327-.657-.98V94.09h-.383v-.219l.375-.11.121-1.007h.258v1.008h.672v.328h-.672v2.902c0 .287.032.482.094.586.063.104.172.156.328.156zm2.184.344c-.448 0-.793-.19-1.035-.57-.24-.383-.36-.916-.36-1.598 0-.724.107-1.276.32-1.656.217-.383.527-.574.93-.574.352 0 .63.168.832.504.203.333.305.783.305 1.351v.344h-2.008c.005.617.093 1.08.262 1.387.17.307.426.46.77.46.265 0 .545-.087.84-.261v.36a1.605 1.605 0 01-.856.253zm-.168-4.062c-.51 0-.79.509-.84 1.527h1.629c0-.466-.072-.837-.215-1.113-.14-.276-.332-.414-.574-.414zm3.14 4.062c-.822 0-1.234-.73-1.234-2.191 0-.719.103-1.266.309-1.64.205-.379.509-.567.91-.567.19 0 .37.054.539.164.172.11.309.26.41.453h.031l-.015-.473v-1.902h.37V98h-.304l-.031-.594h-.035a1.265 1.265 0 01-.395.5.934.934 0 01-.555.172zm.024-.324c.297 0 .525-.137.684-.41.16-.276.242-.681.242-1.215v-.242c0-.64-.078-1.11-.235-1.407-.153-.299-.389-.449-.707-.449-.304 0-.523.16-.656.48-.133.318-.2.78-.2 1.384 0 .609.07 1.071.208 1.386.138.315.36.473.664.473zm7.008.246h-.489l-2.16-5.121h-.031c.031.354.047.695.047 1.023V98h-.375v-5.71h.496l2.144 5.062h.024c-.02-.428-.031-.784-.031-1.07v-3.993h.375zm2.832 0l-.047-.594h-.016c-.203.448-.51.672-.922.672a.804.804 0 01-.668-.328c-.166-.221-.25-.517-.25-.887 0-.403.122-.722.364-.957.242-.237.582-.366 1.02-.387l.456-.023v-.352c0-.395-.05-.683-.148-.863-.1-.182-.263-.273-.492-.273-.243 0-.49.08-.743.238l-.16-.293c.294-.182.603-.273.926-.273.349 0 .6.11.754.332.154.218.23.586.23 1.101V98zm-.903-.238c.266 0 .472-.13.618-.39.148-.264.222-.635.222-1.114v-.442l-.441.024c-.341.018-.595.113-.762.285-.164.17-.246.418-.246.746 0 .307.055.533.164.676a.53.53 0 00.445.215zm3.102-.028a.912.912 0 00.305-.047V98a1.072 1.072 0 01-.442.078c-.437 0-.656-.327-.656-.98V94.09h-.383v-.219l.375-.11.121-1.007h.258v1.008h.672v.328h-.672v2.902c0 .287.031.482.094.586.062.104.172.156.328.156zm1.352.266h-.372v-4.238h.372zm-.426-5.414c0-.117.023-.208.07-.274a.227.227 0 01.188-.097c.07 0 .126.032.168.097s.062.157.062.274a.51.51 0 01-.062.27.191.191 0 01-.168.097.226.226 0 01-.188-.098.466.466 0 01-.07-.27zm3.949 3.285c0 .714-.113 1.26-.34 1.64-.224.378-.545.567-.965.567-.414 0-.732-.189-.953-.566-.219-.38-.328-.927-.328-1.64 0-1.462.432-2.192 1.297-2.192.406 0 .723.191.949.574.227.383.34.922.34 1.617zm-2.199 0c0 .612.073 1.074.218 1.387.146.312.374.469.684.469.607 0 .91-.619.91-1.856 0-1.226-.303-1.84-.91-1.84-.318 0-.548.154-.691.461-.141.307-.211.767-.211 1.38zM105.559 98v-2.922c0-.703-.209-1.055-.625-1.055-.318 0-.551.132-.7.395-.145.263-.218.681-.218 1.254V98h-.371v-4.238h.312l.031.59h.035c.089-.214.217-.38.383-.496a.914.914 0 01.535-.176c.329 0 .575.11.739.332.164.219.246.571.246 1.058V98zm3.148-1.063c0 .357-.094.637-.281.84-.188.2-.459.301-.813.301a1.6 1.6 0 01-.508-.074 1.248 1.248 0 01-.339-.164v-.434c.096.097.224.175.382.235.159.057.322.086.489.086.218 0 .39-.072.515-.215s.188-.335.188-.575a.793.793 0 00-.137-.472c-.088-.13-.259-.278-.512-.442-.289-.182-.487-.328-.593-.437a1.244 1.244 0 01-.246-.367 1.227 1.227 0 01-.086-.485 1 1 0 01.308-.754c.206-.2.468-.3.785-.3.342 0 .627.08.856.242l-.192.324a1.198 1.198 0 00-.679-.215.71.71 0 00-.524.196.68.68 0 00-.195.507c0 .188.044.345.133.473.088.125.276.277.562.457.282.185.474.333.578.445.105.11.181.232.231.368.052.132.078.286.078.46zm-51.539 13.629c-.43 0-.772.228-1.027.684-.253.453-.38 1.082-.38 1.887 0 .523.06.979.176 1.367s.286.686.504.894c.22.209.473.313.762.313.297 0 .552-.053.766-.16v.351c-.203.118-.47.176-.801.176a1.42 1.42 0 01-.953-.351c-.271-.235-.48-.573-.63-1.016-.148-.445-.222-.973-.222-1.582 0-.912.162-1.628.485-2.149.325-.52.768-.781 1.328-.781.349 0 .653.081.914.242l-.176.336a1.355 1.355 0 00-.746-.211zm2.043 1.196v2.765c0 .42.05.726.148.918a.494.494 0 00.465.289c.32 0 .555-.129.703-.386.151-.261.227-.68.227-1.258v-2.328h.367V116h-.312l-.047-.594h-.032a1.153 1.153 0 01-.378.5.89.89 0 01-.528.172c-.34 0-.59-.121-.75-.363-.156-.242-.234-.638-.234-1.188v-2.765zM62.625 116h-.371v-6.078h.371zm1.914-.266a.921.921 0 00.305-.046V116a1.074 1.074 0 01-.442.078c-.437 0-.656-.327-.656-.98v-3.008h-.383v-.219l.375-.109.121-1.008h.258v1.008h.672v.328h-.672v2.902c0 .287.031.482.094.586s.172.156.328.156zm1.336-3.972v2.765c0 .42.05.726.148.918a.495.495 0 00.465.289c.32 0 .555-.129.703-.386.151-.261.227-.68.227-1.258v-2.328h.367V116h-.312l-.047-.594h-.031a1.152 1.152 0 01-.38.5.89.89 0 01-.527.172c-.34 0-.59-.121-.75-.363-.156-.242-.234-.638-.234-1.188v-2.765zm4.219-.082c.133 0 .256.018.37.054l-.089.371a.745.745 0 00-.29-.058c-.142 0-.276.074-.401.223-.123.145-.22.35-.29.613s-.105.553-.105.871V116h-.371v-4.238h.305l.039.742h.027c.198-.55.466-.824.805-.824zm2.652 4.32l-.047-.594h-.015c-.203.448-.51.672-.922.672a.803.803 0 01-.668-.328c-.167-.221-.25-.517-.25-.887 0-.403.12-.722.363-.957.242-.237.582-.366 1.02-.386l.457-.024v-.351c0-.396-.05-.684-.149-.864-.099-.182-.263-.273-.492-.273-.242 0-.49.079-.742.238l-.16-.293c.294-.182.603-.273.925-.273.35 0 .6.11.754.332.154.218.23.586.23 1.101V116zm-.902-.238c.265 0 .471-.13.617-.391.148-.263.223-.634.223-1.113v-.442l-.442.024c-.341.018-.595.113-.762.285-.164.169-.246.418-.246.746 0 .307.055.533.164.676.11.143.258.215.446.215zm2.695.238h-.371v-6.078h.371zm5.805-2.863c0 .945-.142 1.672-.426 2.179-.281.508-.689.762-1.223.762-.539 0-.948-.255-1.226-.766-.279-.513-.418-1.24-.418-2.183 0-.984.138-1.718.414-2.199.276-.482.69-.723 1.242-.723.531 0 .936.254 1.215.762.281.505.422 1.228.422 2.168zm-2.895 0c0 .849.106 1.491.317 1.925.213.433.523.649.93.649.408 0 .718-.215.929-.645.213-.429.32-1.073.32-1.929 0-.847-.104-1.485-.312-1.914-.208-.433-.517-.649-.926-.649-.42 0-.734.219-.945.656-.209.435-.313 1.071-.313 1.907zm5.074-1.457c.133 0 .257.018.372.054l-.09.371a.745.745 0 00-.29-.058c-.143 0-.277.074-.402.223-.122.145-.218.35-.289.613s-.105.553-.105.871V116h-.371v-4.238h.304l.04.742h.027c.198-.55.466-.824.804-.824zm3.23.082v.261l-.577.067c.078.101.142.247.191.437.05.188.074.381.074.578 0 .412-.093.745-.28 1a.863.863 0 01-.735.383h-.094l-.082-.008a1.555 1.555 0 00-.297.266.484.484 0 00-.105.309.33.33 0 00.14.281c.094.065.22.098.38.098h.265c.377 0 .67.097.879.293.208.195.312.477.312.847 0 .414-.14.742-.422.985-.278.242-.647.363-1.105.363-.383 0-.677-.098-.883-.293-.206-.193-.308-.471-.308-.836 0-.266.067-.494.203-.684.135-.187.347-.336.636-.445a.817.817 0 01-.316-.238.58.58 0 01-.117-.364c0-.127.041-.24.125-.339.086-.102.207-.21.363-.325a1.014 1.014 0 01-.492-.48 1.743 1.743 0 01-.164-.781c0-.451.095-.806.285-1.067.19-.26.45-.39.781-.39.177 0 .326.027.446.082zm-2.28 5c0 .268.069.478.207.629.14.151.351.226.633.226.349 0 .625-.091.828-.273.205-.183.308-.433.308-.75 0-.255-.07-.453-.21-.594-.139-.138-.34-.207-.606-.207h-.274a.845.845 0 00-.636.266c-.167.179-.25.414-.25.703zm.23-3.617c0 .346.064.609.192.789a.596.596 0 00.507.265c.454 0 .68-.364.68-1.094 0-.351-.059-.626-.176-.824a.55.55 0 00-.504-.297c-.226 0-.4.102-.52.305s-.179.488-.179.856zM88.074 116l-.047-.594h-.015c-.203.448-.51.672-.922.672a.803.803 0 01-.668-.328c-.167-.221-.25-.517-.25-.887 0-.403.121-.722.363-.957.242-.237.582-.366 1.02-.386l.457-.024v-.351c0-.396-.05-.684-.149-.864-.099-.182-.263-.273-.492-.273-.242 0-.49.079-.742.238l-.16-.293c.294-.182.603-.273.926-.273.349 0 .6.11.753.332.154.218.23.586.23 1.101V116zm-.902-.238c.266 0 .471-.13.617-.391.149-.263.223-.634.223-1.113v-.442l-.442.024c-.34.018-.595.113-.761.285-.164.169-.246.418-.246.746 0 .307.054.533.164.676a.53.53 0 00.445.215zm4.238.238v-2.922c0-.703-.208-1.055-.625-1.055-.318 0-.55.132-.7.395-.145.263-.218.681-.218 1.254V116h-.37v-4.238h.312l.03.59h.036a1.11 1.11 0 01.383-.497.914.914 0 01.535-.175c.328 0 .574.11.738.332.164.218.246.571.246 1.058V116zm1.856 0h-.371v-4.238h.37zm-.426-5.414c0-.117.023-.208.07-.274a.226.226 0 01.188-.097.19.19 0 01.168.097.51.51 0 01.062.274c0 .112-.02.202-.062.269a.19.19 0 01-.168.098.224.224 0 01-.188-.098.462.462 0 01-.07-.269zM95.766 116h-1.7v-.297l1.25-3.613h-1.168v-.328h1.559v.3l-1.246 3.61h1.305zm2.394 0l-.047-.594h-.015c-.203.448-.51.672-.922.672a.803.803 0 01-.668-.328c-.167-.221-.25-.517-.25-.887 0-.403.12-.722.363-.957.242-.237.582-.366 1.02-.386l.457-.024v-.351c0-.396-.05-.684-.149-.864-.099-.182-.263-.273-.492-.273-.242 0-.49.079-.742.238l-.16-.293c.294-.182.603-.273.926-.273.348 0 .6.11.753.332.154.218.23.586.23 1.101V116zm-.902-.238c.265 0 .471-.13.617-.391.148-.263.223-.634.223-1.113v-.442l-.442.024c-.34.018-.595.113-.761.285-.164.169-.247.418-.247.746 0 .307.055.533.165.676s.257.215.445.215zm3.101-.028a.918.918 0 00.305-.046V116a1.075 1.075 0 01-.441.078c-.438 0-.657-.327-.657-.98v-3.008h-.382v-.219l.375-.109.12-1.008h.259v1.008h.671v.328h-.671v2.902c0 .287.03.482.093.586.063.104.172.156.328.156zm1.352.266h-.371v-4.238h.371zm-.426-5.414c0-.117.024-.208.07-.274a.227.227 0 01.188-.097c.07 0 .126.032.168.097a.508.508 0 01.062.274c0 .112-.02.202-.062.269a.19.19 0 01-.168.098.225.225 0 01-.188-.098.468.468 0 01-.07-.269zm3.949 3.285c0 .714-.113 1.261-.339 1.641-.224.377-.546.566-.965.566-.414 0-.732-.189-.953-.566-.219-.38-.329-.927-.329-1.641 0-1.461.433-2.191 1.297-2.191.407 0 .723.191.95.574.226.383.339.922.339 1.617zm-2.199 0c0 .612.073 1.074.219 1.387.146.312.374.469.684.469.606 0 .91-.619.91-1.856 0-1.226-.304-1.84-.91-1.84-.318 0-.549.154-.692.461-.141.307-.211.767-.211 1.379zm5.047 2.129v-2.922c0-.703-.208-1.055-.625-1.055-.318 0-.551.132-.699.395-.146.263-.219.681-.219 1.254V116h-.371v-4.238h.312l.032.59h.035c.088-.214.216-.379.383-.497a.912.912 0 01.535-.175c.328 0 .574.11.738.332.164.218.246.571.246 1.058V116zm-63.792-9h-2.071v-5.711h2.07v.367h-1.687v2.168h1.593v.367h-1.593v2.442h1.687zm1.983.078c-.823 0-1.234-.73-1.234-2.191 0-.719.103-1.266.309-1.641.205-.378.509-.566.91-.566.19 0 .37.054.539.164.172.109.308.26.41.453h.031l-.015-.473v-1.902h.37V107h-.304l-.031-.594h-.035a1.266 1.266 0 01-.395.5.931.931 0 01-.555.172zm.024-.324c.297 0 .525-.137.683-.41.162-.276.243-.681.243-1.215v-.242c0-.641-.079-1.11-.235-1.407-.153-.299-.389-.449-.707-.449-.304 0-.523.16-.656.481-.133.317-.2.778-.2 1.383 0 .609.07 1.071.208 1.386s.36.473.664.473zm2.789-3.992v2.765c0 .42.05.726.148.918a.494.494 0 00.465.289c.32 0 .555-.129.703-.386.151-.261.227-.68.227-1.258v-2.328h.367V107h-.312l-.047-.594h-.032a1.153 1.153 0 01-.378.5.89.89 0 01-.528.172c-.34 0-.59-.121-.75-.363-.156-.242-.234-.638-.234-1.188v-2.765zm4.133 4.316c-.425 0-.745-.183-.961-.551-.214-.369-.32-.911-.32-1.625 0-.724.108-1.274.324-1.652.218-.38.54-.57.965-.57.263 0 .481.048.656.144l-.145.328a1.167 1.167 0 00-.48-.121c-.623 0-.934.621-.934 1.864 0 1.231.311 1.847.934 1.847.185 0 .385-.041.601-.125v.313c-.086.047-.191.083-.316.109s-.233.039-.324.039zm3.035-.078l-.047-.594h-.016c-.203.448-.51.672-.922.672a.803.803 0 01-.667-.328c-.167-.221-.25-.517-.25-.887 0-.403.12-.722.363-.957.242-.237.582-.366 1.02-.386l.456-.024v-.351c0-.396-.05-.684-.148-.864-.099-.182-.263-.273-.492-.273-.242 0-.49.079-.742.238l-.16-.293a1.73 1.73 0 01.925-.273c.35 0 .6.11.754.332.154.218.23.586.23 1.101V107zm-.902-.238c.265 0 .47-.13.617-.391.148-.263.222-.634.222-1.113v-.442l-.441.024c-.341.018-.595.113-.762.285-.164.169-.246.418-.246.746 0 .307.055.533.164.676.11.143.258.215.446.215zm3.101-.028a.92.92 0 00.305-.046V107a1.074 1.074 0 01-.442.078c-.437 0-.656-.327-.656-.98v-3.008h-.383v-.219l.375-.109.121-1.008h.258v1.008h.672v.328h-.672v2.902c0 .287.031.482.094.586s.172.156.328.156zm1.352.266h-.371v-4.238h.37zm-.426-5.414c0-.117.023-.208.07-.274a.226.226 0 01.188-.097.19.19 0 01.168.097.51.51 0 01.062.274c0 .112-.02.202-.062.269a.19.19 0 01-.168.098.225.225 0 01-.188-.098.462.462 0 01-.07-.269zm3.95 3.285c0 .714-.114 1.261-.34 1.641-.225.377-.546.566-.966.566-.414 0-.731-.189-.953-.566-.218-.38-.328-.927-.328-1.641 0-1.461.432-2.191 1.297-2.191.406 0 .723.191.95.574.226.383.34.922.34 1.617zm-2.2 0c0 .612.073 1.074.219 1.387.145.312.373.469.683.469.607 0 .91-.619.91-1.856 0-1.226-.303-1.84-.91-1.84-.318 0-.548.154-.691.461-.14.307-.211.767-.211 1.379zM66.176 107v-2.922c0-.703-.209-1.055-.625-1.055-.318 0-.551.132-.7.395-.145.263-.218.681-.218 1.254V107h-.371v-4.238h.312l.031.59h.036a1.11 1.11 0 01.382-.497.914.914 0 01.536-.175c.328 0 .574.11.738.332.164.218.246.571.246 1.058V107zm3.125 0l-.047-.594h-.016c-.203.448-.51.672-.922.672a.803.803 0 01-.668-.328c-.166-.221-.25-.517-.25-.887 0-.403.121-.722.364-.957.242-.237.582-.366 1.02-.386l.456-.024v-.351c0-.396-.05-.684-.148-.864-.1-.182-.263-.273-.492-.273-.243 0-.49.079-.743.238l-.16-.293c.295-.182.603-.273.926-.273.35 0 .6.11.754.332.154.218.23.586.23 1.101V107zm-.903-.238c.266 0 .472-.13.618-.391.148-.263.222-.634.222-1.113v-.442l-.441.024c-.341.018-.595.113-.762.285-.164.169-.246.418-.246.746 0 .307.055.533.164.676.11.143.258.215.445.215zm2.696.238h-.371v-6.078h.37zm1.77-.711a13.273 13.273 0 01-.65 1.742h-.245c.195-.664.325-1.274.39-1.832h.45zm4.773-.785c0 .469-.13.849-.39 1.141a1.28 1.28 0 01-.993.433c-.456 0-.822-.066-1.098-.199v-.414c.136.075.304.135.504.18.2.044.399.066.594.066.292 0 .531-.111.719-.332s.28-.503.28-.844c0-.315-.066-.565-.198-.75s-.387-.37-.762-.555c-.294-.148-.514-.291-.66-.429a1.332 1.332 0 01-.324-.489 1.866 1.866 0 01-.106-.664c0-.281.057-.531.172-.75a1.292 1.292 0 011.156-.691 2.285 2.285 0 011.031.234l-.148.368a1.907 1.907 0 00-.883-.223.89.89 0 00-.687.289c-.175.19-.262.443-.262.758 0 .32.064.569.191.746s.378.361.75.551c.386.187.667.407.844.66.18.25.27.555.27.914zm2.004 1.574c-.425 0-.745-.183-.961-.551-.214-.369-.32-.911-.32-1.625 0-.724.107-1.274.324-1.652.218-.38.54-.57.964-.57.263 0 .482.048.657.144l-.145.328a1.167 1.167 0 00-.48-.121c-.623 0-.934.621-.934 1.864 0 1.231.311 1.847.934 1.847.185 0 .385-.041.601-.125v.313c-.086.047-.191.083-.316.109s-.233.039-.324.039zm1.765-.078h-.37v-4.238h.37zm-.426-5.414c0-.117.024-.208.07-.274a.226.226 0 01.188-.097.19.19 0 01.168.097.51.51 0 01.063.274.503.503 0 01-.063.269.19.19 0 01-.168.098.225.225 0 01-.187-.098.462.462 0 01-.07-.269zm2.766 5.492c-.448 0-.793-.19-1.035-.57-.24-.383-.36-.916-.36-1.598 0-.724.107-1.276.32-1.656.217-.383.527-.574.93-.574.352 0 .63.168.833.504.203.333.304.783.304 1.351v.344H82.73c.006.617.093 1.079.262 1.387.17.307.426.461.77.461.265 0 .545-.088.84-.262v.359a1.592 1.592 0 01-.856.254zm-.168-4.062c-.51 0-.79.509-.84 1.527h1.63c0-.466-.072-.837-.216-1.113-.14-.276-.332-.414-.574-.414zm4.02 3.984v-2.922c0-.703-.209-1.055-.625-1.055-.318 0-.551.132-.7.395-.145.263-.218.681-.218 1.254V107h-.371v-4.238h.312l.031.59h.035a1.11 1.11 0 01.383-.497.914.914 0 01.536-.175c.328 0 .574.11.738.332.164.218.246.571.246 1.058V107zm2.261-.266a.92.92 0 00.305-.046V107a1.074 1.074 0 01-.441.078c-.438 0-.657-.327-.657-.98v-3.008h-.382v-.219l.375-.109.12-1.008h.258v1.008h.672v.328h-.672v2.902c0 .287.032.482.094.586.063.104.172.156.328.156zm1.352.266h-.371v-4.238h.37zm-.426-5.414c0-.117.024-.208.07-.274a.226.226 0 01.188-.097.19.19 0 01.168.097.51.51 0 01.062.274c0 .112-.02.202-.062.269a.19.19 0 01-.168.098.224.224 0 01-.188-.098.462.462 0 01-.07-.269zm2.645 1.504h-.664V107h-.368v-3.91h-.539v-.211l.54-.16v-.321c0-.539.063-.927.19-1.164s.35-.355.665-.355c.182 0 .348.032.496.098l-.129.343a.891.891 0 00-.375-.097c-.128 0-.224.037-.289.113-.065.075-.113.198-.145.367s-.046.404-.046.703v.356h.664zm1.058 3.91h-.37v-4.238h.37zm-.426-5.414c0-.117.024-.208.07-.274a.226.226 0 01.188-.097.19.19 0 01.168.097.511.511 0 01.063.274.503.503 0 01-.063.269.19.19 0 01-.168.098.225.225 0 01-.187-.098.462.462 0 01-.07-.269zm2.649 5.492c-.425 0-.745-.183-.961-.551-.214-.369-.32-.911-.32-1.625 0-.724.108-1.274.324-1.652.219-.38.54-.57.965-.57.263 0 .481.048.656.144l-.145.328a1.167 1.167 0 00-.48-.121c-.622 0-.934.621-.934 1.864 0 1.231.312 1.847.934 1.847.185 0 .385-.041.602-.125v.313a1.625 1.625 0 01-.641.148zm4.543-.078l-.047-.594h-.016c-.203.448-.51.672-.921.672a.803.803 0 01-.668-.328c-.167-.221-.25-.517-.25-.887 0-.403.12-.722.363-.957.242-.237.582-.366 1.019-.386l.457-.024v-.351c0-.396-.049-.684-.148-.864-.099-.182-.263-.273-.492-.273-.242 0-.49.079-.742.238l-.16-.293a1.73 1.73 0 01.925-.273c.349 0 .6.11.754.332.154.218.231.586.231 1.101V107zm-.902-.238c.265 0 .471-.13.617-.391.148-.263.222-.634.222-1.113v-.442l-.441.024c-.341.018-.595.113-.762.285-.164.169-.246.418-.246.746 0 .307.055.533.164.676.11.143.258.215.446.215zm4.238.238v-2.922c0-.703-.208-1.055-.625-1.055-.318 0-.551.132-.699.395-.146.263-.219.681-.219 1.254V107h-.371v-4.238h.312l.032.59h.035c.088-.214.216-.379.383-.497a.912.912 0 01.535-.175c.328 0 .574.11.738.332.164.218.246.571.246 1.058V107zm2.519.078c-.823 0-1.234-.73-1.234-2.191 0-.719.103-1.266.309-1.641.205-.378.509-.566.91-.566.19 0 .37.054.539.164.172.109.308.26.41.453h.031l-.015-.473v-1.902h.371V107h-.305l-.031-.594h-.035a1.266 1.266 0 01-.395.5.93.93 0 01-.555.172zm.024-.324c.297 0 .525-.137.683-.41.162-.276.243-.681.243-1.215v-.242c0-.641-.079-1.11-.235-1.407-.153-.299-.389-.449-.707-.449-.305 0-.523.16-.656.481-.133.317-.199.778-.199 1.383 0 .609.069 1.071.207 1.386s.359.473.664.473z" fill="#000"/><path d="M115.5 5.5v119" stroke="#000" stroke-dasharray="1 1" stroke-linejoin="round"/></svg>