<svg fill="none" height="308" viewBox="0 0 302 308" width="302" xmlns="http://www.w3.org/2000/svg"><path d="m0 0h302v308h-302z" fill="#e5e5e5"/><path d="m0 0h302v308h-302z" fill="#ffdab9"/><path d="m198.885 22.5769-20.644 49.5446-23.21-49.7359c-.936-2.0056-3.079-3.1572-5.268-2.831-2.189.3263-3.903 2.0528-4.214 4.2441l-6.898 48.6956-41.7783-51.157c-1.4383-1.7611-3.8838-2.33-5.9518-1.3845-2.0679.9455-3.2375 3.1672-2.8464 5.4072l10.202 58.4295c-11.1835 2.9094-20.517 6.02-29.7322 10.7475-10.4344 5.3529-20.4879 12.659-32.8769 23.736-.394.352-.7297.764-.9946 1.222-7.101 12.266-11.6454 23.207-14.0062 36.389-2.3404 13.069-2.4888 28.094-1.1559 48.443.0344.524.1512 1.04.3463 1.528 5.9607 14.917 11.2062 26.612 18.2377 37.425 7.0615 10.859 15.8007 20.644 28.5915 31.964.1252.111.2558.215.3915.313 18.7438 13.501 31.157 19.261 55.5453 26.25.448.128.911.193 1.377.193h62.5c.075 0 .15-.002.225-.005 8.964-.404 16.048-1.225 22.722-3.191 6.72-1.979 12.766-5.039 19.784-9.616.177-.115.347-.242.508-.379 18.638-15.846 31.43-29.052 40.442-43.485 9.054-14.502 14.098-29.929 17.738-49.929.007-.04.014-.08.021-.12 2.244-14.3 3.334-27.436 1.216-40.631-2.131-13.279-7.457-26.302-17.581-40.541-.099-.14-.205-.274-.318-.403-7.515-8.555-18.385-15.7092-29.295-20.9914-9.395-4.5482-19.155-7.8701-27.378-9.5001l-6.11-59.2216c-.235-2.2752-1.984-4.101-4.247-4.4337s-4.463.9124-5.342 3.0237z" fill="#e15458" stroke="#000" stroke-linejoin="round" stroke-width="10"/></svg>