<svg fill="none" height="128" viewBox="0 0 128 128" width="128" xmlns="http://www.w3.org/2000/svg"><path d="m41.1602 55.8672v11.5664c0 3.8672-1.3829 5.8008-4.1485 5.8008-1.3828 0-2.4375-.5-3.164-1.5-.7266-1-1.0899-2.4336-1.0899-4.3008v-11.5664h1.1602v11.707c0 1.4844.2656 2.6172.7968 3.3985.5391.7734 1.3047 1.1601 2.2969 1.1601.9844 0 1.7305-.3867 2.2383-1.1601.5078-.7813.7617-1.9297.7617-3.4454v-11.6601zm12.6328 17.1328h-1.4649l-6.4804-15.3633h-.0938c.0938 1.0625.1406 2.086.1406 3.0703v12.293h-1.125v-17.1328h1.4883l6.4336 15.1875h.0703c-.0625-1.2813-.0937-2.3516-.0937-3.2109v-11.9766h1.125zm9.9609 0h-6.2109v-17.1328h6.2109v1.1016h-5.0625v6.5039h4.7813v1.1015h-4.7813v7.3242h5.0625zm9.5977-4.4883c0 1.4063-.3907 2.5469-1.1719 3.4219-.7813.8672-1.7735 1.3008-2.9766 1.3008-1.3672 0-2.4648-.1992-3.2929-.5977v-1.2422c.4062.2266.9101.4063 1.5117.5391.6015.1328 1.1953.1992 1.7812.1992.875 0 1.5938-.332 2.1563-.9961.5625-.664.8437-1.5078.8437-2.5312 0-.9453-.1992-1.6953-.5976-2.25-.3985-.5547-1.1602-1.1094-2.2852-1.6641-.8828-.4453-1.543-.875-1.9805-1.2891-.4375-.4218-.7617-.9101-.9726-1.4648-.211-.5547-.3164-1.2187-.3164-1.9922 0-.8437.1719-1.5937.5156-2.25.3438-.6562.8242-1.1641 1.4414-1.5234.6172-.3672 1.293-.5508 2.0274-.5508.664 0 1.2656.0742 1.8046.2227.5469.1484.9766.3085 1.2891.4804l-.4453 1.1016c-.8672-.4453-1.75-.668-2.6484-.668-.8438 0-1.5313.2891-2.0625.8672-.5235.5703-.7852 1.3281-.7852 2.2734 0 .961.1914 1.7071.5742 2.2383.3828.5313 1.1328 1.0821 2.25 1.6524 1.1563.5625 2 1.2226 2.5313 1.9804.539.75.8086 1.6641.8086 2.7422zm7.7578-11.8125c-1.2891 0-2.3164.6836-3.0821 2.0508-.7578 1.3594-1.1367 3.2461-1.1367 5.6602 0 1.5703.1758 2.9375.5274 4.1015.3515 1.1641.8554 2.0586 1.5117 2.6836.6562.625 1.418.9375 2.2851.9375.8907 0 1.6563-.1601 2.2969-.4805v1.0547c-.6094.3516-1.4101.5274-2.4023.5274-1.086 0-2.0391-.3516-2.8594-1.0547-.8125-.7031-1.4414-1.7188-1.8867-3.0469-.4453-1.3359-.668-2.918-.668-4.7461 0-2.7344.4844-4.8828 1.4531-6.4453.9766-1.5625 2.3047-2.3437 3.9844-2.3437 1.0469 0 1.961.2421 2.7422.7265l-.5273 1.0078c-.6563-.4218-1.4024-.6328-2.2383-.6328zm14.5429 7.711c0 2.8359-.4257 5.0156-1.2773 6.539-.8438 1.5235-2.0664 2.2852-3.668 2.2852-1.6172 0-2.8437-.7656-3.6797-2.2969-.8359-1.5391-1.2539-3.7227-1.2539-6.5508 0-2.9531.4141-5.1523 1.2422-6.5976.8282-1.4453 2.0703-2.168 3.7266-2.168 1.5937 0 2.8086.7617 3.6445 2.2851.8438 1.5157 1.2656 3.6836 1.2656 6.504zm-8.6835 0c0 2.5468.3164 4.4726.9492 5.7773.6406 1.2969 1.5703 1.9453 2.789 1.9453 1.2266 0 2.1563-.6445 2.7891-1.9336.6406-1.289.9609-3.2187.9609-5.789 0-2.5391-.3125-4.4532-.9375-5.7422-.625-1.2969-1.5507-1.9453-2.7773-1.9453-1.2578 0-2.2031.6562-2.836 1.9687-.625 1.3047-.9374 3.2109-.9374 5.7188z" fill="#000"/><g stroke="#000"><path d="m29 76h70" stroke-width="2"/><path d="m29 53h70" stroke-width="2"/><path d="m24 80h80" stroke-width="2"/><path d="m19 84h90" stroke-width="2"/><path d="m29 49 35.5-12 33.5 12" stroke-width="2"/><path d="m37 50 27.7523-9 27.2477 9" stroke-width="2"/></g><path d="m73.7891 92.2891v3.8554c0 1.2891-.461 1.9336-1.3829 1.9336-.4609 0-.8124-.1666-1.0546-.5-.2422-.3333-.3633-.8112-.3633-1.4336v-3.8554h.3867v3.9023c0 .4948.0885.8724.2656 1.1328.1797.2578.4349.3867.7656.3867.3282 0 .5769-.1289.7461-.3867.1693-.2604.2539-.6432.2539-1.1484v-3.8867zm3.0586 5.7109v-2.9219c0-.7031-.2084-1.0547-.625-1.0547-.3178 0-.5508.1315-.6993.3946-.1458.263-.2187.681-.2187 1.2539v2.3281h-.3711v-4.2383h.3125l.0312.5899h.0352c.0885-.2136.2161-.3789.3828-.4961s.3451-.1758.5352-.1758c.3281 0 .5742.1107.7383.332.164.2188.246.5716.246 1.0586v2.9297zm1.8554 0h-.3711v-4.2383h.3711zm-.4258-5.4141c0-.1171.0235-.2083.0704-.2734.0494-.0651.1119-.0977.1875-.0977.0703 0 .1263.0326.1679.0977.0417.0651.0625.1563.0625.2734 0 .112-.0208.2019-.0625.2696-.0416.0651-.0976.0976-.1679.0976-.0756 0-.1381-.0325-.1875-.0976-.0469-.0677-.0704-.1576-.0704-.2696zm2.3399 5.1485c.1146 0 .2161-.0156.3047-.0469v.3125c-.1146.0521-.2617.0781-.4414.0781-.4375 0-.6563-.3268-.6563-.9804v-3.0079h-.3828v-.2187l.375-.1094.1211-1.0078h.2578v1.0078h.6719v.3281h-.6719v2.9024c0 .2864.0313.4818.0938.5859.0625.1042.1718.1563.3281.1563zm2.1836.3437c-.4479 0-.793-.1901-1.0352-.5703-.2396-.3828-.3594-.9154-.3594-1.5976 0-.724.1068-1.2761.3204-1.6563.2161-.3828.526-.5742.9296-.5742.3516 0 .629.168.8321.5039.2031.3333.3047.7838.3047 1.3516v.3437h-2.0078c.0052.6172.0924 1.0794.2617 1.3867.1692.3073.4258.461.7695.461.2656 0 .5456-.0873.8398-.2618v.3594c-.2708.1693-.5559.2539-.8554.2539zm-.168-4.0625c-.5104 0-.7904.5091-.8398 1.5274h1.6289c0-.4662-.0716-.8373-.2149-1.1133-.1406-.2761-.332-.4141-.5742-.4141zm3.1406 4.0625c-.8229 0-1.2343-.7304-1.2343-2.1914 0-.7187.1028-1.2656.3086-1.6406.2057-.3776.5091-.5664.9101-.5664.1901 0 .3698.0547.5391.1641.1719.1093.3086.2604.4101.4531h.0313l-.0156-.4727v-1.9023h.3711v6.0781h-.3047l-.0313-.5938h-.0351c-.1016.2162-.2331.3829-.3946.5-.1614.1146-.3463.1719-.5547.1719zm.0235-.3242c.2969 0 .5247-.1367.6836-.4101.1614-.2761.2422-.681.2422-1.2149v-.2422c0-.6406-.0782-1.1094-.2344-1.4062-.1537-.2995-.3893-.4493-.7071-.4493-.3046 0-.5234.1602-.6562.4805-.1328.3177-.1992.7787-.1992 1.3828 0 .6094.069 1.0716.207 1.3867.138.3152.3594.4727.6641.4727zm7.0078.2461h-.4883l-2.1602-5.1211h-.0312c.0312.3542.0469.6953.0469 1.0234v4.0977h-.375v-5.7109h.4961l2.1445 5.0625h.0234c-.0208-.4271-.0312-.7839-.0312-1.0704v-3.9921h.375zm2.832 0-.0469-.5938h-.0156c-.2031.448-.5104.6719-.9219.6719-.276 0-.4987-.1093-.6679-.3281-.1667-.2214-.25-.5169-.25-.8867 0-.4037.1211-.7227.3633-.9571.2421-.2369.582-.3658 1.0195-.3867l.457-.0234v-.3516c0-.3958-.0495-.6836-.1484-.8633-.099-.1822-.263-.2734-.4922-.2734-.2422 0-.4896.0794-.7422.2383l-.1602-.293c.2943-.1823.6029-.2734.9258-.2734.349 0 .6003.1107.7539.332.1537.2188.2305.586.2305 1.1016v2.8867zm-.9023-.2383c.2656 0 .4713-.1302.6172-.3906.1484-.263.2226-.6341.2226-1.1133v-.4414l-.4414.0234c-.3411.0183-.595.1133-.7617.2852-.1641.1693-.2461.418-.2461.7461 0 .3073.0547.5325.1641.6758.1093.1432.2578.2148.4453.2148zm3.1015-.0273c.1146 0 .2162-.0156.3047-.0469v.3125c-.1146.0521-.2617.0781-.4414.0781-.4375 0-.6562-.3268-.6562-.9804v-3.0079h-.3828v-.2187l.375-.1094.121-1.0078h.2579v1.0078h.6718v.3281h-.6718v2.9024c0 .2864.0312.4818.0937.5859.0625.1042.1719.1563.3281.1563zm1.3516.2656h-.3711v-4.2383h.3711zm-.4258-5.4141c0-.1171.0235-.2083.0703-.2734.0495-.0651.112-.0977.1875-.0977.0703 0 .1263.0326.168.0977s.0625.1563.0625.2734c0 .112-.0208.2019-.0625.2696-.0417.0651-.0977.0976-.168.0976-.0755 0-.138-.0325-.1875-.0976-.0468-.0677-.0703-.1576-.0703-.2696zm3.9493 3.2852c0 .7135-.113 1.2604-.34 1.6406-.224.3776-.545.5664-.965.5664-.414 0-.732-.1888-.953-.5664-.219-.3802-.328-.9271-.328-1.6406 0-1.4609.432-2.1914 1.297-2.1914.406 0 .723.1914.949.5742.227.3828.34.9219.34 1.6172zm-2.199 0c0 .612.073 1.0742.218 1.3867.146.3125.374.4688.684.4688.607 0 .91-.6185.91-1.8555 0-1.2266-.303-1.8399-.91-1.8399-.318 0-.548.1537-.691.461-.141.3073-.211.7669-.211 1.3789zm5.047 2.1289v-2.9219c0-.7031-.209-1.0547-.625-1.0547-.318 0-.551.1315-.7.3946-.145.263-.218.681-.218 1.2539v2.3281h-.371v-4.2383h.312l.031.5899h.035c.089-.2136.217-.3789.383-.4961.167-.1172.345-.1758.535-.1758.329 0 .575.1107.739.332.164.2188.246.5716.246 1.0586v2.9297zm3.148-1.0625c0 .3568-.094.6367-.281.8398-.188.2006-.459.3008-.813.3008-.192 0-.362-.0247-.508-.0742-.145-.0495-.259-.1042-.339-.1641v-.4336c.096.0964.224.1745.382.2344.159.0573.322.086.489.086.218 0 .39-.0717.515-.2149s.188-.3346.188-.5742c0-.1875-.046-.3451-.137-.4727-.088-.1302-.259-.2773-.512-.4414-.289-.1823-.487-.3281-.593-.4375-.105-.1093-.187-.2317-.246-.3671-.058-.1355-.086-.2969-.086-.4844 0-.3047.102-.556.308-.7539.206-.2006.468-.3008.785-.3008.342 0 .627.0807.856.2422l-.192.3242c-.213-.1432-.44-.2149-.679-.2149-.219 0-.393.0652-.524.1954-.13.1276-.195.2968-.195.5078 0 .1875.044.345.133.4726.088.125.276.2774.562.4571.282.1849.474.3333.578.4453.105.1094.181.2317.231.3672.052.1328.078.2864.078.4609z" fill="#000"/><path d="m57.168 110.566c-.4297 0-.7722.228-1.0274.684-.2526.453-.3789 1.082-.3789 1.887 0 .523.0586.979.1758 1.367s.2852.686.5039.894c.2188.209.4727.313.7617.313.2969 0 .5521-.053.7657-.16v.351c-.2032.118-.4701.176-.8008.176-.362 0-.6797-.117-.9532-.351-.2708-.235-.4804-.573-.6289-1.016-.1484-.445-.2226-.973-.2226-1.582 0-.912.1614-1.628.4844-2.149.3255-.52.7682-.781 1.3281-.781.3489 0 .6536.081.914.242l-.1757.336c-.2188-.14-.4675-.211-.7461-.211zm2.0429 1.196v2.765c0 .42.0495.726.1485.918.1015.193.2565.289.4648.289.3203 0 .5547-.129.7031-.386.1511-.261.2266-.68.2266-1.258v-2.328h.3672v4.238h-.3125l-.0469-.594h-.0312c-.0912.216-.2175.383-.3789.5-.1615.115-.3373.172-.5274.172-.3411 0-.5911-.121-.75-.363-.1562-.242-.2344-.638-.2344-1.188v-2.765zm3.4141 4.238h-.3711v-6.078h.3711zm1.9141-.266c.1145 0 .2161-.015.3047-.046v.312c-.1146.052-.2618.078-.4415.078-.4375 0-.6562-.327-.6562-.98v-3.008h-.3828v-.219l.375-.109.1211-1.008h.2578v1.008h.6719v.328h-.6719v2.902c0 .287.0312.482.0937.586s.1719.156.3282.156zm1.3359-3.972v2.765c0 .42.0495.726.1484.918.1016.193.2565.289.4649.289.3203 0 .5547-.129.7031-.386.151-.261.2266-.68.2266-1.258v-2.328h.3672v4.238h-.3125l-.0469-.594h-.0313c-.0911.216-.2174.383-.3789.5-.1614.115-.3372.172-.5273.172-.3412 0-.5912-.121-.75-.363-.1563-.242-.2344-.638-.2344-1.188v-2.765zm4.2188-.082c.1328 0 .2565.018.371.054l-.0898.371c-.0938-.039-.1901-.058-.2891-.058-.1432 0-.2773.074-.4023.223-.1224.145-.2188.35-.2891.613s-.1054.553-.1054.871v2.246h-.3711v-4.238h.3047l.039.742h.0274c.1979-.55.4661-.824.8047-.824zm2.6523 4.32-.0469-.594h-.0156c-.2031.448-.5104.672-.9219.672-.276 0-.4987-.109-.6679-.328-.1667-.221-.25-.517-.25-.887 0-.403.121-.722.3632-.957.2422-.237.5821-.366 1.0196-.386l.457-.024v-.351c0-.396-.0495-.684-.1484-.864-.099-.182-.2631-.273-.4922-.273-.2422 0-.4896.079-.7422.238l-.1602-.293c.2943-.182.6029-.273.9258-.273.349 0 .6003.11.7539.332.1537.218.2305.586.2305 1.101v2.887zm-.9023-.238c.2656 0 .4713-.13.6171-.391.1485-.263.2227-.634.2227-1.113v-.442l-.4414.024c-.3412.018-.5951.113-.7617.285-.1641.169-.2461.418-.2461.746 0 .307.0547.533.164.676.1094.143.2578.215.4454.215zm2.6953.238h-.3711v-6.078h.3711zm5.8047-2.863c0 .945-.142 1.672-.4258 2.179-.2813.508-.6888.762-1.2227.762-.5391 0-.9479-.255-1.2265-.766-.2787-.513-.418-1.24-.418-2.183 0-.984.138-1.718.414-2.199.2761-.482.6901-.723 1.2422-.723.5313 0 .9362.254 1.2149.762.2812.505.4219 1.228.4219 2.168zm-2.8946 0c0 .849.1055 1.491.3164 1.925.2136.433.5235.649.9297.649.4089 0 .7188-.215.9297-.645.2135-.429.3203-1.073.3203-1.929 0-.847-.1042-1.485-.3125-1.914-.2083-.433-.5169-.649-.9258-.649-.4192 0-.7343.219-.9453.656-.2083.435-.3125 1.071-.3125 1.907zm5.0742-1.457c.1328 0 .2565.018.3711.054l-.0898.371c-.0938-.039-.1901-.058-.2891-.058-.1432 0-.2773.074-.4023.223-.1224.145-.2188.35-.2891.613s-.1054.553-.1054.871v2.246h-.3711v-4.238h.3046l.0391.742h.0274c.1979-.55.4661-.824.8046-.824zm3.2305.082v.261l-.5781.067c.0781.101.1419.247.1914.437.0495.188.0742.381.0742.578 0 .412-.0937.745-.2812 1-.1849.256-.4297.383-.7344.383h-.0938l-.082-.008c-.125.089-.224.178-.2969.266-.0703.089-.1054.192-.1054.309 0 .119.0468.213.1406.281.0937.065.22.098.3789.098h.2656c.3776 0 .6706.097.8789.293.2084.195.3125.477.3125.847 0 .414-.1406.742-.4219.985-.2786.242-.6471.363-1.1054.363-.3828 0-.6771-.098-.8828-.293-.2058-.193-.3086-.471-.3086-.836 0-.266.0677-.494.2031-.684.1354-.187.3476-.336.6367-.445-.1302-.057-.2357-.137-.3164-.238-.0781-.102-.1172-.223-.1172-.364 0-.127.0417-.24.125-.339.086-.102.2071-.21.3633-.325-.2161-.099-.3802-.259-.4922-.48-.1094-.221-.164-.482-.164-.781 0-.451.095-.806.2851-1.067.1901-.26.4505-.39.7813-.39.177 0 .3255.027.4453.082zm-2.2812 5c0 .268.069.478.207.629.1406.151.3515.226.6328.226.349 0 .625-.091.8281-.273.2058-.183.3086-.433.3086-.75 0-.255-.0703-.453-.2109-.594-.138-.138-.3399-.207-.6055-.207h-.2734c-.2552 0-.4675.089-.6367.266-.1667.179-.25.414-.25.703zm.2304-3.617c0 .346.0638.609.1914.789.1276.177.2969.265.5078.265.4532 0 .6797-.364.6797-1.094 0-.351-.0586-.626-.1758-.824-.1145-.198-.2825-.297-.5039-.297-.2265 0-.3997.102-.5195.305s-.1797.488-.1797.856zm4.3711 2.855-.0469-.594h-.0156c-.2031.448-.5104.672-.9219.672-.276 0-.4987-.109-.6679-.328-.1667-.221-.25-.517-.25-.887 0-.403.1211-.722.3633-.957.2421-.237.582-.366 1.0195-.386l.457-.024v-.351c0-.396-.0495-.684-.1484-.864-.099-.182-.263-.273-.4922-.273-.2422 0-.4896.079-.7422.238l-.1601-.293c.2942-.182.6028-.273.9257-.273.349 0 .6003.11.7539.332.1537.218.2305.586.2305 1.101v2.887zm-.9023-.238c.2656 0 .4713-.13.6172-.391.1484-.263.2226-.634.2226-1.113v-.442l-.4414.024c-.3411.018-.595.113-.7617.285-.1641.169-.2461.418-.2461.746 0 .307.0547.533.1641.676.1093.143.2578.215.4453.215zm4.2383.238v-2.922c0-.703-.2084-1.055-.625-1.055-.3178 0-.5508.132-.6993.395-.1458.263-.2187.681-.2187 1.254v2.328h-.3711v-4.238h.3125l.0312.59h.0352c.0885-.214.2161-.379.3828-.497.1667-.117.3451-.175.5352-.175.3281 0 .5742.11.7382.332.1641.218.2461.571.2461 1.058v2.93zm1.8554 0h-.3711v-4.238h.3711zm-.4258-5.414c0-.117.0235-.208.0704-.274.0494-.065.1119-.097.1875-.097.0703 0 .1263.032.1679.097.0417.066.0625.157.0625.274 0 .112-.0208.202-.0625.269-.0416.066-.0976.098-.1679.098-.0756 0-.1381-.032-.1875-.098-.0469-.067-.0704-.157-.0704-.269zm2.9258 5.414h-1.6992v-.297l1.25-3.613h-1.168v-.328h1.5586v.3l-1.2461 3.61h1.3047zm2.3946 0-.0469-.594h-.0156c-.2032.448-.5105.672-.9219.672-.2761 0-.4987-.109-.668-.328-.1667-.221-.25-.517-.25-.887 0-.403.1211-.722.3633-.957.2422-.237.582-.366 1.0195-.386l.4571-.024v-.351c0-.396-.0495-.684-.1485-.864-.0989-.182-.263-.273-.4922-.273-.2422 0-.4896.079-.7422.238l-.1601-.293c.2943-.182.6029-.273.9258-.273.3489 0 .6002.11.7539.332.1536.218.2304.586.2304 1.101v2.887zm-.9024-.238c.2656 0 .4714-.13.6172-.391.1484-.263.2227-.634.2227-1.113v-.442l-.4415.024c-.3411.018-.595.113-.7617.285-.164.169-.2461.418-.2461.746 0 .307.0547.533.1641.676s.2578.215.4453.215zm3.1012-.028c.115 0 .217-.015.305-.046v.312c-.115.052-.262.078-.441.078-.4378 0-.6566-.327-.6566-.98v-3.008h-.3828v-.219l.375-.109.1211-1.008h.2578v1.008h.6715v.328h-.6715v2.902c0 .287.0313.482.0935.586.063.104.172.156.328.156zm1.352.266h-.371v-4.238h.371zm-.426-5.414c0-.117.024-.208.07-.274.05-.065.112-.097.188-.097.07 0 .126.032.168.097.042.066.062.157.062.274 0 .112-.02.202-.062.269-.042.066-.098.098-.168.098-.076 0-.138-.032-.188-.098-.046-.067-.07-.157-.07-.269zm3.949 3.285c0 .714-.113 1.261-.339 1.641-.224.377-.546.566-.965.566-.414 0-.732-.189-.953-.566-.219-.38-.329-.927-.329-1.641 0-1.461.433-2.191 1.297-2.191.407 0 .723.191.95.574.226.383.339.922.339 1.617zm-2.199 0c0 .612.073 1.074.219 1.387.146.312.374.469.684.469.606 0 .91-.619.91-1.856 0-1.226-.304-1.84-.91-1.84-.318 0-.549.154-.692.461-.141.307-.211.767-.211 1.379zm5.047 2.129v-2.922c0-.703-.208-1.055-.625-1.055-.318 0-.551.132-.699.395-.146.263-.219.681-.219 1.254v2.328h-.371v-4.238h.312l.032.59h.035c.088-.214.216-.379.383-.497.166-.117.345-.175.535-.175.328 0 .574.11.738.332.164.218.246.571.246 1.058v2.93z" fill="#000"/><path d="m44.2891 107h-2.0703v-5.711h2.0703v.367h-1.6875v2.168h1.5937v.367h-1.5937v2.442h1.6875zm1.9843.078c-.8229 0-1.2343-.73-1.2343-2.191 0-.719.1028-1.266.3086-1.641.2057-.378.5091-.566.9101-.566.1901 0 .3698.054.5391.164.1719.109.3086.26.4101.453h.0313l-.0156-.473v-1.902h.3711v6.078h-.3047l-.0313-.594h-.0351c-.1016.216-.2331.383-.3946.5-.1614.115-.3463.172-.5547.172zm.0235-.324c.2969 0 .5247-.137.6836-.41.1614-.276.2422-.681.2422-1.215v-.242c0-.641-.0782-1.11-.2344-1.407-.1537-.299-.3893-.449-.7071-.449-.3046 0-.5234.16-.6562.481-.1328.317-.1992.778-.1992 1.383 0 .609.069 1.071.207 1.386s.3594.473.6641.473zm2.789-3.992v2.765c0 .42.0495.726.1485.918.1015.193.2565.289.4648.289.3203 0 .5547-.129.7031-.386.1511-.261.2266-.68.2266-1.258v-2.328h.3672v4.238h-.3125l-.0469-.594h-.0312c-.0912.216-.2175.383-.3789.5-.1615.115-.3373.172-.5274.172-.3411 0-.5911-.121-.75-.363-.1562-.242-.2344-.638-.2344-1.188v-2.765zm4.1329 4.316c-.4245 0-.7448-.183-.961-.551-.2135-.369-.3203-.911-.3203-1.625 0-.724.1081-1.274.3242-1.652.2188-.38.5404-.57.9649-.57.263 0 .4817.048.6562.144l-.1445.328c-.1745-.08-.3347-.121-.4805-.121-.6224 0-.9336.621-.9336 1.864 0 1.231.3112 1.847.9336 1.847.1849 0 .3854-.041.6016-.125v.313c-.086.047-.1914.083-.3164.109s-.2331.039-.3242.039zm3.0351-.078-.0469-.594h-.0156c-.2031.448-.5104.672-.9219.672-.276 0-.4987-.109-.6679-.328-.1667-.221-.25-.517-.25-.887 0-.403.1211-.722.3632-.957.2422-.237.5821-.366 1.0196-.386l.457-.024v-.351c0-.396-.0495-.684-.1484-.864-.099-.182-.2631-.273-.4922-.273-.2422 0-.4896.079-.7422.238l-.1602-.293c.2943-.182.6029-.273.9258-.273.349 0 .6003.11.7539.332.1537.218.2305.586.2305 1.101v2.887zm-.9023-.238c.2656 0 .4713-.13.6172-.391.1484-.263.2226-.634.2226-1.113v-.442l-.4414.024c-.3411.018-.5951.113-.7617.285-.1641.169-.2461.418-.2461.746 0 .307.0547.533.164.676.1094.143.2579.215.4454.215zm3.1015-.028c.1146 0 .2162-.015.3047-.046v.312c-.1146.052-.2617.078-.4414.078-.4375 0-.6562-.327-.6562-.98v-3.008h-.3829v-.219l.375-.109.1211-1.008h.2578v1.008h.6719v.328h-.6719v2.902c0 .287.0313.482.0938.586s.1719.156.3281.156zm1.3516.266h-.3711v-4.238h.3711zm-.4258-5.414c0-.117.0234-.208.0703-.274.0495-.065.112-.097.1875-.097.0703 0 .1263.032.168.097.0417.066.0625.157.0625.274 0 .112-.0208.202-.0625.269-.0417.066-.0977.098-.168.098-.0755 0-.138-.032-.1875-.098-.0469-.067-.0703-.157-.0703-.269zm3.9492 3.285c0 .714-.1133 1.261-.3398 1.641-.224.377-.5456.566-.9649.566-.414 0-.7317-.189-.9531-.566-.2187-.38-.3281-.927-.3281-1.641 0-1.461.4323-2.191 1.2969-2.191.4062 0 .7226.191.9492.574.2265.383.3398.922.3398 1.617zm-2.1992 0c0 .612.0729 1.074.2188 1.387.1458.312.3737.469.6835.469.6068 0 .9102-.619.9102-1.856 0-1.226-.3034-1.84-.9102-1.84-.3177 0-.5481.154-.6914.461-.1406.307-.2109.767-.2109 1.379zm5.0469 2.129v-2.922c0-.703-.2084-1.055-.625-1.055-.3177 0-.5508.132-.6992.395-.1459.263-.2188.681-.2188 1.254v2.328h-.3711v-4.238h.3125l.0313.59h.0351c.0886-.214.2162-.379.3828-.497.1667-.117.3451-.175.5352-.175.3281 0 .5742.11.7383.332.164.218.2461.571.2461 1.058v2.93zm3.125 0-.0469-.594h-.0156c-.2031.448-.5104.672-.9219.672-.276 0-.4987-.109-.668-.328-.1666-.221-.25-.517-.25-.887 0-.403.1211-.722.3633-.957.2422-.237.5821-.366 1.0195-.386l.4571-.024v-.351c0-.396-.0495-.684-.1485-.864-.0989-.182-.263-.273-.4921-.273-.2422 0-.4896.079-.7422.238l-.1602-.293c.2943-.182.6029-.273.9258-.273.349 0 .6003.11.7539.332.1536.218.2305.586.2305 1.101v2.887zm-.9024-.238c.2657 0 .4714-.13.6172-.391.1485-.263.2227-.634.2227-1.113v-.442l-.4414.024c-.3412.018-.5951.113-.7617.285-.1641.169-.2461.418-.2461.746 0 .307.0547.533.164.676.1094.143.2578.215.4453.215zm2.6954.238h-.3711v-6.078h.3711zm1.7695-.711c-.1719.586-.388 1.167-.6485 1.742h-.246c.1953-.664.3255-1.274.3906-1.832h.4492zm4.7734-.785c0 .469-.1302.849-.3906 1.141-.2604.289-.5912.433-.9922.433-.4557 0-.8216-.066-1.0977-.199v-.414c.1355.075.3034.135.504.18.2005.044.3984.066.5937.066.2917 0 .5313-.111.7188-.332s.2812-.503.2812-.844c0-.315-.0664-.565-.1992-.75s-.3867-.37-.7617-.555c-.2943-.148-.5144-.291-.6602-.429-.1458-.141-.2539-.304-.3242-.489-.0703-.184-.1055-.406-.1055-.664 0-.281.0573-.531.1719-.75.1146-.218.2747-.388.4805-.507.2057-.123.431-.184.6757-.184.2214 0 .4219.025.6016.074.1823.05.3255.103.4297.16l-.1484.368c-.2891-.149-.5834-.223-.8829-.223-.2812 0-.5104.096-.6874.289-.1745.19-.2618.443-.2618.758 0 .32.0638.569.1914.746s.3776.361.75.551c.3855.187.6667.407.8438.66.1797.25.2695.555.2695.914zm2.0039 1.574c-.4245 0-.7448-.183-.9609-.551-.2136-.369-.3203-.911-.3203-1.625 0-.724.108-1.274.3242-1.652.2187-.38.5404-.57.9648-.57.2631 0 .4818.048.6563.144l-.1445.328c-.1745-.08-.3347-.121-.4805-.121-.6224 0-.9336.621-.9336 1.864 0 1.231.3112 1.847.9336 1.847.1849 0 .3854-.041.6015-.125v.313c-.0859.047-.1914.083-.3164.109s-.233.039-.3242.039zm1.7656-.078h-.371v-4.238h.371zm-.4257-5.414c0-.117.0234-.208.0703-.274.0495-.065.112-.097.1875-.097.0703 0 .1263.032.1679.097.0417.066.0626.157.0626.274 0 .112-.0209.202-.0626.269-.0416.066-.0976.098-.1679.098-.0755 0-.138-.032-.1875-.098-.0469-.067-.0703-.157-.0703-.269zm2.7656 5.492c-.4479 0-.793-.19-1.0352-.57-.2395-.383-.3593-.916-.3593-1.598 0-.724.1067-1.276.3203-1.656.2161-.383.526-.574.9297-.574.3515 0 .6289.168.832.504.2031.333.3047.783.3047 1.351v.344h-2.0078c.0052.617.0924 1.079.2617 1.387.1693.307.4258.461.7695.461.2656 0 .5456-.088.8399-.262v.359c-.2709.169-.556.254-.8555.254zm-.168-4.062c-.5104 0-.7903.509-.8398 1.527h1.6289c0-.466-.0716-.837-.2149-1.113-.1406-.276-.332-.414-.5742-.414zm4.0196 3.984v-2.922c0-.703-.2084-1.055-.625-1.055-.3178 0-.5508.132-.6993.395-.1458.263-.2187.681-.2187 1.254v2.328h-.3711v-4.238h.3125l.0312.59h.0352c.0885-.214.2161-.379.3828-.497.1667-.117.3451-.175.5352-.175.3281 0 .5742.11.7383.332.164.218.246.571.246 1.058v2.93zm2.2617-.266c.1146 0 .2161-.015.3047-.046v.312c-.1146.052-.2618.078-.4414.078-.4375 0-.6563-.327-.6563-.98v-3.008h-.3828v-.219l.375-.109.1211-1.008h.2578v1.008h.6719v.328h-.6719v2.902c0 .287.0313.482.0937.586.0626.104.1719.156.3282.156zm1.3515.266h-.3711v-4.238h.3711zm-.4257-5.414c0-.117.0234-.208.0703-.274.0494-.065.1119-.097.1875-.097.0703 0 .1263.032.1679.097.0417.066.0625.157.0625.274 0 .112-.0208.202-.0625.269-.0416.066-.0976.098-.1679.098-.0756 0-.1381-.032-.1875-.098-.0469-.067-.0703-.157-.0703-.269zm2.6445 1.504h-.6641v3.91h-.3672v-3.91h-.539v-.211l.539-.16v-.321c0-.539.0638-.927.1914-1.164s.349-.355.6641-.355c.1823 0 .3477.032.4961.098l-.1289.343c-.138-.065-.263-.097-.375-.097-.1276 0-.224.037-.2891.113-.0651.075-.1132.198-.1445.367s-.0469.404-.0469.703v.356h.6641zm1.0586 3.91h-.3711v-4.238h.3711zm-.4258-5.414c0-.117.0234-.208.0703-.274.0495-.065.112-.097.1875-.097.0703 0 .1263.032.168.097.0416.066.0625.157.0625.274 0 .112-.0209.202-.0625.269-.0417.066-.0977.098-.168.098-.0755 0-.138-.032-.1875-.098-.0469-.067-.0703-.157-.0703-.269zm2.6484 5.492c-.4244 0-.7448-.183-.9609-.551-.2135-.369-.3203-.911-.3203-1.625 0-.724.1081-1.274.3242-1.652.2188-.38.5404-.57.9649-.57.263 0 .4817.048.6562.144l-.1445.328c-.1745-.08-.3347-.121-.4805-.121-.6224 0-.9336.621-.9336 1.864 0 1.231.3112 1.847.9336 1.847.1849 0 .3854-.041.6016-.125v.313c-.086.047-.1914.083-.3164.109s-.2331.039-.3243.039zm4.5431-.078-.047-.594h-.016c-.203.448-.51.672-.921.672-.2765 0-.4992-.109-.6684-.328-.1667-.221-.25-.517-.25-.887 0-.403.1211-.722.3632-.957.2422-.237.5822-.366 1.0192-.386l.457-.024v-.351c0-.396-.049-.684-.148-.864-.099-.182-.263-.273-.492-.273-.242 0-.49.079-.7424.238l-.1602-.293c.2943-.182.6026-.273.9256-.273.349 0 .6.11.754.332.154.218.231.586.231 1.101v2.887zm-.902-.238c.265 0 .471-.13.617-.391.148-.263.222-.634.222-1.113v-.442l-.441.024c-.341.018-.595.113-.7617.285-.1641.169-.2461.418-.2461.746 0 .307.0547.533.164.676.1098.143.2578.215.4458.215zm4.238.238v-2.922c0-.703-.208-1.055-.625-1.055-.318 0-.551.132-.699.395-.146.263-.219.681-.219 1.254v2.328h-.371v-4.238h.312l.032.59h.035c.088-.214.216-.379.383-.497.166-.117.345-.175.535-.175.328 0 .574.11.738.332.164.218.246.571.246 1.058v2.93zm2.519.078c-.823 0-1.234-.73-1.234-2.191 0-.719.103-1.266.309-1.641.205-.378.509-.566.91-.566.19 0 .37.054.539.164.172.109.308.26.41.453h.031l-.015-.473v-1.902h.371v6.078h-.305l-.031-.594h-.035c-.102.216-.233.383-.395.5-.161.115-.346.172-.555.172zm.024-.324c.297 0 .525-.137.683-.41.162-.276.243-.681.243-1.215v-.242c0-.641-.079-1.11-.235-1.407-.153-.299-.389-.449-.707-.449-.305 0-.523.16-.656.481-.133.317-.199.778-.199 1.383 0 .609.069 1.071.207 1.386s.359.473.664.473z" fill="#000"/><path d="m115.5 5.5v119" stroke="#000" stroke-dasharray="1 1" stroke-linejoin="round"/></svg>