<svg height="80pt" viewBox="0 0 80 80" width="80pt" xmlns="http://www.w3.org/2000/svg"><path d="m25.726562 34.917969v7.226562c0 2.417969-.867187 3.628907-2.59375 3.628907-.863281 0-1.523437-.3125-1.976562-.9375-.457031-.625-.683594-1.523438-.683594-2.691407v-7.226562h.726563v7.316406c0 .925781.164062 1.636719.496093 2.125.339844.480469.816407.722656 1.4375.722656.613282 0 1.082032-.242187 1.398438-.722656.316406-.488281.476562-1.207031.476562-2.15625v-7.285156zm7.894532 10.707031h-.917969l-4.046875-9.601562h-.058594c.058594.664062.085938 1.304687.085938 1.917968v7.683594h-.703125v-10.707031h.929687l4.023438 9.492187h.042968c-.039062-.800781-.058593-1.472656-.058593-2.007812v-7.484375h.703125zm6.226562 0h-3.882812v-10.707031h3.882812v.6875h-3.164062v4.066406h2.988281v.6875h-2.988281v4.578125h3.164062zm5.996094-2.804688c0 .878907-.242188 1.589844-.730469 2.136719-.488281.542969-1.109375.816407-1.863281.816407-.851562 0-1.539062-.125-2.054688-.375v-.777344c.253907.140625.566407.253906.945313.335937.375.085938.746094.125 1.109375.125.546875 0 1-.207031 1.351562-.621093.351563-.414063.523438-.941407.523438-1.582032 0-.589844-.121094-1.058594-.371094-1.40625s-.726562-.695312-1.429687-1.039062c-.550781-.28125-.964844-.546875-1.238281-.808594-.273438-.261719-.476563-.566406-.605469-.914062-.132813-.347657-.199219-.761719-.199219-1.246094 0-.527344.109375-.996094.324219-1.40625.214843-.410156.511719-.726563.898437-.949219.386719-.230469.808594-.347656 1.269532-.347656.414062 0 .789062.046875 1.125.140625.34375.09375.613281.191406.808593.300781l-.28125.6875c-.539062-.277344-1.09375-.417969-1.652343-.417969-.527344 0-.957032.183594-1.289063.542969-.328125.355469-.492187.828125-.492187 1.421875 0 .601562.121093 1.066406.359374 1.398438.238282.332031.707032.675781 1.40625 1.03125.722657.351562 1.25.765624 1.582032 1.238281.335937.46875.503906 1.039062.503906 1.714843zm4.851562-7.382812c-.808593 0-1.449218.425781-1.929687 1.28125-.472656.851562-.710937 2.027344-.710937 3.539062 0 .980469.113281 1.835938.332031 2.5625.21875.726563.535156 1.285157.945312 1.675782.410157.390625.886719.585937 1.425781.585937.558594 0 1.035157-.097656 1.4375-.300781v.660156c-.382812.21875-.882812.332032-1.5.332032-.679687 0-1.277343-.222657-1.789062-.660157-.507812-.441406-.902344-1.074219-1.179688-1.90625-.277343-.832031-.417968-1.824219-.417968-2.964843 0-1.710938.304687-3.050782.910156-4.027344.609375-.976563 1.4375-1.464844 2.488281-1.464844.65625 0 1.226563.148438 1.714844.453125l-.328125.628906c-.410156-.261719-.878906-.394531-1.398438-.394531zm9.085938 4.820312c0 1.769532-.265625 3.132813-.796875 4.085938-.527344.953125-1.292969 1.429688-2.292969 1.429688-1.011718 0-1.777344-.480469-2.300781-1.4375-.519531-.960938-.78125-2.328126-.78125-4.09375 0-1.847657.257813-3.21875.773437-4.125.519532-.902344 1.296876-1.355469 2.332032-1.355469.996094 0 1.753906.476562 2.277344 1.429687.527343.949219.789062 2.300782.789062 4.066406zm-5.425781 0c0 1.589844.199219 2.792969.59375 3.609376.398437.8125.980469 1.214843 1.742187 1.214843.765625 0 1.347656-.402343 1.742188-1.207031.402344-.804688.601562-2.011719.601562-3.617188 0-1.589843-.195312-2.785156-.585937-3.589843-.390625-.8125-.96875-1.214844-1.734375-1.214844-.785156 0-1.378906.410156-1.773438 1.230469-.390625.8125-.585937 2.003906-.585937 3.574218zm0 0"/><g fill="none" transform="scale(.625)"><path d="m29 76h70" stroke="#000" stroke-width="2"/><path d="m29 53h70" stroke="#000" stroke-width="2"/><path d="m24 80h80" stroke="#000" stroke-width="2"/><path d="m19 84h90" stroke="#000" stroke-width="2"/><path d="m29 49 35.5-12 33.5 12" stroke="#000" stroke-width="2"/><path d="m37 50 27.75-9 27.25 9" stroke="#000" stroke-width="2"/></g><path d="m46.117188 57.679688v2.410156c0 .804687-.289063 1.207031-.863282 1.207031-.289062 0-.507812-.101563-.660156-.3125-.148438-.207031-.226562-.503906-.226562-.894531v-2.410156h.242187v2.441406c0 .308594.054687.542968.164063.707031.113281.160156.273437.242187.480468.242187.207032 0 .359375-.082031.464844-.242187.105469-.164063.160156-.402344.160156-.71875v-2.429687zm1.914062 3.570312v-1.828125c0-.4375-.132812-.65625-.390625-.65625-.199219 0-.34375.082031-.4375.246094-.09375.164062-.136719.425781-.136719.785156v1.453125h-.234375v-2.648438h.195313l.019531.367188h.023437c.054688-.132812.136719-.234375.238282-.308594.105468-.074218.214844-.109375.335937-.109375.203125 0 .359375.066407.460938.207031.101562.136719.152343.355469.152343.660157v1.832031zm1.15625 0h-.230469v-2.648438h.230469zm-.265625-3.382812c0-.074219.015625-.132813.046875-.171876.03125-.039062.070312-.0625.117188-.0625.042968 0 .078124.023438.101562.0625.027344.039063.039062.097657.039062.171876 0 .070312-.011718.125-.039062.167968-.023438.039063-.058594.058594-.101562.058594-.046876 0-.085938-.019531-.117188-.058594-.03125-.042968-.046875-.097656-.046875-.167968zm1.464844 3.21875c.070312 0 .132812-.011719.191406-.03125v.195312c-.074219.03125-.164063.046875-.277344.046875-.273437 0-.410156-.203125-.410156-.609375v-1.882812h-.238281v-.136719l.234375-.066407.074219-.628906h.160156v.628906h.421875v.203126h-.421875v1.816406c0 .179687.019531.300781.058594.363281.039062.066406.109374.101563.207031.101563zm1.363281.210937c-.28125 0-.496094-.117187-.648438-.355469-.148437-.238281-.222656-.570312-.222656-.996094 0-.453124.066406-.800781.199219-1.035156.136719-.242187.328125-.359375.582031-.359375.21875 0 .394532.105469.519532.3125.128906.210938.191406.492188.191406.847657v.214843h-1.253906c0 .382813.054687.671875.164062.863281.105469.195313.265625.289063.480469.289063.164062 0 .339843-.054687.523437-.164063v.226563c-.167968.105469-.347656.15625-.535156.15625zm-.105469-2.539063c-.316406 0-.492187.320313-.523437.957032h1.019531c0-.292969-.046875-.523438-.136719-.695313-.085937-.171875-.207031-.261719-.359375-.261719zm1.964844 2.539063c-.515625 0-.773437-.453125-.773437-1.367187 0-.449219.066406-.792969.195312-1.027344s.316406-.351563.566406-.351563c.121094 0 .230469.035157.339844.101563.105469.066406.191406.164062.253906.285156h.019532l-.007813-.296875v-1.1875h.230469v3.796875h-.191406l-.019532-.371094h-.019531c-.066406.136719-.148437.238282-.25.3125-.097656.070313-.214844.105469-.34375.105469zm.015625-.199219c.183594 0 .324219-.085937.425781-.257812.101563-.171875.152344-.425782.152344-.757813v-.152343c0-.402344-.050781-.695313-.148437-.878907-.09375-.1875-.242188-.28125-.441407-.28125-.191406 0-.328125.101563-.410156.300781-.082031.199219-.125.484376-.125.863282 0 .382812.042969.671875.128906.867187.085938.195313.226563.296875.417969.296875zm4.378906.152344h-.304687l-1.351563-3.199219h-.019531c.019531.21875.03125.433594.03125.636719v2.5625h-.234375v-3.570312h.308594l1.339844 3.164062h.015624c-.015624-.265625-.019531-.488281-.019531-.667969v-2.496093h.234375zm1.769532 0-.03125-.371094h-.007813c-.128906.28125-.320313.417969-.578125.417969-.171875 0-.308594-.066406-.414062-.203125-.105469-.136719-.15625-.324219-.15625-.554688 0-.25.074218-.453124.226562-.597656.148438-.148437.363281-.230468.636719-.242187l.285156-.015625v-.21875c0-.246094-.03125-.425782-.09375-.539063s-.164063-.171875-.308594-.171875c-.148437 0-.304687.050782-.460937.148438l-.101563-.183594c.183594-.113281.375-.167969.578125-.167969.21875 0 .375.066407.472656.207031.09375.136719.144532.367188.144532.6875v1.804688zm-.5625-.148438c.164062 0 .292968-.082031.382812-.246093.09375-.164063.140625-.394531.140625-.695313v-.273437l-.277344.011719c-.210937.011718-.371093.070312-.476562.179687-.101563.105469-.152344.261719-.152344.464844 0 .195312.035156.335937.101563.425781.070312.085938.164062.132812.28125.132812zm1.9375-.015624c.070312 0 .132812-.011719.1875-.03125v.195312c-.070313.03125-.160157.046875-.273438.046875-.273438 0-.410156-.203125-.410156-.609375v-1.882812h-.238282v-.136719l.234376-.066407.074218-.628906h.160156v.628906h.421876v.203126h-.421876v1.816406c0 .179687.019532.300781.058594.363281.039063.066406.109375.101563.207032.101563zm.84375.164062h-.230469v-2.648438h.230469zm-.265626-3.382812c0-.074219.015626-.132813.042969-.171876.03125-.039062.070313-.0625.117188-.0625.042969 0 .078125.023438.105469.0625.027343.039063.039062.097657.039062.171876 0 .070312-.011719.125-.039062.167968-.027344.039063-.0625.058594-.105469.058594-.046875 0-.085938-.019531-.117188-.058594-.027343-.042968-.042969-.097656-.042969-.167968zm2.46875 2.050781c0 .449219-.070312.789062-.214843 1.027343-.136719.234376-.339844.351563-.601563.351563-.257812 0-.457031-.117187-.597656-.351563-.136719-.238281-.203125-.578124-.203125-1.027343 0-.910157.269531-1.367188.8125-1.367188.25 0 .449219.117188.589844.359375.144531.238282.214843.574219.214843 1.007813zm-1.375 0c0 .382812.046876.671875.136719.867187.089844.195313.234375.292969.425781.292969.378907 0 .570313-.386719.570313-1.160156 0-.765625-.191406-1.148438-.570313-1.148438-.199218 0-.339843.097657-.429687.289063s-.132813.476562-.132813.859375zm3.152344 1.332031v-1.828125c0-.4375-.128906-.65625-.390625-.65625-.195312 0-.34375.082031-.4375.246094-.089843.164062-.132812.425781-.132812.785156v1.453125h-.234375v-2.648438h.195312l.019532.367188h.023437c.054687-.132812.132813-.234375.238281-.308594.105469-.074218.214844-.109375.335938-.109375.203125 0 .359375.066407.460937.207031.101563.136719.152344.355469.152344.660157v1.832031zm1.96875-.664062c0 .222656-.058594.398437-.175781.523437s-.285156.1875-.507813.1875c-.121093 0-.226562-.011719-.316406-.042969s-.164062-.066406-.210937-.105468v-.269532c.058593.058594.136719.109375.238281.144532.097656.039062.199219.054687.304688.054687.136718 0 .242187-.042969.320312-.132813.078125-.089843.117188-.210937.117188-.359374 0-.117188-.027344-.214844-.085938-.296876-.054688-.078124-.160156-.171874-.316406-.273437-.183594-.113281-.304688-.207031-.371094-.273437-.066406-.070313-.117188-.144532-.15625-.230469-.035156-.085938-.050781-.183594-.050781-.300781 0-.191407.0625-.347657.191406-.472657s.292969-.1875.488281-.1875c.214844 0 .394532.050781.535156.152344l-.117187.199219c-.132813-.089844-.277344-.132813-.425781-.132813-.136719 0-.246094.039063-.328125.121094s-.121094.1875-.121094.320313c0 .117187.027344.214843.082031.292968.054688.078125.171875.175782.351563.285156.175781.117188.296875.210938.363281.28125.0625.066407.113281.144532.144531.226563.03125.085937.046875.179687.046875.289063zm0 0"/><path d="m35.730469 69.105469c-.269531 0-.484375.140625-.644531.425781-.15625.28125-.234376.675781-.234376 1.179688 0 .328124.035157.613281.109376.855468.074218.242188.179687.425782.316406.558594.136718.128906.292968.195312.472656.195312.1875 0 .347656-.035156.480469-.101562v.21875c-.128907.074219-.292969.109375-.5.109375-.226563 0-.425781-.070313-.597657-.21875-.167968-.144531-.296874-.355469-.390624-.632813-.09375-.277343-.140626-.609374-.140626-.988281 0-.570312.101563-1.019531.304688-1.34375s.480469-.488281.828125-.488281c.21875 0 .410156.050781.570313.152344l-.109376.207031c-.136718-.085937-.292968-.128906-.464843-.128906zm1.277343.746093v1.726563c0 .265625.03125.453125.09375.574219s.160157.179687.289063.179687c.199219 0 .347656-.078125.4375-.238281.097656-.164062.144531-.425781.144531-.789062v-1.453126h.226563v2.648438h-.195313l-.027344-.371094h-.019531c-.058593.136719-.136719.238282-.238281.3125-.101562.070313-.210938.105469-.328125.105469-.214844 0-.371094-.074219-.46875-.226563-.097656-.148437-.148437-.398437-.148437-.742187v-1.726563zm2.132813 2.648438h-.230469v-3.796875h.230469zm1.195313-.167969c.074218 0 .136718-.007812.191406-.027343v.195312c-.070313.03125-.164063.046875-.277344.046875-.273438 0-.410156-.203125-.410156-.609375v-1.882812h-.238282v-.136719l.234376-.066407.078124-.628906h.160157v.628906h.417969v.203126h-.417969v1.816406c0 .179687.019531.300781.058593.363281.039063.066406.105469.097656.203126.097656zm.835937-2.480469v1.726563c0 .265625.03125.453125.09375.574219s.160156.179687.289063.179687c.199218 0 .347656-.078125.441406-.238281.09375-.164062.140625-.425781.140625-.789062v-1.453126h.230469v2.648438h-.195313l-.03125-.371094h-.019531c-.054688.136719-.136719.238282-.238282.3125-.097656.070313-.207031.105469-.328124.105469-.210938 0-.367188-.074219-.46875-.226563-.097657-.148437-.144532-.398437-.144532-.742187v-1.726563zm2.636719-.050781c.082031 0 .160156.011719.230468.03125l-.054687.234375c-.058594-.023437-.117187-.035156-.179687-.035156-.089844 0-.175782.042969-.253907.136719-.074219.089843-.136719.21875-.179687.382812-.042969.164063-.066406.347657-.066406.546875v1.402344h-.230469v-2.648438h.191406l.023437.464844h.015626c.125-.34375.292968-.515625.503906-.515625zm1.65625 2.699219-.027344-.371094h-.011719c-.125.28125-.316406.417969-.574219.417969-.171874 0-.3125-.066406-.417968-.203125-.105469-.136719-.15625-.324219-.15625-.554688 0-.25.074218-.449218.226562-.597656.152344-.148437.363282-.230468.636719-.242187l.285156-.015625v-.21875c0-.246094-.03125-.425782-.089843-.539063-.0625-.113281-.164063-.171875-.308594-.171875-.152344 0-.304688.050782-.464844.148438l-.101562-.183594c.1875-.113281.378906-.167969.582031-.167969.214843 0 .375.066407.46875.207031.097656.136719.144531.367188.144531.6875v1.804688zm-.5625-.148438c.167968 0 .292968-.082031.386718-.246093.09375-.164063.136719-.394531.136719-.695313v-.273437l-.273437.011719c-.214844.011718-.371094.070312-.476563.179687-.101562.105469-.152343.261719-.152343.464844 0 .191406.03125.335937.101562.425781.066406.085938.160156.132812.277344.132812zm1.683594.148438h-.230469v-3.796875h.230469zm3.628906-1.789062c0 .589843-.089844 1.042968-.265625 1.363281-.175781.316406-.429688.472656-.765625.472656-.335938 0-.589844-.15625-.765625-.476563-.175781-.320312-.261719-.773437-.261719-1.363281 0-.617187.085938-1.074219.257812-1.375.175782-.300781.433594-.453125.777344-.453125.332032 0 .585938.160156.761719.476563.171875.316406.261719.769531.261719 1.355469zm-1.808594 0c0 .53125.066406.929687.195312 1.203124.136719.269532.328126.40625.582032.40625.257812 0 .449218-.136718.582031-.402343.132813-.269531.199219-.671875.199219-1.207031 0-.53125-.0625-.929688-.195313-1.195313-.128906-.273437-.320312-.40625-.578125-.40625-.261718 0-.457031.136719-.589844.410156-.128906.269531-.195312.667969-.195312 1.191407zm3.171875-.910157c.082031 0 .160156.011719.230469.03125l-.054688.234375c-.058594-.023437-.121094-.035156-.183594-.035156-.085937 0-.171874.042969-.25.136719-.074218.089843-.136718.21875-.179687.382812-.042969.164063-.066406.347657-.066406.546875v1.402344h-.230469v-2.648438h.1875l.027344.464844h.015625c.125-.34375.292969-.515625.503906-.515625zm2.019531.050781v.164063l-.363281.039063c.050781.066406.089844.15625.121094.273437s.046875.238281.046875.363281c0 .257813-.058594.464844-.175782.625-.117187.160156-.269531.238282-.460937.238282h-.058594l-.050781-.003907c-.078125.054688-.140625.109375-.1875.164063-.042969.058594-.0625.121094-.0625.195312 0 .074219.027344.132813.085938.175782.058593.039062.136718.058593.238281.058593h.164062c.238281 0 .421875.0625.550781.183594.128907.125.195313.300781.195313.53125 0 .257813-.089844.464844-.265625.613281-.171875.152344-.402344.230469-.6875.230469-.242188 0-.425781-.0625-.554688-.183594-.128906-.121093-.191406-.296875-.191406-.523437 0-.167969.042969-.308594.125-.429688.085938-.113281.21875-.207031.398438-.277344-.082032-.035156-.144532-.085937-.195313-.148437s-.074219-.140625-.074219-.226563c0-.078124.027344-.148437.078126-.210937.054687-.066406.128906-.132813.226562-.203125-.136719-.0625-.238281-.164062-.308594-.300781-.066406-.136719-.101562-.300781-.101562-.488281 0-.28125.058594-.503907.179687-.667969.117188-.160157.28125-.242188.488281-.242188.109376 0 .203126.015625.277344.050781zm-1.425781 3.125c0 .167969.042969.296876.128906.394532.085938.09375.21875.140625.394531.140625.21875 0 .390626-.058594.515626-.171875.128906-.113282.195312-.269532.195312-.46875 0-.160156-.042969-.28125-.132812-.371094-.085938-.085938-.210938-.128906-.378907-.128906h-.167969c-.160156 0-.292968.054687-.398437.164062-.105469.113282-.15625.261719-.15625.441406zm.140625-2.261718c0 .21875.042969.382812.121094.492187.082031.113281.1875.167969.316406.167969.285156 0 .425781-.226562.425781-.683594 0-.21875-.035156-.390625-.109375-.515625-.070312-.125-.175781-.1875-.316406-.1875s-.25.066407-.324219.191407c-.074219.128906-.113281.304687-.113281.535156zm2.734375 1.785156-.03125-.371094h-.007813c-.128906.28125-.320312.417969-.578124.417969-.171876 0-.308594-.066406-.414063-.203125s-.15625-.324219-.15625-.554688c0-.25.074219-.449218.226563-.597656.148437-.148437.363281-.230468.636718-.242187l.285156-.015625v-.21875c0-.246094-.03125-.425782-.09375-.539063s-.164062-.171875-.308593-.171875c-.148438 0-.304688.050782-.460938.148438l-.101562-.183594c.183593-.113281.375-.167969.578125-.167969.21875 0 .375.066407.472656.207031.09375.136719.144531.367188.144531.6875v1.804688zm-.5625-.148438c.164063 0 .292969-.082031.382813-.246093.09375-.164063.140624-.394531.140624-.695313v-.273437l-.277343.011719c-.210938.011718-.371094.070312-.476563.179687-.101562.105469-.152344.261719-.152344.464844 0 .191406.035157.335937.101563.425781.070313.085938.164063.132812.28125.132812zm2.648437.148438v-1.828125c0-.4375-.132812-.65625-.390624-.65625-.199219 0-.34375.082031-.4375.246094-.09375.164062-.136719.425781-.136719.785156v1.453125h-.234375v-2.648438h.195312l.019532.367188h.023437c.054687-.132812.136719-.234375.238281-.308594.105469-.074218.214844-.109375.335938-.109375.203125 0 .359375.066407.460937.207031.101563.136719.152344.355469.152344.660157v1.832031zm1.15625 0h-.230468v-2.648438h.230468zm-.265624-3.382812c0-.074219.015624-.132813.046874-.171876.03125-.039062.070313-.0625.117188-.0625.042969 0 .078125.023438.101562.0625.027344.039063.039063.097657.039063.171876 0 .070312-.011719.125-.039063.167968-.023437.039063-.058593.058594-.101562.058594-.046875 0-.085938-.019531-.117188-.058594-.03125-.042968-.046874-.097656-.046874-.167968zm1.828124 3.382812h-1.058593v-.1875l.78125-2.257812h-.730469v-.203126h.972656v.1875l-.777344 2.257813h.8125zm1.5 0-.03125-.371094h-.007812c-.128906.28125-.320312.417969-.578125.417969-.171875 0-.3125-.066406-.417969-.203125-.101562-.136719-.15625-.324219-.15625-.554688 0-.25.078125-.449218.226563-.597656.152343-.148437.363281-.230468.636719-.242187l.289062-.015625v-.21875c0-.246094-.03125-.425782-.09375-.539063s-.164062-.171875-.308594-.171875c-.152344 0-.304687.050782-.464844.148438l-.097656-.183594c.183594-.113281.375-.167969.578125-.167969.21875 0 .375.066407.472657.207031.09375.136719.140624.367188.140624.6875v1.804688zm-.566406-.148438c.167969 0 .296875-.082031.386719-.246093.09375-.164063.140625-.394531.140625-.695313v-.273437l-.277344.011719c-.214844.011718-.371094.070312-.476562.179687-.101563.105469-.152344.261719-.152344.464844 0 .191406.03125.335937.101562.425781.070313.085938.160157.132812.277344.132812zm1.9375-.019531c.074219 0 .136719-.007812.191406-.027343v.195312c-.070312.03125-.164062.046875-.273437.046875-.273437 0-.410156-.203125-.410156-.609375v-1.882812h-.242188v-.136719l.234375-.066407.078125-.628906h.160157v.628906h.417968v.203126h-.417968v1.816406c0 .179687.019531.300781.058593.363281.039063.066406.105469.097656.203125.097656zm.847656.167969h-.234374v-2.648438h.234374zm-.265624-3.382812c0-.074219.011718-.132813.042968-.171876.03125-.039062.070313-.0625.117188-.0625.042968 0 .078125.023438.105468.0625.023438.039063.039063.097657.039063.171876 0 .070312-.015625.125-.039063.167968-.027343.039063-.0625.058594-.105468.058594-.046875 0-.085938-.019531-.117188-.058594-.03125-.042968-.042968-.097656-.042968-.167968zm2.464843 2.050781c0 .449219-.070312.789062-.210937 1.027343-.140625.234376-.339844.351563-.601563.351563-.257812 0-.457031-.117187-.597656-.351563-.136719-.238281-.203125-.578124-.203125-1.027343 0-.910157.269531-1.367188.808594-1.367188.253906 0 .453125.117188.59375.359375.140625.238282.210937.574219.210937 1.007813zm-1.371093 0c0 .382812.042968.671875.136718.867187.089844.195313.230469.292969.425782.292969.378906 0 .570312-.386719.570312-1.160156 0-.765625-.191406-1.148438-.570312-1.148438-.199219 0-.34375.097657-.433594.289063-.085938.191406-.128906.476562-.128906.859375zm3.152343 1.332031v-1.828125c0-.4375-.128906-.65625-.390625-.65625-.199218 0-.34375.082031-.4375.246094-.089844.164062-.136718.425781-.136718.785156v1.453125h-.230469v-2.648438h.195312l.019531.367188h.023438c.054688-.132812.132812-.234375.238281-.308594.101563-.074218.214844-.109375.332031-.109375.207032 0 .359376.066407.460938.207031.105469.136719.15625.355469.15625.660157v1.832031zm0 0"/><path d="m27.679688 66.875h-1.292969v-3.570312h1.292969v.230468h-1.054688v1.355469h.996094v.230469h-.996094v1.523437h1.054688zm1.242187.046875c-.515625 0-.773437-.453125-.773437-1.367187 0-.449219.066406-.792969.195312-1.027344s.316406-.351563.566406-.351563c.121094 0 .230469.03125.339844.101563.105469.066406.191406.164062.253906.285156h.019532l-.007813-.296875v-1.1875h.230469v3.796875h-.191406l-.019532-.371094h-.019531c-.066406.136719-.148437.238282-.25.3125-.097656.070313-.214844.105469-.34375.105469zm.015625-.199219c.183594 0 .324219-.085937.425781-.257812.101563-.171875.152344-.425782.152344-.757813v-.152343c0-.402344-.050781-.695313-.148437-.878907-.09375-.1875-.242188-.28125-.441407-.28125-.191406 0-.328125.101563-.410156.300781-.082031.199219-.125.484376-.125.863282 0 .382812.042969.671875.128906.867187.085938.195313.226563.296875.417969.296875zm1.742188-2.496094v1.726563c0 .265625.03125.453125.09375.574219s.160156.179687.289062.179687c.199219 0 .347656-.078125.4375-.238281.097656-.164062.144531-.425781.144531-.789062v-1.453126h.226563v2.648438h-.195313l-.027343-.371094h-.019532c-.058594.136719-.136718.238282-.238281.3125-.101563.070313-.210937.105469-.328125.105469-.214844 0-.371094-.074219-.46875-.226563-.097656-.148437-.148438-.398437-.148438-.742187v-1.726563zm2.582031 2.695313c-.265625 0-.464844-.113281-.601563-.34375-.132812-.230469-.199218-.566406-.199218-1.015625 0-.453125.066406-.796875.203124-1.03125.136719-.238281.335938-.355469.601563-.355469.164063 0 .300781.027344.410156.089844l-.089843.203125c-.109376-.046875-.207032-.074219-.300782-.074219-.386718 0-.582031.386719-.582031 1.164063 0 .769531.195313 1.15625.582031 1.15625.117188 0 .242188-.027344.378906-.078125v.195312c-.054687.027344-.121093.050781-.199218.066407-.078125.015624-.144532.023437-.203125.023437zm1.898437-.046875-.03125-.371094h-.007812c-.128906.28125-.320313.417969-.578125.417969-.171875 0-.3125-.066406-.417969-.203125-.101562-.136719-.15625-.324219-.15625-.554688 0-.25.078125-.449218.226562-.597656.152344-.148437.367188-.230468.640626-.242187l.285156-.015625v-.21875c0-.246094-.03125-.425782-.09375-.539063s-.164063-.171875-.308594-.171875c-.152344 0-.304688.050782-.464844.148438l-.097656-.183594c.183594-.113281.375-.167969.578125-.167969.21875 0 .375.066407.46875.207031.097656.136719.144531.367188.144531.6875v1.804688zm-.566406-.148438c.167969 0 .296875-.082031.386719-.246093.09375-.164063.140625-.394531.140625-.695313v-.273437l-.277344.011719c-.214844.011718-.371094.070312-.476562.179687-.101563.105469-.152344.261719-.152344.464844 0 .191406.035156.335937.101562.425781.066406.085938.160156.132812.277344.132812zm1.9375-.019531c.074219 0 .136719-.007812.191406-.027343v.195312c-.070312.03125-.164062.046875-.273437.046875-.273438 0-.410157-.203125-.410157-.609375v-1.882812h-.242187v-.136719l.234375-.066407.078125-.628906h.160156v.628906h.417969v.203126h-.417969v1.816406c0 .179687.019531.300781.058594.363281.039063.066406.109375.097656.203125.097656zm.847656.167969h-.234375v-2.648438h.234375zm-.265625-3.382812c0-.074219.011719-.132813.042969-.171876.03125-.039062.070312-.0625.117188-.0625.042968 0 .078124.023438.105468.0625.023438.039063.039063.097657.039063.171876 0 .070312-.015625.125-.039063.167968-.027344.039063-.0625.058594-.105468.058594-.046876 0-.085938-.019531-.117188-.058594-.03125-.042968-.042969-.097656-.042969-.167968zm2.464844 2.050781c0 .449219-.070313.789062-.210937 1.027343-.140626.234376-.339844.351563-.601563.351563-.257813 0-.457031-.117187-.597656-.351563-.136719-.238281-.203125-.578124-.203125-1.027343 0-.910157.269531-1.367188.808594-1.367188.253906 0 .453124.117188.59375.359375.140624.238282.210937.574219.210937 1.007813zm-1.371094 0c0 .382812.042969.671875.136719.867187.089844.195313.230469.292969.425781.292969.378907 0 .570313-.386719.570313-1.160156 0-.765625-.191406-1.148438-.570313-1.148438-.199219 0-.34375.097657-.433593.289063-.085938.191406-.128907.476562-.128907.859375zm3.152344 1.332031v-1.828125c0-.4375-.128906-.65625-.390625-.65625-.199219 0-.34375.082031-.4375.246094-.089844.164062-.136719.425781-.136719.785156v1.453125h-.230469v-2.648438h.195313l.019531.367188h.019532c.058593-.132812.136718-.234375.242187-.308594.101563-.074218.214844-.109375.332031-.109375.207032 0 .359375.066407.464844.207031.101562.136719.152344.355469.152344.660157v1.832031zm1.953125 0-.027344-.371094h-.011718c-.125.28125-.320313.417969-.574219.417969-.175781 0-.3125-.066406-.417969-.203125s-.15625-.324219-.15625-.554688c0-.25.074219-.449218.226562-.597656.152344-.148437.363282-.230468.636719-.242187l.285157-.015625v-.21875c0-.246094-.03125-.425782-.09375-.539063-.058594-.113281-.164063-.171875-.304688-.171875-.152344 0-.308594.050782-.464844.148438l-.101562-.183594c.183594-.113281.378906-.167969.578125-.167969.21875 0 .375.066407.472656.207031.097656.136719.144531.367188.144531.6875v1.804688zm-.5625-.148438c.164062 0 .292969-.082031.382812-.246093.09375-.164063.140626-.394531.140626-.695313v-.273437l-.273438.011719c-.214844.011718-.375.070312-.476562.179687-.105469.105469-.15625.261719-.15625.464844 0 .191406.035156.335937.101562.425781.070312.085938.164062.132812.28125.132812zm1.683594.148438h-.230469v-3.796875h.230469zm1.105468-.445312c-.105468.367187-.242187.730468-.40625 1.089843h-.152343c.121093-.414062.203125-.796875.246093-1.144531h.277344zm2.984376-.488282c0 .292969-.082032.527344-.246094.710938-.160156.179687-.367188.269531-.617188.269531-.285156 0-.515625-.039063-.6875-.121094v-.261719c.085938.046876.191406.085938.316406.113282s.246094.042968.371094.042968c.179688 0 .332032-.070312.449219-.207031.117187-.140625.175781-.316406.175781-.527343 0-.199219-.042968-.355469-.125-.46875-.082031-.117188-.242187-.234376-.476562-.347657-.183594-.09375-.320313-.183593-.414063-.269531-.089843-.085938-.15625-.1875-.203125-.304688-.042968-.117187-.066406-.253906-.066406-.414062 0-.175781.039062-.332031.109375-.46875s.171875-.242188.300781-.316406c.128906-.078125.269532-.117188.421875-.117188.136719 0 .261719.015625.375.046875s.203125.0625.269531.101563l-.09375.226562c-.179687-.089844-.363281-.136718-.550781-.136718-.175781 0-.320312.058593-.429687.179687-.109375.117187-.164063.277344-.164063.472656 0 .199219.039063.355469.121094.46875.078125.109375.234375.222657.46875.34375.238281.117188.414063.253907.527344.410157s.167969.347656.167969.574218zm1.25.980469c-.261719 0-.464844-.113281-.597657-.34375-.132812-.230469-.199219-.566406-.199219-1.015625 0-.453125.066407-.796875.199219-1.03125.136719-.238281.339844-.355469.605469-.355469.164062 0 .300781.027344.410156.089844l-.089844.203125c-.109374-.046875-.210937-.074219-.300781-.074219-.390625 0-.585937.386719-.585937 1.164063 0 .769531.195312 1.15625.585937 1.15625.113281 0 .238281-.027344.375-.078125v.195312c-.054687.027344-.121093.050781-.199219.066407-.078124.015624-.144531.023437-.203124.023437zm1.105468-.046875h-.230468v-2.648438h.230468zm-.265625-3.382812c0-.074219.015625-.132813.042969-.171876.03125-.039062.070312-.0625.117188-.0625.042968 0 .078124.023438.105468.0625.027344.039063.039063.097657.039063.171876 0 .070312-.011719.125-.039063.167968-.027344.039063-.0625.058594-.105468.058594-.046876 0-.085938-.019531-.117188-.058594-.027344-.042968-.042969-.097656-.042969-.167968zm1.726563 3.429687c-.277344 0-.496094-.117187-.644532-.355469-.152343-.238281-.226562-.570312-.226562-.996094 0-.453124.066406-.800781.203125-1.035156.132813-.242187.328125-.359375.578125-.359375.21875 0 .394531.105469.519531.3125.128907.210938.191407.492188.191407.847657v.214843h-1.253907c.003907.382813.058594.671875.164063.867188.105468.191406.265625.285156.480468.285156.164063 0 .339844-.054687.523438-.164063v.226563c-.167969.105469-.347656.15625-.535156.15625zm-.105469-2.535156c-.316406 0-.492187.316406-.523437.953125h1.019531c0-.292969-.046875-.523438-.136719-.695313-.085938-.171875-.207031-.257812-.359375-.257812zm2.515625 2.488281v-1.828125c0-.4375-.132812-.65625-.390625-.65625-.199219 0-.34375.082031-.4375.246094-.09375.164062-.136719.425781-.136719.785156v1.453125h-.234375v-2.648438h.195313l.019531.367188h.023437c.054688-.132812.136719-.234375.238282-.308594.105468-.074218.214844-.109375.335937-.109375.203125 0 .359375.066407.460938.207031.101562.136719.152343.355469.152343.660157v1.832031zm1.414062-.167969c.070313 0 .132813-.007812.1875-.027343v.195312c-.070312.03125-.164062.046875-.273437.046875-.273437 0-.410156-.203125-.410156-.609375v-1.882812h-.242188v-.136719l.234375-.066407.078125-.628906h.160157v.628906h.421874v.203126h-.421874v1.816406c0 .179687.019531.300781.058593.363281.039063.066406.105469.097656.207031.097656zm.84375.167969h-.234374v-2.648438h.234374zm-.265624-3.382812c0-.074219.011718-.132813.042968-.171876.03125-.039062.070313-.0625.117188-.0625.042968 0 .078125.023438.105468.0625.023438.039063.039063.097657.039063.171876 0 .070312-.015625.125-.039063.167968-.027343.039063-.0625.058594-.105468.058594-.046875 0-.085938-.019531-.117188-.058594-.03125-.042968-.042968-.097656-.042968-.167968zm1.652343.9375h-.417969v2.445312h-.226562v-2.445312h-.335938v-.128907l.335938-.101562v-.199219c0-.339844.039062-.582031.117188-.730469.082031-.144531.21875-.21875.417968-.21875.113282 0 .214844.019531.308594.058594l-.082031.214844c-.085938-.039063-.164063-.058594-.234375-.058594-.078125 0-.136719.023437-.179688.070313-.039062.046874-.070312.121093-.089844.226562-.019531.109375-.03125.253906-.03125.441406v.222656h.417969zm.660157 2.445312h-.230469v-2.648438h.230469zm-.265626-3.382812c0-.074219.015626-.132813.042969-.171876.03125-.039062.070313-.0625.117188-.0625.042969 0 .078125.023438.105469.0625.027343.039063.039062.097657.039062.171876 0 .070312-.011719.125-.039062.167968-.027344.039063-.0625.058594-.105469.058594-.046875 0-.085938-.019531-.117188-.058594-.027343-.042968-.042969-.097656-.042969-.167968zm1.65625 3.429687c-.265624 0-.464843-.113281-.601562-.34375-.132812-.230469-.199219-.566406-.199219-1.015625 0-.453125.066407-.796875.203125-1.03125.136719-.238281.335938-.355469.601563-.355469.164062 0 .300781.027344.410156.089844l-.089844.203125c-.109375-.046875-.210937-.074219-.300781-.074219-.390625 0-.582031.386719-.582031 1.164063 0 .769531.191406 1.15625.582031 1.15625.117188 0 .242188-.027344.375-.078125v.195312c-.054688.027344-.117188.050781-.195312.066407-.078126.015624-.148438.023437-.203126.023437zm2.839844-.046875-.03125-.371094h-.007812c-.128906.28125-.320313.417969-.578125.417969-.171875 0-.3125-.066406-.417969-.203125-.101562-.136719-.15625-.324219-.15625-.554688 0-.25.078125-.449218.226562-.597656.152344-.148437.367188-.230468.636719-.242187l.289063-.015625v-.21875c0-.246094-.03125-.425782-.09375-.539063s-.164063-.171875-.308594-.171875c-.152344 0-.304688.050782-.464844.148438l-.097656-.183594c.183594-.113281.375-.167969.578125-.167969.21875 0 .375.066407.46875.207031.097656.136719.144531.367188.144531.6875v1.804688zm-.566406-.148438c.167969 0 .296875-.082031.386719-.246093.09375-.164063.140625-.394531.140625-.695313v-.273437l-.277344.011719c-.214844.011718-.371094.070312-.476562.179687-.101563.105469-.152344.261719-.152344.464844 0 .191406.035156.335937.101562.425781.070313.085938.160156.132812.277344.132812zm2.648438.148438v-1.828125c0-.4375-.128907-.65625-.390626-.65625-.195312 0-.34375.082031-.433593.246094-.09375.164062-.136719.425781-.136719.785156v1.453125h-.234375v-2.648438h.195313l.019531.367188h.023437c.054688-.132812.132813-.234375.238282-.308594.105468-.074218.214843-.109375.335937-.109375.203125 0 .359375.066407.460937.207031.101563.136719.152344.355469.152344.660157v1.832031zm1.574218.046875c-.511718 0-.769531-.453125-.769531-1.367187 0-.449219.0625-.792969.191406-1.027344.128907-.234375.320313-.351563.570313-.351563.117187 0 .230468.03125.335937.101563.109375.066406.195313.164062.257813.285156h.019531l-.011719-.296875v-1.1875h.234375v3.796875h-.191406l-.019531-.371094h-.023438c-.0625.136719-.144531.238282-.246094.3125-.101562.070313-.214843.105469-.347656.105469zm.015625-.199219c.1875 0 .328125-.085937.429688-.257812.097656-.171875.148437-.425782.148437-.757813v-.152343c0-.402344-.046875-.695313-.144531-.878907-.097656-.1875-.242187-.28125-.441406-.28125-.191407 0-.328125.101563-.410157.300781-.085937.199219-.125.484376-.125.863282 0 .382812.042969.671875.128907.867187.085937.195313.222656.296875.414062.296875zm0 0"/><path d="m115.5 5.5v119" fill="none" stroke="#000" stroke-dasharray="1 1" stroke-linejoin="round" transform="scale(.625)"/></svg>