<?xml version="1.0" encoding="UTF-8" standalone="no"?>
<!-- Created with Inkscape (http://www.inkscape.org/) -->
<svg
   xmlns:dc="http://purl.org/dc/elements/1.1/"
   xmlns:cc="http://creativecommons.org/ns#"
   xmlns:rdf="http://www.w3.org/1999/02/22-rdf-syntax-ns#"
   xmlns:svg="http://www.w3.org/2000/svg"
   xmlns="http://www.w3.org/2000/svg"
   xmlns:sodipodi="http://sodipodi.sourceforge.net/DTD/sodipodi-0.dtd"
   xmlns:inkscape="http://www.inkscape.org/namespaces/inkscape"
   id="svg2829"
   sodipodi:version="0.32"
   inkscape:version="0.46"
   width="196"
   height="199.99998"
   xml:space="preserve"
   sodipodi:docname="UNESCO.svg"
   version="1.0"
   inkscape:output_extension="org.inkscape.output.svg.inkscape"><metadata
     id="metadata2834"><rdf:RDF><cc:Work
         rdf:about=""><dc:format>image/svg+xml</dc:format><dc:type
           rdf:resource="http://purl.org/dc/dcmitype/StillImage" /></cc:Work></rdf:RDF></metadata><defs
     id="defs2832"><inkscape:perspective
       sodipodi:type="inkscape:persp3d"
       inkscape:vp_x="0 : 526.18109 : 1"
       inkscape:vp_y="0 : 1000 : 0"
       inkscape:vp_z="744.09448 : 526.18109 : 1"
       inkscape:persp3d-origin="372.04724 : 350.78739 : 1"
       id="perspective2836" /><clipPath
       clipPathUnits="userSpaceOnUse"
       id="clipPath2850"><path
         d="M 655,0 L 655,6600 L 4445,6600 L 4445,0 L 655,0 z"
         id="path2852" /></clipPath><clipPath
       clipPathUnits="userSpaceOnUse"
       id="clipPath3006"><path
         d="M 2501.11,5333.13 L 3955.37,5333.13 L 3955.37,4186.1 L 2501.11,4186.1 L 2501.11,5333.13 z"
         id="path3008" /></clipPath><clipPath
       clipPathUnits="userSpaceOnUse"
       id="clipPath3050"><path
         d="M 1022.41,6355.19 L 2249.98,6355.19 L 2249.98,4400.77 L 1022.41,4400.77 L 1022.41,6355.19 z"
         id="path3052" /></clipPath></defs><sodipodi:namedview
     inkscape:window-height="744"
     inkscape:window-width="1280"
     inkscape:pageshadow="2"
     inkscape:pageopacity="0.0"
     guidetolerance="10.0"
     gridtolerance="10.0"
     objecttolerance="10.0"
     borderopacity="1.0"
     bordercolor="#666666"
     pagecolor="#ffffff"
     id="base"
     showgrid="false"
     inkscape:zoom="2.6950002"
     inkscape:cx="98"
     inkscape:cy="99.888304"
     inkscape:window-x="-4"
     inkscape:window-y="-4"
     inkscape:current-layer="g2838" /><g
     id="g2838"
     inkscape:groupmode="layer"
     inkscape:label="UNESCO-25"
     transform="matrix(1.25,0,0,-1.25,-219.79007,467.19219)"><g
       id="g3913"><path
         d="M 233.54823,305.51173 L 305.06727,305.51173 L 305.06727,308.51023 L 233.54823,308.51023 L 233.54823,305.51173 z"
         style="fill:#000000;fill-opacity:1;fill-rule:nonzero;stroke:none"
         id="path3022" /><path
         d="M 229.49996,300.41186 L 308.96464,300.41186 L 308.96464,303.4113 L 229.49996,303.4113 L 229.49996,300.41186 z"
         style="fill:#000000;fill-opacity:1;fill-rule:nonzero;stroke:none"
         id="path3024" /><path
         d="M 225.74991,295.31319 L 312.86308,295.31319 L 312.86308,298.31262 L 225.74991,298.31262 L 225.74991,295.31319 z"
         style="fill:#000000;fill-opacity:1;fill-rule:nonzero;stroke:none"
         id="path3026" /><path
         d="M 233.54823,342.8505 L 305.06727,342.8505 L 305.06727,345.849 L 233.54823,345.849 L 233.54823,342.8505 z"
         style="fill:#000000;fill-opacity:1;fill-rule:nonzero;stroke:none"
         id="path3028" /><path
         d="M 248.01663,348.2474 L 269.30721,354.62044 L 290.14746,348.2474 L 298.84407,348.2474 L 269.30721,357.39435 L 239.32002,348.2474"
         style="fill:#000000;fill-opacity:1;fill-rule:nonzero;stroke:none"
         id="path3030" /><path
         d="M 233.54703,348.2474 L 269.08204,359.11906 L 305.0662,348.2474 L 305.0662,351.47165 L 269.30721,362.49302 L 233.54703,351.47165"
         style="fill:#000000;fill-opacity:1;fill-rule:nonzero;stroke:none"
         id="path3032" /></g><g
       id="g3921"><path
         d="M 237.74622,312.48243 C 237.74622,312.48243 237.74622,310.23432 240.29496,310.23432 C 242.8437,310.23432 242.69398,312.48243 242.69398,312.48243 L 242.69398,341.57493 L 240.81956,341.57493 L 240.81956,312.40817 C 240.81956,312.40817 240.81956,311.88238 240.14405,311.88238 C 239.46974,311.88238 239.61945,312.55669 239.61945,312.55669 L 239.61945,341.57493 L 237.74622,341.57493"
         style="fill:#000000;fill-opacity:1;fill-rule:nonzero;stroke:none"
         id="path3034" /><path
         d="M 249.51497,310.23432 L 251.01451,310.23432 L 251.01451,328.22879 L 252.88894,310.23432 L 254.46273,310.23432 L 254.46273,341.57493 L 252.88894,341.57493 L 252.88894,326.57954 L 251.83974,341.57493 L 249.51497,341.57493"
         style="fill:#000000;fill-opacity:1;fill-rule:nonzero;stroke:none"
         id="path3036" /><path
         d="M 261.43583,310.23432 L 266.23388,310.23432 L 266.23388,311.88357 L 263.53423,311.88357 L 263.53423,326.05374 L 265.55837,326.05374 L 265.55837,327.77725 L 263.53423,327.77725 L 263.53423,339.99994 L 265.55837,339.99994 L 265.55837,341.57493 L 261.43583,341.57493"
         style="fill:#000000;fill-opacity:1;fill-rule:nonzero;stroke:none"
         id="path3038" /><path
         d="M 289.0228,332.27707 L 289.0228,339.32562 C 289.0228,339.32562 288.94854,341.57493 286.54832,341.57493 C 284.1505,341.57493 284.1505,339.32562 284.1505,339.32562 L 284.1505,312.48243 C 284.1505,312.48243 284.07384,310.23432 286.54832,310.23432 C 289.0228,310.23432 289.0228,312.48243 289.0228,312.48243 L 289.0228,320.35621 L 287.14838,320.35621 L 287.14838,312.48243 C 287.14838,312.48243 287.14838,311.88357 286.54832,311.88357 C 285.98779,311.88357 285.87401,312.48243 285.87401,312.48243 L 285.87401,339.32562 C 285.87401,339.32562 285.87401,339.99994 286.54832,339.99994 C 287.14838,339.99994 287.14838,339.32562 287.14838,339.32562 L 287.14838,332.27707"
         style="fill:#000000;fill-opacity:1;fill-rule:nonzero;stroke:none"
         id="path3040" /><path
         d="M 299.14349,312.48243 C 299.14349,312.48243 299.21775,311.88238 298.46918,311.88238 C 297.71941,311.88238 297.71941,312.48243 297.71941,312.48243 L 297.71941,339.32442 C 297.71941,339.32442 297.71941,339.99994 298.39372,339.99994 C 299.14349,339.99994 299.14349,339.32442 299.14349,339.32442 L 299.14349,312.48243 z M 300.94246,326.46695 L 300.94246,339.32442 C 300.94246,339.32442 301.09337,341.57493 298.46918,341.57493 C 295.84618,341.57493 295.84618,339.32442 295.84618,339.32442 L 295.84618,312.48243 C 295.84618,312.48243 295.84618,310.23432 298.31947,310.23432 C 300.94246,310.23432 300.94246,312.48243 300.94246,312.48243 L 300.94246,322.3552"
         style="fill:#000000;fill-opacity:1;fill-rule:nonzero;stroke:none"
         id="path3042" /><path
         d="M 275.30417,312.48243 C 275.30417,312.48243 275.30417,311.88238 274.8167,311.9207 C 274.32923,311.95783 274.32923,312.48243 274.32923,312.48243 L 274.32923,320.35501 L 272.38055,320.35501 L 272.38055,312.48243 C 272.38055,312.48243 272.30509,310.23432 274.77957,310.23432 C 277.25405,310.23432 277.25405,312.48243 277.25405,312.48243 L 277.25405,318.03025 C 277.25405,318.03025 277.25405,317.73082 277.25166,319.2627 C 277.24567,322.94208 274.32923,329.9535 274.32923,332.27348 C 274.32923,332.5765 274.32923,332.87712 274.32923,332.87712 L 274.32923,339.32442 C 274.32923,339.32442 274.25497,339.99994 274.77957,339.99994 C 275.30417,339.99994 275.30417,339.32442 275.30417,339.32442 L 275.30417,332.27707 L 277.25405,332.27707 L 277.25405,339.32442 C 277.25405,339.32442 277.32831,341.64919 274.85383,341.57493 C 272.38055,341.49948 272.38055,339.32442 272.38055,339.32442 L 272.38055,333.32627 C 272.38055,329.39058 275.30417,322.75523 275.30417,319.71903 L 275.30417,319.00639"
         style="fill:#000000;fill-opacity:1;fill-rule:nonzero;stroke:none"
         id="path3044" /></g><g
       id="g3888"><g
         style="fill:#000000"
         transform="matrix(0.1197715,0,0,0.1197715,58.976465,-389.41693)"
         id="g3046"><g
           style="fill:#000000"
           id="g3048"
           clip-path="url(#clipPath3050)"><path
             d="M 2247.02,6352.22 C 2248.99,6350.25 2249.99,6347.84 2249.99,6345.02 C 2249.99,6342.19 2248.99,6339.79 2247.02,6337.81 C 2245.04,6335.84 2242.64,6334.84 2239.82,6334.84 C 2237,6334.84 2234.6,6335.84 2232.61,6337.81 C 2230.64,6339.79 2229.64,6342.19 2229.64,6345.02 C 2229.64,6347.84 2230.64,6350.25 2232.61,6352.22 C 2234.6,6354.2 2237,6355.19 2239.82,6355.19 C 2242.64,6355.19 2245.04,6354.2 2247.02,6352.22"
             style="fill:#000000;fill-opacity:1;fill-rule:nonzero;stroke:none"
             id="path3054" /></g></g><path
         d="M 328.10544,367.05991 C 328.34139,366.82396 328.46116,366.53531 328.46116,366.19756 C 328.46116,365.8586 328.34139,365.57115 328.10544,365.3352 C 327.86829,365.09806 327.58084,364.97948 327.24309,364.97948 C 326.90533,364.97948 326.61788,365.09806 326.37953,365.3352 C 326.14359,365.57115 326.02381,365.8586 326.02381,366.19756 C 326.02381,366.53531 326.14359,366.82396 326.37953,367.05991 C 326.61788,367.29706 326.90533,367.41563 327.24309,367.41563 C 327.58084,367.41563 327.86829,367.29706 328.10544,367.05991"
         style="fill:#000000;fill-opacity:1;fill-rule:nonzero;stroke:none"
         id="path3056" /><path
         d="M 328.10544,362.36128 C 328.34139,362.12413 328.46116,361.83548 328.46116,361.49772 C 328.46116,361.15877 328.34139,360.87252 328.10544,360.63537 C 327.86829,360.39822 327.58084,360.27965 327.24309,360.27965 C 326.90533,360.27965 326.61788,360.39822 326.37953,360.63537 C 326.14359,360.87252 326.02381,361.15877 326.02381,361.49772 C 326.02381,361.83548 326.14359,362.12413 326.37953,362.36128 C 326.61788,362.59723 326.90533,362.7158 327.24309,362.7158 C 327.58084,362.7158 327.86829,362.59723 328.10544,362.36128"
         style="fill:#000000;fill-opacity:1;fill-rule:nonzero;stroke:none"
         id="path3058" /><path
         d="M 328.10544,357.66144 C 328.34139,357.42429 328.46116,357.13684 328.46116,356.79909 C 328.46116,356.46013 328.34139,356.17268 328.10544,355.93553 C 327.86829,355.69839 327.58084,355.57981 327.24309,355.57981 C 326.90533,355.57981 326.61788,355.69839 326.37953,355.93553 C 326.14359,356.17268 326.02381,356.46013 326.02381,356.79909 C 326.02381,357.13684 326.14359,357.42429 326.37953,357.66144 C 326.61788,357.89739 326.90533,358.01716 327.24309,358.01716 C 327.58084,358.01716 327.86829,357.89739 328.10544,357.66144"
         style="fill:#000000;fill-opacity:1;fill-rule:nonzero;stroke:none"
         id="path3060" /><path
         d="M 328.10544,352.5999 C 328.34139,352.36395 328.46116,352.0753 328.46116,351.73754 C 328.46116,351.39859 328.34139,351.11234 328.10544,350.87399 C 327.86829,350.63804 327.58084,350.51947 327.24309,350.51947 C 326.90533,350.51947 326.61788,350.63804 326.37953,350.87399 C 326.14359,351.11234 326.02381,351.39859 326.02381,351.73754 C 326.02381,352.0753 326.14359,352.36395 326.37953,352.5999 C 326.61788,352.83705 326.90533,352.95562 327.24309,352.95562 C 327.58084,352.95562 327.86829,352.83705 328.10544,352.5999"
         style="fill:#000000;fill-opacity:1;fill-rule:nonzero;stroke:none"
         id="path3062" /><path
         d="M 328.10544,347.53955 C 328.34139,347.3024 328.46116,347.01495 328.46116,346.6772 C 328.46116,346.33824 328.34139,346.05079 328.10544,345.81364 C 327.86829,345.5765 327.58084,345.45792 327.24309,345.45792 C 326.90533,345.45792 326.61788,345.5765 326.37953,345.81364 C 326.14359,346.05079 326.02381,346.33824 326.02381,346.6772 C 326.02381,347.01495 326.14359,347.3024 326.37953,347.53955 C 326.61788,347.7755 326.90533,347.89408 327.24309,347.89408 C 327.58084,347.89408 327.86829,347.7755 328.10544,347.53955"
         style="fill:#000000;fill-opacity:1;fill-rule:nonzero;stroke:none"
         id="path3064" /><path
         d="M 328.10544,342.33308 C 328.34139,342.09713 328.46116,341.80968 328.46116,341.47193 C 328.46116,341.13297 328.34139,340.84552 328.10544,340.60957 C 327.86829,340.37123 327.58084,340.25265 327.24309,340.25265 C 326.90533,340.25265 326.61788,340.37123 326.37953,340.60957 C 326.14359,340.84552 326.02381,341.13297 326.02381,341.47193 C 326.02381,341.80968 326.14359,342.09713 326.37953,342.33308 C 326.61788,342.57023 326.90533,342.68881 327.24309,342.68881 C 327.58084,342.68881 327.86829,342.57023 328.10544,342.33308"
         style="fill:#000000;fill-opacity:1;fill-rule:nonzero;stroke:none"
         id="path3066" /><path
         d="M 328.10544,337.12782 C 328.34139,336.89187 328.46116,336.60322 328.46116,336.26546 C 328.46116,335.9277 328.34139,335.64025 328.10544,335.40191 C 327.86829,335.16596 327.58084,335.04738 327.24309,335.04738 C 326.90533,335.04738 326.61788,335.16596 326.37953,335.40191 C 326.14359,335.64025 326.02381,335.9277 326.02381,336.26546 C 326.02381,336.60322 326.14359,336.89187 326.37953,337.12782 C 326.61788,337.36496 326.90533,337.48354 327.24309,337.48354 C 327.58084,337.48354 327.86829,337.36496 328.10544,337.12782"
         style="fill:#000000;fill-opacity:1;fill-rule:nonzero;stroke:none"
         id="path3068" /><path
         d="M 328.10544,331.48897 C 328.34139,331.25302 328.46116,330.96437 328.46116,330.62662 C 328.46116,330.28766 328.34139,330.00021 328.10544,329.76306 C 327.86829,329.52712 327.58084,329.40734 327.24309,329.40734 C 326.90533,329.40734 326.61788,329.52712 326.37953,329.76306 C 326.14359,330.00021 326.02381,330.28766 326.02381,330.62662 C 326.02381,330.96437 326.14359,331.25302 326.37953,331.48897 C 326.61788,331.72492 326.90533,331.84469 327.24309,331.84469 C 327.58084,331.84469 327.86829,331.72492 328.10544,331.48897"
         style="fill:#000000;fill-opacity:1;fill-rule:nonzero;stroke:none"
         id="path3070" /><path
         d="M 328.10544,325.85013 C 328.34139,325.61298 328.46116,325.32553 328.46116,324.98777 C 328.46116,324.64882 328.34139,324.36137 328.10544,324.12422 C 327.86829,323.88707 327.58084,323.7685 327.24309,323.7685 C 326.90533,323.7685 326.61788,323.88707 326.37953,324.12422 C 326.14359,324.36137 326.02381,324.64882 326.02381,324.98777 C 326.02381,325.32553 326.14359,325.61298 326.37953,325.85013 C 326.61788,326.08608 326.90533,326.20465 327.24309,326.20465 C 327.58084,326.20465 327.86829,326.08608 328.10544,325.85013"
         style="fill:#000000;fill-opacity:1;fill-rule:nonzero;stroke:none"
         id="path3072" /><path
         d="M 328.10544,319.92024 C 328.34139,319.68309 328.46116,319.39564 328.46116,319.05789 C 328.46116,318.71893 328.34139,318.43148 328.10544,318.19434 C 327.86829,317.95839 327.58084,317.83861 327.24309,317.83861 C 326.90533,317.83861 326.61788,317.95839 326.37953,318.19434 C 326.14359,318.43148 326.02381,318.71893 326.02381,319.05789 C 326.02381,319.39564 326.14359,319.68309 326.37953,319.92024 C 326.61788,320.15619 326.90533,320.27596 327.24309,320.27596 C 327.58084,320.27596 327.86829,320.15619 328.10544,319.92024"
         style="fill:#000000;fill-opacity:1;fill-rule:nonzero;stroke:none"
         id="path3074" /><path
         d="M 328.10544,313.84783 C 328.34139,313.61188 328.46116,313.32323 328.46116,312.98547 C 328.46116,312.64652 328.34139,312.36026 328.10544,312.12192 C 327.86829,311.88597 327.58084,311.7662 327.24309,311.7662 C 326.90533,311.7662 326.61788,311.88597 326.37953,312.12192 C 326.14359,312.36026 326.02381,312.64652 326.02381,312.98547 C 326.02381,313.32323 326.14359,313.61188 326.37953,313.84783 C 326.61788,314.08497 326.90533,314.20355 327.24309,314.20355 C 327.58084,314.20355 327.86829,314.08497 328.10544,313.84783"
         style="fill:#000000;fill-opacity:1;fill-rule:nonzero;stroke:none"
         id="path3076" /><path
         d="M 328.10544,307.48556 C 328.34139,307.24961 328.46116,306.96097 328.46116,306.62321 C 328.46116,306.28426 328.34139,305.998 328.10544,305.75966 C 327.86829,305.52251 327.58084,305.40394 327.24309,305.40394 C 326.90533,305.40394 326.61788,305.52251 326.37953,305.75966 C 326.14359,305.998 326.02381,306.28426 326.02381,306.62321 C 326.02381,306.96097 326.14359,307.24961 326.37953,307.48556 C 326.61788,307.72151 326.90533,307.84129 327.24309,307.84129 C 327.58084,307.84129 327.86829,307.72151 328.10544,307.48556"
         style="fill:#000000;fill-opacity:1;fill-rule:nonzero;stroke:none"
         id="path3078" /><path
         d="M 328.10544,300.25496 C 328.34139,300.01901 328.46116,299.73156 328.46116,299.3938 C 328.46116,299.05485 328.34139,298.7674 328.10544,298.52905 C 327.86829,298.2931 327.58084,298.17453 327.24309,298.17453 C 326.90533,298.17453 326.61788,298.2931 326.37953,298.52905 C 326.14359,298.7674 326.02381,299.05485 326.02381,299.3938 C 326.02381,299.73156 326.14359,300.01901 326.37953,300.25496 C 326.61788,300.49211 326.90533,300.61068 327.24309,300.61068 C 327.58084,300.61068 327.86829,300.49211 328.10544,300.25496"
         style="fill:#000000;fill-opacity:1;fill-rule:nonzero;stroke:none"
         id="path3080" /><path
         d="M 328.10544,292.30333 C 328.34139,292.06618 328.46116,291.77753 328.46116,291.44097 C 328.46116,291.10082 328.34139,290.81457 328.10544,290.57742 C 327.86829,290.34027 327.58084,290.2217 327.24309,290.2217 C 326.90533,290.2217 326.61788,290.34027 326.37953,290.57742 C 326.14359,290.81457 326.02381,291.10082 326.02381,291.44097 C 326.02381,291.77753 326.14359,292.06618 326.37953,292.30333 C 326.61788,292.53928 326.90533,292.65785 327.24309,292.65785 C 327.58084,292.65785 327.86829,292.53928 328.10544,292.30333"
         style="fill:#000000;fill-opacity:1;fill-rule:nonzero;stroke:none"
         id="path3082" /><path
         d="M 328.10544,282.90366 C 328.34139,282.66771 328.46116,282.37906 328.46116,282.04131 C 328.46116,281.70235 328.34139,281.4161 328.10544,281.17775 C 327.86829,280.9418 327.58084,280.82323 327.24309,280.82323 C 326.90533,280.82323 326.61788,280.9418 326.37953,281.17775 C 326.14359,281.4161 326.02381,281.70235 326.02381,282.04131 C 326.02381,282.37906 326.14359,282.66771 326.37953,282.90366 C 326.61788,283.14081 326.90533,283.25938 327.24309,283.25938 C 327.58084,283.25938 327.86829,283.14081 328.10544,282.90366"
         style="fill:#000000;fill-opacity:1;fill-rule:nonzero;stroke:none"
         id="path3084" /><path
         d="M 328.10544,272.78177 C 328.34139,272.54582 328.46116,272.25717 328.46116,271.91942 C 328.46116,271.58166 328.34139,271.29421 328.10544,271.05586 C 327.86829,270.81991 327.58084,270.70134 327.24309,270.70134 C 326.90533,270.70134 326.61788,270.81991 326.37953,271.05586 C 326.14359,271.29421 326.02381,271.58166 326.02381,271.91942 C 326.02381,272.25717 326.14359,272.54582 326.37953,272.78177 C 326.61788,273.01892 326.90533,273.13749 327.24309,273.13749 C 327.58084,273.13749 327.86829,273.01892 328.10544,272.78177"
         style="fill:#000000;fill-opacity:1;fill-rule:nonzero;stroke:none"
         id="path3086" /><path
         d="M 328.10544,261.21424 C 328.34139,260.97829 328.46116,260.68964 328.46116,260.35188 C 328.46116,260.01293 328.34139,259.72548 328.10544,259.48833 C 327.86829,259.25238 327.58084,259.13381 327.24309,259.13381 C 326.90533,259.13381 326.61788,259.25238 326.37953,259.48833 C 326.14359,259.72548 326.02381,260.01293 326.02381,260.35188 C 326.02381,260.68964 326.14359,260.97829 326.37953,261.21424 C 326.61788,261.45139 326.90533,261.56996 327.24309,261.56996 C 327.58084,261.56996 327.86829,261.45139 328.10544,261.21424"
         style="fill:#000000;fill-opacity:1;fill-rule:nonzero;stroke:none"
         id="path3088" /><path
         d="M 328.10544,248.19987 C 328.34139,247.96272 328.46116,247.67527 328.46116,247.33751 C 328.46116,246.99856 328.34139,246.71111 328.10544,246.47516 C 327.86829,246.23681 327.58084,246.11824 327.24309,246.11824 C 326.90533,246.11824 326.61788,246.23681 326.37953,246.47516 C 326.14359,246.71111 326.02381,246.99856 326.02381,247.33751 C 326.02381,247.67527 326.14359,247.96272 326.37953,248.19987 C 326.61788,248.43582 326.90533,248.55439 327.24309,248.55439 C 327.58084,248.55439 327.86829,248.43582 328.10544,248.19987"
         style="fill:#000000;fill-opacity:1;fill-rule:nonzero;stroke:none"
         id="path3090" /><path
         d="M 328.10544,233.73985 C 328.34139,233.5027 328.46116,233.21525 328.46116,232.8775 C 328.46116,232.53854 328.34139,232.25109 328.10544,232.01514 C 327.86829,231.7768 327.58084,231.65822 327.24309,231.65822 C 326.90533,231.65822 326.61788,231.7768 326.37953,232.01514 C 326.14359,232.25109 326.02381,232.53854 326.02381,232.8775 C 326.02381,233.21525 326.14359,233.5027 326.37953,233.73985 C 326.61788,233.9758 326.90533,234.09438 327.24309,234.09438 C 327.58084,234.09438 327.86829,233.9758 328.10544,233.73985"
         style="fill:#000000;fill-opacity:1;fill-rule:nonzero;stroke:none"
         id="path3092" /><path
         d="M 328.10544,217.83539 C 328.34139,217.59825 328.46116,217.31079 328.46116,216.97304 C 328.46116,216.63408 328.34139,216.34663 328.10544,216.10949 C 327.86829,215.87234 327.58084,215.75376 327.24309,215.75376 C 326.90533,215.75376 326.61788,215.87234 326.37953,216.10949 C 326.14359,216.34663 326.02381,216.63408 326.02381,216.97304 C 326.02381,217.31079 326.14359,217.59825 326.37953,217.83539 C 326.61788,218.07134 326.90533,218.18992 327.24309,218.18992 C 327.58084,218.18992 327.86829,218.07134 328.10544,217.83539"
         style="fill:#000000;fill-opacity:1;fill-rule:nonzero;stroke:none"
         id="path3094" /></g><g
       id="g3929"><path
         d="M 245.45592,283.17794 L 246.53745,283.17794 L 246.53745,278.48409 C 246.53745,277.66725 246.44403,277.01929 246.25958,276.539 C 246.07633,276.05872 245.74097,275.66826 245.25949,275.36644 C 244.77801,275.06581 244.14442,274.9149 243.36231,274.9149 C 242.59937,274.9149 241.97775,275.04665 241.49387,275.30895 C 241.0088,275.57125 240.66386,275.94973 240.45785,276.44678 C 240.25065,276.94503 240.14644,277.62293 240.14644,278.48409 L 240.14644,283.17794 L 241.22798,283.17794 L 241.22798,278.48888 C 241.22798,277.78223 241.29386,277.26122 241.42441,276.92826 C 241.55616,276.5929 241.78013,276.33659 242.09872,276.15454 C 242.41731,275.97368 242.80777,275.88265 243.26769,275.88265 C 244.05698,275.88265 244.61752,276.06231 244.95288,276.42043 C 245.28943,276.77974 245.45592,277.46843 245.45592,278.48888"
         style="fill:#000000;fill-opacity:1;fill-rule:nonzero;stroke:none"
         id="path3104" /><path
         d="M 248.20587,275.04425 L 248.20587,280.93462 L 249.11014,280.93462 L 249.11014,280.09741 C 249.54491,280.74178 250.17252,281.06397 250.99415,281.06397 C 251.34987,281.06397 251.67685,281.00049 251.97508,280.87234 C 252.27571,280.74538 252.49848,280.5777 252.64819,280.37049 C 252.79551,280.16449 252.89971,279.91776 252.9596,279.6327 C 252.99673,279.44945 253.0147,279.12607 253.0147,278.66375 L 253.0147,275.04425 L 252.0146,275.04425 L 252.0146,278.61943 C 252.0146,279.02546 251.97508,279.32968 251.89723,279.53089 C 251.81938,279.73211 251.68044,279.8926 251.48162,280.01238 C 251.2828,280.13215 251.04924,280.19203 250.78096,280.19203 C 250.35337,280.19203 249.98328,280.05789 249.67307,279.7884 C 249.36166,279.51892 249.20716,279.00749 249.20716,278.25413 L 249.20716,275.04425"
         style="fill:#000000;fill-opacity:1;fill-rule:nonzero;stroke:none"
         id="path3106" /><path
         d="M 254.54058,280.93581 L 255.54187,280.93581 L 255.54187,275.04545 L 254.54058,275.04545 L 254.54058,280.93581 z M 254.54058,283.17913 L 255.54187,283.17913 L 255.54187,282.04849 L 254.54058,282.04849 L 254.54058,283.17913"
         style="fill:#000000;fill-opacity:1;fill-rule:nonzero;stroke:none"
         id="path3108" /><path
         d="M 259.24281,275.93535 L 259.37217,275.05384 C 259.08951,274.99395 258.83679,274.9652 258.61641,274.9652 C 258.2523,274.9652 257.97084,275.0215 257.76962,275.13648 C 257.56961,275.25026 257.42947,275.40117 257.34803,275.58802 C 257.26658,275.77486 257.22586,276.16891 257.22586,276.76896 L 257.22586,280.16089 L 256.48328,280.16089 L 256.48328,280.93581 L 257.22586,280.93581 L 257.22586,282.39343 L 258.22715,282.99229 L 258.22715,280.93581 L 259.24281,280.93581 L 259.24281,280.16089 L 258.22715,280.16089 L 258.22715,276.71507 C 258.22715,276.43001 258.24272,276.24796 258.27865,276.16651 C 258.31578,276.08507 258.37207,276.02039 258.45232,275.97248 C 258.53377,275.92457 258.64875,275.90062 258.79846,275.90062 C 258.91105,275.90062 259.05956,275.9114 259.24281,275.93535"
         style="fill:#000000;fill-opacity:1;fill-rule:nonzero;stroke:none"
         id="path3110" /><path
         d="M 260.96273,278.56314 L 264.26962,278.56314 C 264.22531,279.0542 264.09955,279.4231 263.89115,279.66983 C 263.57136,280.0507 263.15575,280.24114 262.64792,280.24114 C 262.1856,280.24114 261.79874,280.09023 261.48374,279.78481 C 261.16874,279.48059 260.99507,279.07337 260.96273,278.56314 M 264.25884,276.94862 L 265.28648,276.81927 C 265.12359,276.21801 264.82177,275.74851 264.38101,275.41555 C 263.94025,275.08258 263.37733,274.9161 262.69223,274.9161 C 261.82868,274.9161 261.14479,275.18079 260.63935,275.71018 C 260.13391,276.24077 259.8812,276.98335 259.8812,277.94033 C 259.8812,278.92964 260.13631,279.69857 260.64773,280.24473 C 261.15916,280.79089 261.82149,281.06517 262.63594,281.06517 C 263.42523,281.06517 264.06961,280.79688 264.56905,280.2627 C 265.0697,279.72732 265.31882,278.97515 265.31882,278.00501 C 265.31882,277.94632 265.31762,277.85769 265.31403,277.74031 L 260.91363,277.74031 C 260.95076,277.09354 261.1352,276.59889 261.46458,276.25514 C 261.79514,275.9102 262.20716,275.73893 262.70182,275.73893 C 263.06832,275.73893 263.38212,275.83475 263.64082,276.02758 C 263.90193,276.21921 264.10673,276.52703 264.25884,276.94862"
         style="fill:#000000;fill-opacity:1;fill-rule:nonzero;stroke:none"
         id="path3112" /><path
         d="M 267.20043,277.98704 C 267.20043,277.23368 267.35853,276.67075 267.68072,276.29826 C 267.99931,275.92577 268.37779,275.73773 268.81376,275.73773 C 269.25332,275.73773 269.627,275.91739 269.93242,276.27311 C 270.24023,276.63003 270.39474,277.17259 270.39474,277.9044 C 270.39474,278.70926 270.23664,279.29974 269.92523,279.67702 C 269.61263,280.0519 269.22697,280.24114 268.76944,280.24114 C 268.32269,280.24114 267.949,280.06028 267.64958,279.69857 C 267.35015,279.33686 267.20043,278.76555 267.20043,277.98704 M 270.3636,275.04425 L 270.3636,275.79402 C 269.98752,275.20834 269.43657,274.9149 268.70955,274.9149 C 268.23885,274.9149 267.80528,275.04425 267.41003,275.30296 C 267.01479,275.56167 266.70817,275.92218 266.49139,276.38569 C 266.2746,276.84921 266.1668,277.38219 266.1668,277.98464 C 266.1668,278.57152 266.26382,279.10451 266.46024,279.5824 C 266.65667,280.06028 266.95011,280.42679 267.34296,280.6819 C 267.73461,280.93701 268.17178,281.06397 268.65566,281.06397 C 269.01138,281.06397 269.32877,280.98971 269.60425,280.84 C 269.88331,280.69028 270.10729,280.49745 270.28215,280.25791 L 270.28215,283.17794 L 271.28225,283.17794 L 271.28225,275.04425"
         style="fill:#000000;fill-opacity:1;fill-rule:nonzero;stroke:none"
         id="path3114" /><path
         d="M 276.12581,275.04425 L 276.12581,283.17794 L 277.2301,283.17794 L 281.49876,276.79172 L 281.49876,283.17794 L 282.53119,283.17794 L 282.53119,275.04425 L 281.42689,275.04425 L 277.15824,281.42927 L 277.15824,275.04425"
         style="fill:#000000;fill-opacity:1;fill-rule:nonzero;stroke:none"
         id="path3116" /><path
         d="M 287.99157,278.01339 C 287.62627,277.86368 287.07532,277.73792 286.34351,277.63371 C 285.9291,277.57383 285.63566,277.50795 285.46439,277.4325 C 285.29192,277.35824 285.16017,277.24925 285.06555,277.10552 C 284.97213,276.9618 284.92542,276.8037 284.92542,276.62883 C 284.92542,276.36054 285.02722,276.13657 285.23203,275.95811 C 285.43564,275.77845 285.73507,275.68982 286.12912,275.68982 C 286.51838,275.68982 286.86572,275.77486 287.16994,275.94254 C 287.47296,276.11142 287.69573,276.34377 287.83946,276.63841 C 287.94725,276.86478 288.00235,277.20134 288.00235,277.64449 L 287.99157,278.01339 z M 288.07182,275.78684 C 287.70771,275.46824 287.35079,275.24307 287.00585,275.11133 C 286.66091,274.97958 286.29081,274.9149 285.89437,274.9149 C 285.24042,274.9149 284.73857,275.073 284.38764,275.3892 C 284.03671,275.70659 283.86065,276.11022 283.86065,276.60128 C 283.86065,276.89113 283.92652,277.15463 284.05947,277.39178 C 284.19242,277.63132 284.36609,277.82295 284.58048,277.96668 C 284.79487,278.1116 285.038,278.22059 285.30629,278.29365 C 285.50511,278.34635 285.80334,278.39546 286.20338,278.44457 C 287.01783,278.54038 287.61788,278.65536 288.00235,278.78831 C 288.00594,278.92485 288.00834,279.01109 288.00834,279.04702 C 288.00834,279.45304 287.91252,279.7369 287.72208,279.90338 C 287.46338,280.12736 287.08131,280.23994 286.57347,280.23994 C 286.09918,280.23994 285.74945,280.1585 285.52308,279.99561 C 285.29791,279.83152 285.13023,279.54167 285.02243,279.12726 L 284.03791,279.25662 C 284.12774,279.67222 284.27386,280.00878 284.47867,280.26509 C 284.68228,280.5214 284.97692,280.71903 285.36378,280.85557 C 285.74825,280.9945 286.19619,281.06397 286.70522,281.06397 C 287.20826,281.06397 287.61908,281.00528 287.93408,280.88671 C 288.25028,280.76813 288.48263,280.62082 288.62995,280.44236 C 288.77847,280.2627 288.88147,280.03753 288.94136,279.76445 C 288.97489,279.59437 288.99286,279.28776 288.99286,278.8446 L 288.99286,277.51155 C 288.99286,276.58212 289.01202,275.99524 289.05274,275.74971 C 289.09466,275.50418 289.17611,275.26942 289.29947,275.04425 L 288.26585,275.04425 C 288.16524,275.25625 288.10056,275.50298 288.07182,275.78684"
         style="fill:#000000;fill-opacity:1;fill-rule:nonzero;stroke:none"
         id="path3118" /><path
         d="M 292.71057,275.93535 L 292.83992,275.05384 C 292.55965,274.99395 292.30574,274.9652 292.08536,274.9652 C 291.72125,274.9652 291.43979,275.0215 291.23977,275.13648 C 291.03856,275.25026 290.89723,275.40117 290.81698,275.58802 C 290.73553,275.77486 290.69361,276.16891 290.69361,276.76896 L 290.69361,280.16089 L 289.95223,280.16089 L 289.95223,280.93581 L 290.69361,280.93581 L 290.69361,282.39343 L 291.6949,282.99229 L 291.6949,280.93581 L 292.71057,280.93581 L 292.71057,280.16089 L 291.6949,280.16089 L 291.6949,276.71507 C 291.6949,276.43001 291.71287,276.24796 291.7476,276.16651 C 291.78353,276.08507 291.84103,276.02039 291.92247,275.97248 C 292.00272,275.92457 292.1189,275.90062 292.26741,275.90062 C 292.38119,275.90062 292.52732,275.9114 292.71057,275.93535"
         style="fill:#000000;fill-opacity:1;fill-rule:nonzero;stroke:none"
         id="path3120" /><path
         d="M 293.6903,280.93581 L 294.69039,280.93581 L 294.69039,275.04545 L 293.6903,275.04545 L 293.6903,280.93581 z M 293.6903,283.17913 L 294.69039,283.17913 L 294.69039,282.04849 L 293.6903,282.04849 L 293.6903,283.17913"
         style="fill:#000000;fill-opacity:1;fill-rule:nonzero;stroke:none"
         id="path3122" /><path
         d="M 296.85825,277.99303 C 296.85825,277.23967 297.02354,276.67554 297.35291,276.30066 C 297.68228,275.92577 298.09669,275.73773 298.59614,275.73773 C 299.09199,275.73773 299.5052,275.92697 299.83338,276.30305 C 300.16275,276.68033 300.32684,277.25404 300.32684,278.02656 C 300.32684,278.75358 300.16155,279.30453 299.83218,279.67821 C 299.50041,280.0531 299.0884,280.24114 298.59614,280.24114 C 298.09669,280.24114 297.68228,280.0543 297.35291,279.68181 C 297.02354,279.30932 296.85825,278.74639 296.85825,277.99303 M 295.82582,277.98944 C 295.82582,279.07936 296.13004,279.88662 296.73848,280.41122 C 297.24631,280.84718 297.86673,281.06517 298.59614,281.06517 C 299.40819,281.06517 300.07172,280.79927 300.58794,280.26988 C 301.10296,279.7381 301.36046,279.00749 301.36046,278.07328 C 301.36046,277.31632 301.24668,276.72105 301.01792,276.28628 C 300.79155,275.85271 300.45859,275.51615 300.02262,275.27541 C 299.58785,275.03587 299.11235,274.9161 298.59614,274.9161 C 297.76971,274.9161 297.10019,275.1796 296.59116,275.70779 C 296.08094,276.23598 295.82582,276.99653 295.82582,277.98944"
         style="fill:#000000;fill-opacity:1;fill-rule:nonzero;stroke:none"
         id="path3124" /><path
         d="M 302.51626,275.04425 L 302.51626,280.93462 L 303.41934,280.93462 L 303.41934,280.09741 C 303.85411,280.74178 304.48051,281.06397 305.30214,281.06397 C 305.65906,281.06397 305.98604,281.00049 306.28547,280.87234 C 306.5837,280.74538 306.80767,280.5777 306.95619,280.37049 C 307.10471,280.16449 307.20891,279.91776 307.26879,279.6327 C 307.30592,279.44945 307.32389,279.12607 307.32389,278.66375 L 307.32389,275.04425 L 306.3238,275.04425 L 306.3238,278.61943 C 306.3238,279.02546 306.28427,279.32968 306.20642,279.53089 C 306.12857,279.73211 305.98963,279.8926 305.79081,280.01238 C 305.59199,280.13215 305.35724,280.19203 305.09015,280.19203 C 304.66137,280.19203 304.29247,280.05789 303.98226,279.7884 C 303.67086,279.51892 303.51635,279.00749 303.51635,278.25413 L 303.51635,275.04425"
         style="fill:#000000;fill-opacity:1;fill-rule:nonzero;stroke:none"
         id="path3126" /><path
         d="M 308.44615,276.8037 L 309.43067,276.96419 C 309.48576,276.56895 309.63907,276.26473 309.89179,276.05393 C 310.1457,275.84313 310.49783,275.73773 310.95177,275.73773 C 311.40929,275.73773 311.74945,275.83115 311.96982,276.0168 C 312.1926,276.20364 312.30279,276.42043 312.30279,276.67195 C 312.30279,276.89592 312.20458,277.07318 312.00576,277.20134 C 311.86802,277.29117 311.52787,277.40255 310.9877,277.53909 C 310.25949,277.72354 309.75405,277.88404 309.47139,278.01938 C 309.18753,278.15352 308.97314,278.33917 308.82702,278.57751 C 308.6809,278.81586 308.60784,279.07936 308.60784,279.36801 C 308.60784,279.6303 308.66772,279.87224 308.7875,280.09622 C 308.90727,280.32019 309.07016,280.50583 309.27856,280.65315 C 309.43306,280.76813 309.64506,280.86515 309.91335,280.9454 C 310.18164,281.02325 310.46909,281.06397 310.7757,281.06397 C 311.23682,281.06397 311.64285,280.9981 311.99258,280.86515 C 312.34112,280.7322 312.59863,280.55255 312.76511,280.32618 C 312.93279,280.09861 313.04657,279.79679 313.11005,279.41711 L 312.12553,279.28776 C 312.08121,279.58719 311.95306,279.82074 311.74106,279.98842 C 311.52907,280.1573 311.23083,280.23994 310.84397,280.23994 C 310.38884,280.23994 310.06306,280.16449 309.86903,280.01477 C 309.67381,279.86386 309.57679,279.6866 309.57679,279.48418 C 309.57679,279.35483 309.61631,279.23865 309.69776,279.13685 C 309.77801,279.02905 309.90496,278.94042 310.07863,278.87095 C 310.17685,278.83382 310.46909,278.74879 310.95656,278.61704 C 311.65722,278.4278 312.14948,278.27449 312.43095,278.15352 C 312.71241,278.03375 312.93518,277.85888 313.09448,277.63012 C 313.25497,277.40136 313.33522,277.1175 313.33522,276.77735 C 313.33522,276.44319 313.23821,276.13178 313.04418,275.83714 C 312.85015,275.5437 312.56988,275.31733 312.20458,275.15564 C 311.83808,274.99515 311.42486,274.9149 310.96374,274.9149 C 310.19721,274.9149 309.61512,275.073 309.21388,275.39159 C 308.81265,275.70779 308.55753,276.17969 308.44615,276.8037"
         style="fill:#000000;fill-opacity:1;fill-rule:nonzero;stroke:none"
         id="path3128" /><path
         d="M 181.43206,262.6503 L 181.43206,270.78398 L 187.29008,270.78398 L 187.29008,269.8318 L 182.51359,269.8318 L 182.51359,267.32977 L 186.98227,267.32977 L 186.98227,266.37759 L 182.51359,266.37759 L 182.51359,263.60248 L 187.48291,263.60248 L 187.48291,262.6503"
         style="fill:#000000;fill-opacity:1;fill-rule:nonzero;stroke:none"
         id="path3130" /><path
         d="M 189.50945,265.59308 C 189.50945,264.83972 189.66994,264.2768 189.98973,263.90431 C 190.31072,263.53062 190.688,263.34378 191.12397,263.34378 C 191.56353,263.34378 191.93721,263.52223 192.24383,263.87915 C 192.55164,264.23607 192.70495,264.77864 192.70495,265.51044 C 192.70495,266.31411 192.54805,266.90578 192.23664,267.28186 C 191.92284,267.65794 191.53718,267.84718 191.07965,267.84718 C 190.6329,267.84718 190.25922,267.66513 189.95979,267.30462 C 189.65916,266.94291 189.50945,266.3716 189.50945,265.59308 M 192.67261,262.6503 L 192.67261,263.40007 C 192.29773,262.81439 191.74678,262.52094 191.01977,262.52094 C 190.54906,262.52094 190.11669,262.6503 189.72024,262.90781 C 189.325,263.16771 189.01958,263.52822 188.80279,263.99174 C 188.58601,264.45525 188.47702,264.98824 188.47702,265.59069 C 188.47702,266.17757 188.57523,266.71055 188.77046,267.18844 C 188.96688,267.66633 189.26152,268.03163 189.65197,268.28675 C 190.04483,268.54186 190.48319,268.67001 190.96707,268.67001 C 191.32279,268.67001 191.63779,268.59456 191.91566,268.44604 C 192.19233,268.29633 192.4175,268.10349 192.59117,267.86395 L 192.59117,270.78398 L 193.59246,270.78398 L 193.59246,262.6503"
         style="fill:#000000;fill-opacity:1;fill-rule:nonzero;stroke:none"
         id="path3132" /><path
         d="M 199.0217,262.6503 L 199.0217,263.51505 C 198.56297,262.85271 197.93897,262.52094 197.14967,262.52094 C 196.80233,262.52094 196.47656,262.58682 196.17473,262.71977 C 195.87291,262.85391 195.64893,263.02039 195.50281,263.22281 C 195.35669,263.42402 195.25369,263.66955 195.1938,263.96299 C 195.15428,264.15822 195.13272,264.46843 195.13272,264.89362 L 195.13272,268.54066 L 196.13401,268.54066 L 196.13401,265.27329 C 196.13401,264.75229 196.15437,264.40016 196.19509,264.2205 C 196.25737,263.95701 196.39032,263.7498 196.59273,263.60128 C 196.79635,263.45037 197.04787,263.37611 197.34729,263.37611 C 197.64553,263.37611 197.92699,263.45277 198.18929,263.60607 C 198.45159,263.75938 198.63723,263.96898 198.74503,264.23368 C 198.85522,264.49837 198.90911,264.88044 198.90911,265.38348 L 198.90911,268.54066 L 199.90921,268.54066 L 199.90921,262.6503"
         style="fill:#000000;fill-opacity:1;fill-rule:nonzero;stroke:none"
         id="path3134" /><path
         d="M 205.30851,264.81337 L 206.29303,264.68402 C 206.18643,264.00731 205.91096,263.47792 205.4714,263.09465 C 205.03064,262.71258 204.49047,262.52094 203.84849,262.52094 C 203.04482,262.52094 202.39926,262.78444 201.90939,263.31024 C 201.42072,263.83723 201.17759,264.5906 201.17759,265.57272 C 201.17759,266.20871 201.28299,266.76445 201.49259,267.24114 C 201.70219,267.71663 202.02198,268.07475 202.45076,268.3131 C 202.88074,268.55024 203.34785,268.67001 203.85208,268.67001 C 204.49047,268.67001 205.01147,268.50593 205.4163,268.17775 C 205.82113,267.85078 206.08223,267.38487 206.19601,266.78122 L 205.22826,266.65186 C 205.13604,267.04951 204.97434,267.34654 204.74079,267.54656 C 204.50723,267.74658 204.22457,267.84718 203.8952,267.84718 C 203.39576,267.84718 202.98973,267.66753 202.67832,267.30701 C 202.36572,266.9477 202.21002,266.37998 202.21002,265.60147 C 202.21002,264.81217 202.36093,264.23847 202.66156,263.88155 C 202.96218,263.52223 203.35503,263.34378 203.83891,263.34378 C 204.22817,263.34378 204.55275,263.46355 204.81385,263.70429 C 205.07256,263.94383 205.23904,264.31392 205.30851,264.81337"
         style="fill:#000000;fill-opacity:1;fill-rule:nonzero;stroke:none"
         id="path3136" /><path
         d="M 210.94016,265.61943 C 210.57366,265.46972 210.02391,265.34396 209.29211,265.23976 C 208.8777,265.17987 208.58426,265.114 208.41179,265.03854 C 208.24051,264.96309 208.10757,264.85529 208.01414,264.71157 C 207.91952,264.56784 207.87401,264.40854 207.87401,264.23488 C 207.87401,263.96539 207.97582,263.74261 208.18063,263.56415 C 208.38424,263.3845 208.68367,263.29587 209.07772,263.29587 C 209.46697,263.29587 209.81431,263.37971 210.11733,263.54858 C 210.42155,263.71746 210.64433,263.94982 210.78805,264.24326 C 210.89585,264.47083 210.94974,264.80619 210.94974,265.25054 L 210.94016,265.61943 z M 211.02041,263.39288 C 210.65511,263.07309 210.29938,262.84792 209.95444,262.71737 C 209.6083,262.58562 209.23941,262.52094 208.84177,262.52094 C 208.18901,262.52094 207.68717,262.67904 207.33504,262.99524 C 206.98411,263.31263 206.80924,263.71626 206.80924,264.20733 C 206.80924,264.49717 206.87512,264.76067 207.00687,264.99782 C 207.13981,265.23736 207.31348,265.429 207.52907,265.57272 C 207.74346,265.71765 207.9866,265.82664 208.25489,265.8997 C 208.45251,265.9524 208.75194,266.0015 209.15197,266.05061 C 209.96642,266.14643 210.56648,266.26141 210.94974,266.39436 C 210.95453,266.5309 210.95573,266.61713 210.95573,266.65306 C 210.95573,267.05909 210.85992,267.34295 210.67068,267.50943 C 210.41197,267.7334 210.0299,267.84599 209.52207,267.84599 C 209.04777,267.84599 208.69804,267.76454 208.47167,267.60165 C 208.2465,267.43757 208.07762,267.14772 207.97103,266.73331 L 206.9865,266.86146 C 207.07514,267.27827 207.22245,267.61483 207.42607,267.87114 C 207.62968,268.12745 207.92551,268.32507 208.31118,268.46161 C 208.69684,268.60055 209.14359,268.67001 209.65262,268.67001 C 210.15686,268.67001 210.56648,268.61013 210.88147,268.49275 C 211.19767,268.37418 211.43003,268.22686 211.57854,268.0472 C 211.72706,267.86874 211.83006,267.64237 211.88995,267.37049 C 211.92349,267.20042 211.94025,266.8938 211.94025,266.44945 L 211.94025,265.11759 C 211.94025,264.18816 211.96062,263.60128 212.00134,263.35575 C 212.04326,263.11022 212.1247,262.87547 212.24687,262.6503 L 211.21444,262.6503 C 211.11383,262.86229 211.04915,263.10902 211.02041,263.39288"
         style="fill:#000000;fill-opacity:1;fill-rule:nonzero;stroke:none"
         id="path3138" /><path
         d="M 215.65916,263.5414 L 215.78851,262.65988 C 215.50585,262.59999 215.25433,262.57005 215.03275,262.57005 C 214.66865,262.57005 214.38719,262.62754 214.18717,262.74252 C 213.98595,262.85631 213.84582,263.00722 213.76557,263.19406 C 213.68293,263.3809 213.64221,263.77495 213.64221,264.37501 L 213.64221,267.76694 L 212.89962,267.76694 L 212.89962,268.54186 L 213.64221,268.54186 L 213.64221,269.99948 L 214.6435,270.59834 L 214.6435,268.54186 L 215.65916,268.54186 L 215.65916,267.76694 L 214.6435,267.76694 L 214.6435,264.32111 C 214.6435,264.03605 214.66027,263.8528 214.6962,263.77256 C 214.73213,263.69111 214.78962,263.62644 214.86987,263.57853 C 214.95131,263.53062 215.06509,263.50666 215.21481,263.50666 C 215.32739,263.50666 215.47591,263.51744 215.65916,263.5414"
         style="fill:#000000;fill-opacity:1;fill-rule:nonzero;stroke:none"
         id="path3140" /><path
         d="M 216.63769,268.54186 L 217.63898,268.54186 L 217.63898,262.6515 L 216.63769,262.6515 L 216.63769,268.54186 z M 216.63769,270.78518 L 217.63898,270.78518 L 217.63898,269.65454 L 216.63769,269.65454 L 216.63769,270.78518"
         style="fill:#000000;fill-opacity:1;fill-rule:nonzero;stroke:none"
         id="path3142" /><path
         d="M 219.80685,265.59907 C 219.80685,264.84571 219.97213,264.28159 220.30031,263.9055 C 220.62968,263.53182 221.04528,263.34378 221.54353,263.34378 C 222.04059,263.34378 222.4526,263.53301 222.78197,263.9091 C 223.11134,264.28638 223.27543,264.86008 223.27543,265.63141 C 223.27543,266.35842 223.11015,266.91057 222.77838,267.28426 C 222.44781,267.65914 222.03579,267.84718 221.54353,267.84718 C 221.04528,267.84718 220.62968,267.66034 220.30031,267.28785 C 219.97213,266.91416 219.80685,266.35124 219.80685,265.59907 M 218.77442,265.59548 C 218.77442,266.6854 219.07744,267.49146 219.68588,268.01726 C 220.19371,268.45203 220.81413,268.67001 221.54353,268.67001 C 222.35678,268.67001 223.02032,268.40532 223.53533,267.87473 C 224.05155,267.34414 224.30786,266.61354 224.30786,265.67932 C 224.30786,264.92236 224.19408,264.3259 223.96651,263.89233 C 223.73775,263.45876 223.40718,263.1222 222.97121,262.88146 C 222.53524,262.64191 222.05855,262.52214 221.54353,262.52214 C 220.71591,262.52214 220.04879,262.78564 219.53976,263.31263 C 219.02953,263.84202 218.77442,264.60257 218.77442,265.59548"
         style="fill:#000000;fill-opacity:1;fill-rule:nonzero;stroke:none"
         id="path3144" /><path
         d="M 225.46246,262.6503 L 225.46246,268.54066 L 226.36673,268.54066 L 226.36673,267.70226 C 226.8015,268.34783 227.42791,268.67001 228.24954,268.67001 C 228.60526,268.67001 228.93224,268.60654 229.23167,268.47838 C 229.5311,268.35142 229.75507,268.18254 229.90359,267.97654 C 230.0521,267.76933 230.1563,267.5238 230.21619,267.23874 C 230.25212,267.05549 230.27128,266.73211 230.27128,266.2686 L 230.27128,262.6503 L 229.27119,262.6503 L 229.27119,266.22548 C 229.27119,266.6315 229.23167,266.93572 229.15382,267.13694 C 229.07477,267.33816 228.93703,267.49865 228.73701,267.61842 C 228.53939,267.73819 228.30464,267.79808 228.03755,267.79808 C 227.60876,267.79808 227.23987,267.66393 226.92966,267.39445 C 226.61825,267.12376 226.46375,266.61354 226.46375,265.86017 L 226.46375,262.6503"
         style="fill:#000000;fill-opacity:1;fill-rule:nonzero;stroke:none"
         id="path3146" /><path
         d="M 235.57357,265.61943 C 235.20587,265.46972 234.65732,265.34396 233.92431,265.23976 C 233.50991,265.17987 233.21766,265.114 233.04519,265.03854 C 232.87272,264.96309 232.73977,264.85529 232.64635,264.71157 C 232.55293,264.56784 232.50742,264.40854 232.50742,264.23488 C 232.50742,263.96539 232.60922,263.74261 232.81284,263.56415 C 233.01764,263.3845 233.31588,263.29587 233.70992,263.29587 C 234.10038,263.29587 234.44652,263.37971 234.74954,263.54858 C 235.05496,263.71746 235.27773,263.94982 235.42026,264.24326 C 235.52925,264.47083 235.58315,264.80619 235.58315,265.25054 L 235.57357,265.61943 z M 235.65382,263.39288 C 235.28851,263.07309 234.93279,262.84792 234.58665,262.71737 C 234.24171,262.58562 233.87162,262.52094 233.47517,262.52094 C 232.82242,262.52094 232.32057,262.67904 231.96845,262.99524 C 231.61752,263.31263 231.44265,263.71626 231.44265,264.20733 C 231.44265,264.49717 231.50733,264.76067 231.64027,264.99782 C 231.77322,265.23736 231.94569,265.429 232.16248,265.57272 C 232.37567,265.71765 232.61881,265.82664 232.88709,265.8997 C 233.08591,265.9524 233.38534,266.0015 233.78418,266.05061 C 234.59983,266.14643 235.19868,266.26141 235.58315,266.39436 C 235.58794,266.5309 235.58914,266.61713 235.58914,266.65306 C 235.58914,267.05909 235.49332,267.34295 235.30288,267.50943 C 235.04538,267.7334 234.66211,267.84599 234.15547,267.84599 C 233.68118,267.84599 233.33025,267.76454 233.10388,267.60165 C 232.87871,267.43757 232.71103,267.14772 232.60443,266.73331 L 231.61991,266.86146 C 231.70854,267.27827 231.85466,267.61483 232.05947,267.87114 C 232.26308,268.12745 232.55772,268.32507 232.94339,268.46161 C 233.33025,268.60055 233.777,268.67001 234.28483,268.67001 C 234.79026,268.67001 235.19988,268.61013 235.51488,268.49275 C 235.83108,268.37418 236.06343,268.22686 236.21075,268.0472 C 236.36047,267.86874 236.46347,267.64237 236.52336,267.37049 C 236.55569,267.20042 236.57366,266.8938 236.57366,266.44945 L 236.57366,265.11759 C 236.57366,264.18816 236.59282,263.60128 236.63474,263.35575 C 236.67547,263.11022 236.75691,262.87547 236.88028,262.6503 L 235.84785,262.6503 C 235.74604,262.86229 235.68136,263.10902 235.65382,263.39288"
         style="fill:#000000;fill-opacity:1;fill-rule:nonzero;stroke:none"
         id="path3148" /><path
         d="M 238.08278,262.6515 L 239.08259,262.6515 L 239.08259,270.7852 L 238.08278,270.7852 L 238.08278,262.6515 z"
         style="fill:#000000;fill-opacity:1;fill-rule:nonzero;stroke:none"
         id="path3150" /><path
         d="M 240.89621,262.6503 L 240.89621,263.77974 L 242.02566,263.77974 L 242.02566,262.6503 C 242.02566,262.2311 241.9502,261.89334 241.80169,261.63464 C 241.65197,261.37713 241.41482,261.17711 241.09024,261.03578 L 240.83034,261.45618 C 241.04114,261.5496 241.19445,261.68614 241.29386,261.86819 C 241.39087,262.04905 241.44716,262.31015 241.45794,262.6503"
         style="fill:#000000;fill-opacity:1;fill-rule:nonzero;stroke:none"
         id="path3152" /><path
         d="M 246.70873,265.26491 L 247.72559,265.36193 C 247.7723,264.95231 247.88488,264.61695 248.05975,264.35345 C 248.23461,264.09115 248.5053,263.87796 248.87539,263.71746 C 249.24309,263.55457 249.6575,263.47433 250.11742,263.47433 C 250.52704,263.47433 250.88875,263.53541 251.20255,263.65758 C 251.51396,263.78094 251.74751,263.94982 251.90082,264.16421 C 252.05413,264.3774 252.13078,264.61096 252.13078,264.86008 C 252.13078,265.114 252.05652,265.33797 251.90681,265.52721 C 251.75829,265.71765 251.51276,265.87694 251.17381,266.0063 C 250.95582,266.09133 250.47434,266.22428 249.73056,266.40394 C 248.98438,266.58359 248.46218,266.75247 248.16395,266.91297 C 247.77829,267.11658 247.48964,267.3681 247.2992,267.67112 C 247.11116,267.97175 247.01534,268.3095 247.01534,268.68439 C 247.01534,269.0964 247.13152,269.47967 247.36388,269.83779 C 247.59623,270.19471 247.93519,270.46659 248.38193,270.65103 C 248.82868,270.83788 249.32454,270.9289 249.87189,270.9289 C 250.47314,270.9289 251.00253,270.83189 251.46246,270.63666 C 251.92238,270.44263 252.27571,270.15518 252.52243,269.7779 C 252.76916,269.39942 252.90211,268.97064 252.92127,268.49275 L 251.88884,268.41251 C 251.83255,268.92872 251.64571,269.31798 251.32592,269.58267 C 251.00732,269.84617 250.53662,269.97792 249.91381,269.97792 C 249.26345,269.97792 248.79035,269.85815 248.49332,269.6198 C 248.19629,269.38026 248.04777,269.09281 248.04777,268.75505 C 248.04777,268.46281 248.15317,268.22207 248.36277,268.03403 C 248.56997,267.84479 249.10895,267.65196 249.98208,267.45314 C 250.85402,267.25551 251.45287,267.08184 251.77746,266.93453 C 252.25055,266.71654 252.59909,266.44107 252.82426,266.1069 C 253.05063,265.77274 253.16321,265.38827 253.16321,264.95231 C 253.16321,264.51993 253.03985,264.11391 252.79312,263.73183 C 252.54519,263.34976 252.19067,263.05153 251.72715,262.83954 C 251.26364,262.62754 250.74383,262.52214 250.16533,262.52214 C 249.43233,262.52214 248.8167,262.62874 248.32085,262.84193 C 247.8238,263.05632 247.43454,263.37851 247.15428,263.80729 C 246.87042,264.23727 246.7231,264.72354 246.70873,265.26491"
         style="fill:#000000;fill-opacity:1;fill-rule:nonzero;stroke:none"
         id="path3154" /><path
         d="M 258.35171,264.81337 L 259.33624,264.68402 C 259.22964,264.00731 258.95536,263.47792 258.5146,263.09465 C 258.07384,262.71258 257.53367,262.52094 256.8929,262.52094 C 256.08923,262.52094 255.44246,262.78444 254.9538,263.31024 C 254.46393,263.83723 254.22079,264.5906 254.22079,265.57272 C 254.22079,266.20871 254.32619,266.76445 254.53699,267.24114 C 254.74659,267.71663 255.06518,268.07475 255.49516,268.3131 C 255.92395,268.55024 256.39105,268.67001 256.89649,268.67001 C 257.53367,268.67001 258.05468,268.50593 258.45951,268.17775 C 258.86553,267.85078 259.12544,267.38487 259.23922,266.78122 L 258.27147,266.65186 C 258.18044,267.04951 258.01755,267.34654 257.784,267.54656 C 257.55164,267.74658 257.26898,267.84718 256.93841,267.84718 C 256.43896,267.84718 256.03414,267.66753 255.72153,267.30701 C 255.40893,266.9477 255.25322,266.37998 255.25322,265.60147 C 255.25322,264.81217 255.40414,264.23847 255.70476,263.88155 C 256.00659,263.52223 256.39824,263.34378 256.88332,263.34378 C 257.27137,263.34378 257.59715,263.46355 257.85706,263.70429 C 258.11696,263.94383 258.28225,264.31392 258.35171,264.81337"
         style="fill:#000000;fill-opacity:1;fill-rule:nonzero;stroke:none"
         id="path3156" /><path
         d="M 260.20697,268.54186 L 261.20826,268.54186 L 261.20826,262.6515 L 260.20697,262.6515 L 260.20697,268.54186 z M 260.20697,270.78518 L 261.20826,270.78518 L 261.20826,269.65454 L 260.20697,269.65454 L 260.20697,270.78518"
         style="fill:#000000;fill-opacity:1;fill-rule:nonzero;stroke:none"
         id="path3158" /><path
         d="M 263.47434,266.16919 L 266.78123,266.16919 C 266.73692,266.66025 266.61116,267.02914 266.40275,267.27468 C 266.08296,267.65675 265.66736,267.84718 265.15953,267.84718 C 264.69721,267.84718 264.31035,267.69507 263.99535,267.39085 C 263.68035,267.08663 263.50668,266.67941 263.47434,266.16919 M 266.77045,264.55467 L 267.79809,264.42531 C 267.6352,263.82286 267.33338,263.35455 266.89262,263.02039 C 266.45186,262.68863 265.88893,262.52214 265.20384,262.52214 C 264.34029,262.52214 263.65639,262.78684 263.15096,263.31623 C 262.64552,263.84562 262.3928,264.5894 262.3928,265.54637 C 262.3928,266.53569 262.64792,267.30462 263.15934,267.85078 C 263.66957,268.39694 264.3331,268.67001 265.14755,268.67001 C 265.93684,268.67001 266.58121,268.40292 267.08066,267.86874 C 267.58131,267.33336 267.83043,266.5812 267.83043,265.61105 C 267.83043,265.55236 267.82923,265.46373 267.82564,265.34635 L 263.42523,265.34635 C 263.46236,264.69959 263.64681,264.20493 263.97618,263.85999 C 264.30675,263.51625 264.71877,263.34497 265.21342,263.34497 C 265.57992,263.34497 265.89373,263.43959 266.15243,263.63362 C 266.41353,263.82526 266.61834,264.13307 266.77045,264.55467"
         style="fill:#000000;fill-opacity:1;fill-rule:nonzero;stroke:none"
         id="path3160" /><path
         d="M 269.03413,262.6503 L 269.03413,268.54066 L 269.93721,268.54066 L 269.93721,267.70226 C 270.37198,268.34783 270.99839,268.67001 271.81882,268.67001 C 272.17694,268.67001 272.50392,268.60654 272.80215,268.47838 C 273.10158,268.35142 273.32555,268.18254 273.47526,267.97654 C 273.62258,267.76933 273.72678,267.5238 273.78667,267.23874 C 273.8238,267.05549 273.84296,266.73211 273.84296,266.2686 L 273.84296,262.6503 L 272.84287,262.6503 L 272.84287,266.22548 C 272.84287,266.6315 272.80215,266.93572 272.72429,267.13694 C 272.64644,267.33816 272.50751,267.49865 272.30869,267.61842 C 272.10987,267.73819 271.87631,267.79808 271.60802,267.79808 C 271.18044,267.79808 270.81154,267.66393 270.50014,267.39445 C 270.18993,267.12376 270.03423,266.61354 270.03423,265.86017 L 270.03423,262.6503"
         style="fill:#000000;fill-opacity:1;fill-rule:nonzero;stroke:none"
         id="path3162" /><path
         d="M 277.5451,263.5414 L 277.67445,262.65988 C 277.39299,262.59999 277.14027,262.57005 276.91869,262.57005 C 276.55579,262.57005 276.27432,262.62754 276.07311,262.74252 C 275.87429,262.85631 275.73176,263.00722 275.65031,263.19406 C 275.56887,263.3809 275.52934,263.77495 275.52934,264.37501 L 275.52934,267.76694 L 274.78676,267.76694 L 274.78676,268.54186 L 275.52934,268.54186 L 275.52934,269.99948 L 276.52944,270.59834 L 276.52944,268.54186 L 277.5451,268.54186 L 277.5451,267.76694 L 276.52944,267.76694 L 276.52944,264.32111 C 276.52944,264.03605 276.5474,263.8528 276.58214,263.77256 C 276.61807,263.69111 276.67556,263.62644 276.757,263.57853 C 276.83605,263.53062 276.95343,263.50666 277.10194,263.50666 C 277.21453,263.50666 277.36185,263.51744 277.5451,263.5414"
         style="fill:#000000;fill-opacity:1;fill-rule:nonzero;stroke:none"
         id="path3164" /><path
         d="M 278.52363,268.54186 L 279.52492,268.54186 L 279.52492,262.6515 L 278.52363,262.6515 L 278.52363,268.54186 z M 278.52363,270.78518 L 279.52492,270.78518 L 279.52492,269.65454 L 278.52363,269.65454 L 278.52363,270.78518"
         style="fill:#000000;fill-opacity:1;fill-rule:nonzero;stroke:none"
         id="path3166" /><path
         d="M 284.19481,268.54186 L 285.1949,268.54186 L 285.1949,262.6515 L 284.19481,262.6515 L 284.19481,268.54186 z M 284.19481,270.78518 L 285.1949,270.78518 L 285.1949,269.65454 L 284.19481,269.65454 L 284.19481,270.78518 z M 281.30592,262.6515 L 281.30592,267.76694 L 280.41722,267.76694 L 280.41722,268.54186 L 281.30592,268.54186 L 281.30592,269.11197 C 281.30592,269.69286 281.43168,270.13961 281.6844,270.44862 C 281.93712,270.75883 282.33596,270.91333 282.88331,270.91333 C 283.25101,270.91333 283.59116,270.87501 283.90257,270.79356 L 283.74687,269.94678 C 283.55044,269.97792 283.36959,269.99349 283.2055,269.99349 C 282.85936,269.99349 282.62221,269.92522 282.49525,269.78868 C 282.36949,269.65214 282.30602,269.36469 282.30602,268.92273 L 282.30602,268.54186 L 283.45223,268.54186 L 283.45223,267.76694 L 282.30602,267.76694 L 282.30602,262.6515"
         style="fill:#000000;fill-opacity:1;fill-rule:nonzero;stroke:none"
         id="path3168" /><path
         d="M 290.55109,264.81337 L 291.53561,264.68402 C 291.42901,264.00731 291.15473,263.47792 290.71517,263.09465 C 290.27441,262.71258 289.73305,262.52094 289.09107,262.52094 C 288.2886,262.52094 287.64303,262.78444 287.15317,263.31024 C 286.6645,263.83723 286.42136,264.5906 286.42136,265.57272 C 286.42136,266.20871 286.52557,266.76445 286.73636,267.24114 C 286.94596,267.71663 287.26575,268.07475 287.69454,268.3131 C 288.12332,268.55024 288.59162,268.67001 289.09586,268.67001 C 289.73305,268.67001 290.25405,268.50593 290.65888,268.17775 C 291.06491,267.85078 291.32361,267.38487 291.43859,266.78122 L 290.47084,266.65186 C 290.37862,267.04951 290.21692,267.34654 289.98337,267.54656 C 289.75101,267.74658 289.46835,267.84718 289.13898,267.84718 C 288.63953,267.84718 288.23471,267.66753 287.9209,267.30701 C 287.6083,266.9477 287.45379,266.37998 287.45379,265.60147 C 287.45379,264.81217 287.60471,264.23847 287.90533,263.88155 C 288.20596,263.52223 288.59761,263.34378 289.08269,263.34378 C 289.47075,263.34378 289.79533,263.46355 290.05643,263.70429 C 290.31633,263.94383 290.48282,264.31392 290.55109,264.81337"
         style="fill:#000000;fill-opacity:1;fill-rule:nonzero;stroke:none"
         id="path3170" /><path
         d="M 299.33872,265.61943 C 298.97222,265.46972 298.42247,265.34396 297.69067,265.23976 C 297.27626,265.17987 296.98401,265.114 296.81154,265.03854 C 296.63907,264.96309 296.50613,264.85529 296.4127,264.71157 C 296.31928,264.56784 296.27257,264.40854 296.27257,264.23488 C 296.27257,263.96539 296.37557,263.74261 296.57919,263.56415 C 296.7828,263.3845 297.08103,263.29587 297.47627,263.29587 C 297.86673,263.29587 298.21287,263.37971 298.51589,263.54858 C 298.82011,263.71746 299.04408,263.94982 299.18661,264.24326 C 299.29441,264.47083 299.3495,264.80619 299.3495,265.25054 L 299.33872,265.61943 z M 299.42017,263.39288 C 299.05367,263.07309 298.69914,262.84792 298.353,262.71737 C 298.00806,262.58562 297.63677,262.52094 297.24152,262.52094 C 296.58757,262.52094 296.08573,262.67904 295.7348,262.99524 C 295.38387,263.31263 295.2078,263.71626 295.2078,264.20733 C 295.2078,264.49717 295.27368,264.76067 295.40662,264.99782 C 295.53837,265.23736 295.71204,265.429 295.92763,265.57272 C 296.14202,265.71765 296.38396,265.82664 296.65344,265.8997 C 296.85227,265.9524 297.1505,266.0015 297.55053,266.05061 C 298.36498,266.14643 298.96384,266.26141 299.3495,266.39436 C 299.35309,266.5309 299.35549,266.61713 299.35549,266.65306 C 299.35549,267.05909 299.25967,267.34295 299.06804,267.50943 C 298.81173,267.7334 298.42846,267.84599 297.92063,267.84599 C 297.44753,267.84599 297.0954,267.76454 296.87023,267.60165 C 296.64506,267.43757 296.47738,267.14772 296.36959,266.73331 L 295.38626,266.86146 C 295.47489,267.27827 295.61982,267.61483 295.82582,267.87114 C 296.02943,268.12745 296.32407,268.32507 296.70974,268.46161 C 297.0954,268.60055 297.54335,268.67001 298.05118,268.67001 C 298.55661,268.67001 298.96623,268.61013 299.28123,268.49275 C 299.59743,268.37418 299.82978,268.22686 299.9771,268.0472 C 300.12562,267.86874 300.22982,267.64237 300.28971,267.37049 C 300.32205,267.20042 300.34001,266.8938 300.34001,266.44945 L 300.34001,265.11759 C 300.34001,264.18816 300.35917,263.60128 300.40109,263.35575 C 300.44182,263.11022 300.52206,262.87547 300.64663,262.6503 L 299.6142,262.6503 C 299.51239,262.86229 299.44771,263.10902 299.42017,263.39288"
         style="fill:#000000;fill-opacity:1;fill-rule:nonzero;stroke:none"
         id="path3172" /><path
         d="M 301.8647,262.6503 L 301.8647,268.54066 L 302.76898,268.54066 L 302.76898,267.70226 C 303.20375,268.34783 303.83015,268.67001 304.65179,268.67001 C 305.00751,268.67001 305.33448,268.60654 305.63391,268.47838 C 305.93334,268.35142 306.15731,268.18254 306.30703,267.97654 C 306.45435,267.76933 306.55855,267.5238 306.61843,267.23874 C 306.65556,267.05549 306.67353,266.73211 306.67353,266.2686 L 306.67353,262.6503 L 305.67344,262.6503 L 305.67344,266.22548 C 305.67344,266.6315 305.63391,266.93572 305.55606,267.13694 C 305.47701,267.33816 305.33927,267.49865 305.13926,267.61842 C 304.94163,267.73819 304.70688,267.79808 304.43979,267.79808 C 304.01101,267.79808 303.64211,267.66393 303.3319,267.39445 C 303.0205,267.12376 302.86599,266.61354 302.86599,265.86017 L 302.86599,262.6503"
         style="fill:#000000;fill-opacity:1;fill-rule:nonzero;stroke:none"
         id="path3174" /><path
         d="M 308.85936,265.59308 C 308.85936,264.83972 309.01985,264.2768 309.34084,263.90431 C 309.65943,263.53062 310.03911,263.34378 310.47388,263.34378 C 310.91344,263.34378 311.28713,263.52223 311.59374,263.87915 C 311.90036,264.23607 312.05486,264.77864 312.05486,265.51044 C 312.05486,266.31411 311.89796,266.90578 311.58656,267.28186 C 311.27275,267.65794 310.88829,267.84718 310.43076,267.84718 C 309.98282,267.84718 309.61033,267.66513 309.3097,267.30462 C 309.01027,266.94291 308.85936,266.3716 308.85936,265.59308 M 312.02252,262.6503 L 312.02252,263.40007 C 311.64764,262.81439 311.09789,262.52094 310.37088,262.52094 C 309.89898,262.52094 309.4654,262.6503 309.07135,262.90781 C 308.67611,263.16771 308.36949,263.52822 308.15271,263.99174 C 307.93592,264.45525 307.82693,264.98824 307.82693,265.59069 C 307.82693,266.17757 307.92634,266.71055 308.12157,267.18844 C 308.31799,267.66633 308.61143,268.03163 309.00308,268.28675 C 309.39474,268.54186 309.8319,268.67001 310.31818,268.67001 C 310.6715,268.67001 310.9877,268.59456 311.26557,268.44604 C 311.54224,268.29633 311.76741,268.10349 311.94108,267.86395 L 311.94108,270.78398 L 312.94237,270.78398 L 312.94237,262.6503"
         style="fill:#000000;fill-opacity:1;fill-rule:nonzero;stroke:none"
         id="path3176" /><path
         d="M 213.58592,253.11529 L 214.66625,252.8446 C 214.44228,251.96069 214.03626,251.28638 213.45057,250.82286 C 212.86489,250.35935 212.14866,250.12699 211.30427,250.12699 C 210.42874,250.12699 209.7161,250.30545 209.16754,250.66237 C 208.61899,251.01809 208.20219,251.5355 207.91473,252.21221 C 207.62848,252.88892 207.48595,253.61474 207.48595,254.39086 C 207.48595,255.23884 207.64764,255.97663 207.97103,256.60663 C 208.29321,257.23782 208.75194,257.71691 209.3484,258.04389 C 209.94366,258.37086 210.60001,258.53495 211.31624,258.53495 C 212.1283,258.53495 212.81099,258.32774 213.36434,257.91334 C 213.91768,257.50012 214.30335,256.91803 214.52133,256.16707 L 213.45656,255.91674 C 213.26852,256.50842 212.99664,256.94079 212.63972,257.21028 C 212.2828,257.47976 211.83366,257.6151 211.29349,257.6151 C 210.67068,257.6151 210.15087,257.46539 209.73406,257.16596 C 209.31606,256.86653 209.02262,256.4641 208.85255,255.95866 C 208.68367,255.45443 208.59983,254.93342 208.59983,254.39804 C 208.59983,253.70576 208.69924,253.10211 208.90045,252.5859 C 209.10167,252.07088 209.41308,251.68402 209.83826,251.42891 C 210.26106,251.17379 210.71978,251.04683 211.21444,251.04683 C 211.81449,251.04683 212.32352,251.2205 212.74033,251.56784 C 213.15594,251.91518 213.4374,252.43139 213.58592,253.11529"
         style="fill:#000000;fill-opacity:1;fill-rule:nonzero;stroke:none"
         id="path3178" /><path
         d="M 219.73978,250.25634 L 219.73978,251.1199 C 219.27985,250.45876 218.65584,250.12699 217.86775,250.12699 C 217.51921,250.12699 217.19343,250.19286 216.89281,250.32581 C 216.59098,250.45995 216.36581,250.62644 216.21969,250.82765 C 216.07357,251.03007 215.97057,251.2756 215.91068,251.56904 C 215.87116,251.76427 215.85079,252.07328 215.85079,252.49966 L 215.85079,256.14671 L 216.85089,256.14671 L 216.85089,252.87934 C 216.85089,252.35833 216.87125,252.0062 216.91197,251.82535 C 216.97545,251.56305 217.1072,251.35584 217.31081,251.20733 C 217.51442,251.05642 217.76474,250.98216 218.06417,250.98216 C 218.3624,250.98216 218.64387,251.05881 218.90617,251.21212 C 219.16847,251.36543 219.35411,251.57503 219.4631,251.83972 C 219.57209,252.10322 219.62719,252.48649 219.62719,252.98953 L 219.62719,256.14671 L 220.62608,256.14671 L 220.62608,250.25634"
         style="fill:#000000;fill-opacity:1;fill-rule:nonzero;stroke:none"
         id="path3180" /><path
         d="M 222.16994,250.25634 L 223.16975,250.25634 L 223.16975,258.39005 L 222.16994,258.39005 L 222.16994,250.25634 z"
         style="fill:#000000;fill-opacity:1;fill-rule:nonzero;stroke:none"
         id="path3182" /><path
         d="M 226.90331,251.14744 L 227.03266,250.26473 C 226.75,250.20484 226.49848,250.1761 226.2769,250.1761 C 225.9128,250.1761 225.63253,250.23359 225.43132,250.34737 C 225.2313,250.46235 225.08997,250.61326 225.00852,250.80011 C 224.92708,250.98695 224.88636,251.381 224.88636,251.98105 L 224.88636,255.37298 L 224.14377,255.37298 L 224.14377,256.14671 L 224.88636,256.14671 L 224.88636,257.60552 L 225.88765,258.20438 L 225.88765,256.14671 L 226.90331,256.14671 L 226.90331,255.37298 L 225.88765,255.37298 L 225.88765,251.92716 C 225.88765,251.6421 225.90441,251.45885 225.94035,251.3786 C 225.97628,251.29716 226.03377,251.23248 226.11401,251.18457 C 226.19426,251.13547 226.30924,251.11271 226.45896,251.11271 C 226.57154,251.11271 226.72006,251.12349 226.90331,251.14744"
         style="fill:#000000;fill-opacity:1;fill-rule:nonzero;stroke:none"
         id="path3184" /><path
         d="M 231.73609,250.25634 L 231.73609,251.1199 C 231.27856,250.45876 230.65335,250.12699 229.86406,250.12699 C 229.51672,250.12699 229.19214,250.19286 228.88912,250.32581 C 228.5873,250.45995 228.36332,250.62644 228.2184,250.82765 C 228.07108,251.03007 227.96928,251.2756 227.90939,251.56904 C 227.86747,251.76427 227.84831,252.07328 227.84831,252.49966 L 227.84831,256.14671 L 228.8496,256.14671 L 228.8496,252.87934 C 228.8496,252.35833 228.86876,252.0062 228.90948,251.82535 C 228.97176,251.56305 229.10471,251.35584 229.30712,251.20733 C 229.51193,251.05642 229.76345,250.98216 230.06288,250.98216 C 230.36111,250.98216 230.64138,251.05881 230.90368,251.21212 C 231.16598,251.36543 231.35162,251.57503 231.45942,251.83972 C 231.56961,252.10322 231.6235,252.48649 231.6235,252.98953 L 231.6235,256.14671 L 232.6236,256.14671 L 232.6236,250.25634"
         style="fill:#000000;fill-opacity:1;fill-rule:nonzero;stroke:none"
         id="path3186" /><path
         d="M 234.18182,250.25634 L 234.18182,256.14671 L 235.0861,256.14671 L 235.0861,255.24722 C 235.31366,255.66642 235.52446,255.9419 235.71729,256.07604 C 235.91132,256.20899 236.12332,256.27486 236.35448,256.27486 C 236.69104,256.27486 237.03119,256.16946 237.37733,255.95747 L 237.02041,255.03283 C 236.78087,255.17177 236.53893,255.24243 236.29699,255.24243 C 236.0814,255.24243 235.88737,255.17775 235.7161,255.04601 C 235.54363,254.91545 235.42146,254.7322 235.3484,254.49985 C 235.23701,254.14532 235.18311,253.75846 235.18311,253.33567 L 235.18311,250.25634"
         style="fill:#000000;fill-opacity:1;fill-rule:nonzero;stroke:none"
         id="path3188" /><path
         d="M 241.75737,253.22548 C 241.39087,253.07576 240.84112,252.95 240.10932,252.8458 C 239.69491,252.78592 239.40147,252.71884 239.23019,252.64339 C 239.05772,252.56913 238.92478,252.46134 238.83135,252.31761 C 238.73673,252.17388 238.69122,252.01459 238.69122,251.83972 C 238.69122,251.57143 238.79303,251.34866 238.99784,251.1702 C 239.20145,250.99054 239.50088,250.90191 239.89492,250.90191 C 240.28418,250.90191 240.63152,250.98575 240.93454,251.15463 C 241.23876,251.32231 241.46154,251.55467 241.60526,251.8493 C 241.71306,252.07687 241.76695,252.41223 241.76695,252.85658 L 241.75737,253.22548 z M 241.83762,250.99893 C 241.47351,250.67914 241.11659,250.45397 240.77165,250.32341 C 240.42551,250.19167 240.05662,250.12699 239.65897,250.12699 C 239.00622,250.12699 238.50438,250.28509 238.15225,250.60128 C 237.80132,250.91748 237.62645,251.32231 237.62645,251.81337 C 237.62645,252.10322 237.69233,252.36552 237.82408,252.60386 C 237.95822,252.84341 238.13069,253.03384 238.34628,253.17877 C 238.56067,253.32369 238.80381,253.43149 239.07209,253.50574 C 239.26972,253.55844 239.56915,253.60755 239.96918,253.65546 C 240.78363,253.75247 241.38368,253.86626 241.76695,254.0004 C 241.77174,254.13574 241.77294,254.22317 241.77294,254.25911 C 241.77294,254.66513 241.67832,254.94899 241.48789,255.11547 C 241.22918,255.33945 240.84711,255.45203 240.33928,255.45203 C 239.86498,255.45203 239.51525,255.37059 239.28888,255.2077 C 239.06371,255.04361 238.89483,254.75376 238.78824,254.33935 L 237.80371,254.46751 C 237.89234,254.88431 238.03966,255.22087 238.24328,255.47718 C 238.44689,255.73349 238.74272,255.92992 239.12839,256.06766 C 239.51405,256.20659 239.962,256.27486 240.46983,256.27486 C 240.97407,256.27486 241.38368,256.21617 241.69868,256.0988 C 242.01488,255.98022 242.24724,255.83171 242.39575,255.65325 C 242.54427,255.47479 242.64727,255.24842 242.70716,254.97654 C 242.7407,254.80646 242.75746,254.49985 242.75746,254.05549 L 242.75746,252.72364 C 242.75746,251.79421 242.77782,251.20733 242.81855,250.9618 C 242.86047,250.71507 242.94191,250.48151 243.06408,250.25634 L 242.03165,250.25634 C 241.93104,250.46714 241.86517,250.71507 241.83762,250.99893"
         style="fill:#000000;fill-opacity:1;fill-rule:nonzero;stroke:none"
         id="path3190" /><path
         d="M 244.26778,250.25634 L 245.26759,250.25634 L 245.26759,258.39005 L 244.26778,258.39005 L 244.26778,250.25634 z"
         style="fill:#000000;fill-opacity:1;fill-rule:nonzero;stroke:none"
         id="path3192" /><path
         d="M 250.88156,254.2088 C 250.88156,253.22787 251.14506,252.45655 251.67206,251.89242 C 252.19785,251.3283 252.85899,251.04564 253.65308,251.04564 C 254.46154,251.04564 255.12627,251.33069 255.64847,251.90081 C 256.17187,252.46972 256.43297,253.27938 256.43297,254.32498 C 256.43297,254.98732 256.32278,255.56462 256.09881,256.05807 C 255.87364,256.55273 255.54786,256.9348 255.11788,257.20668 C 254.6879,257.47856 254.20403,257.6151 253.66985,257.6151 C 252.9081,257.6151 252.25295,257.3528 251.70559,256.8294 C 251.15704,256.306 250.88156,255.43287 250.88156,254.2088 M 249.76889,254.22317 C 249.76889,255.5706 250.1318,256.62699 250.85641,257.38993 C 251.58103,258.15288 252.51645,258.53375 253.66266,258.53375 C 254.41363,258.53375 255.09153,258.35529 255.69398,257.99718 C 256.29643,257.63906 256.75636,257.13841 257.07255,256.49764 C 257.38875,255.85686 257.54565,255.12985 257.54565,254.3166 C 257.54565,253.49257 257.38037,252.75478 257.0474,252.10442 C 256.71324,251.45526 256.24254,250.9618 255.6341,250.62763 C 255.02326,250.29467 254.36452,250.12699 253.65787,250.12699 C 252.89133,250.12699 252.20863,250.31144 251.60498,250.68033 C 251.00134,251.05043 250.54501,251.55467 250.2348,252.19305 C 249.92339,252.83263 249.76889,253.50934 249.76889,254.22317"
         style="fill:#000000;fill-opacity:1;fill-rule:nonzero;stroke:none"
         id="path3194" /><path
         d="M 258.79846,250.25634 L 258.79846,256.14671 L 259.70274,256.14671 L 259.70274,255.24722 C 259.9303,255.66642 260.1411,255.9419 260.33393,256.07604 C 260.52796,256.20899 260.73996,256.27486 260.97112,256.27486 C 261.30767,256.27486 261.64783,256.16946 261.99397,255.95747 L 261.63824,255.03283 C 261.3975,255.17177 261.15556,255.24243 260.91482,255.24243 C 260.69924,255.24243 260.50401,255.17775 260.33273,255.04601 C 260.16026,254.91545 260.0381,254.7322 259.96504,254.49985 C 259.85365,254.14532 259.79975,253.75846 259.79975,253.33567 L 259.79975,250.25634"
         style="fill:#000000;fill-opacity:1;fill-rule:nonzero;stroke:none"
         id="path3196" /><path
         d="M 263.24438,253.30453 C 263.24438,252.5308 263.39769,251.96788 263.7067,251.61216 C 264.01451,251.25643 264.40017,251.07917 264.86249,251.07917 C 265.32361,251.07917 265.70928,251.25524 266.02068,251.60856 C 266.33209,251.96309 266.48899,252.51643 266.48899,253.27219 C 266.48899,253.99321 266.3273,254.53698 266.00751,254.90228 C 265.68652,255.26878 265.29846,255.45323 264.84692,255.45323 C 264.40137,255.45323 264.02289,255.27237 263.71149,254.91186 C 263.40008,254.55135 263.24438,254.01597 263.24438,253.30453 M 262.40478,249.77247 L 263.37373,249.64311 C 263.41446,249.3365 263.52824,249.11372 263.71508,248.97359 C 263.96421,248.78555 264.30675,248.69093 264.73913,248.69093 C 265.20624,248.69093 265.56675,248.78435 265.81947,248.9688 C 266.07338,249.15325 266.24466,249.41315 266.33448,249.74612 C 266.38718,249.94973 266.41114,250.37851 266.40755,251.03007 C 265.96918,250.51385 265.42302,250.25634 264.77027,250.25634 C 263.95462,250.25634 263.32582,250.54859 262.88027,251.13187 C 262.43472,251.71516 262.21195,252.41582 262.21195,253.23266 C 262.21195,253.79439 262.31376,254.313 262.51856,254.7885 C 262.72218,255.26159 263.01801,255.62929 263.40727,255.8868 C 263.79533,256.14671 264.25286,256.27486 264.77506,256.27486 C 265.47453,256.27486 266.05063,255.9898 266.50336,255.41969 L 266.50336,256.14671 L 267.40764,256.14671 L 267.40764,251.05642 C 267.40764,250.13897 267.31302,249.4898 267.12737,249.10773 C 266.93933,248.72446 266.6435,248.42264 266.23747,248.20106 C 265.83264,247.97829 265.332,247.8681 264.74033,247.8681 C 264.03607,247.8681 263.46715,248.0262 263.03358,248.34239 C 262.60001,248.65859 262.39041,249.13528 262.40478,249.77247"
         style="fill:#000000;fill-opacity:1;fill-rule:nonzero;stroke:none"
         id="path3198" /><path
         d="M 272.69315,253.22548 C 272.32665,253.07576 271.7769,252.95 271.0451,252.8458 C 270.62949,252.78592 270.33725,252.71884 270.16478,252.64339 C 269.99231,252.56913 269.86056,252.46134 269.76594,252.31761 C 269.67371,252.17388 269.627,252.01459 269.627,251.83972 C 269.627,251.57143 269.72881,251.34866 269.93242,251.1702 C 270.13723,250.99054 270.43546,250.90191 270.82951,250.90191 C 271.21996,250.90191 271.5661,250.98575 271.87032,251.15463 C 272.17454,251.32231 272.39732,251.55467 272.53985,251.8493 C 272.64884,252.07687 272.70274,252.41223 272.70274,252.85658 L 272.69315,253.22548 z M 272.7734,250.99893 C 272.4081,250.67914 272.05238,250.45397 271.70624,250.32341 C 271.3613,250.19167 270.9912,250.12699 270.59596,250.12699 C 269.942,250.12699 269.44016,250.28509 269.08923,250.60128 C 268.7371,250.91748 268.56223,251.32231 268.56223,251.81337 C 268.56223,252.10322 268.62691,252.36552 268.75986,252.60386 C 268.8928,252.84341 269.06647,253.03384 269.28206,253.17877 C 269.49525,253.32369 269.73839,253.43149 270.00668,253.50574 C 270.2067,253.55844 270.50493,253.60755 270.90377,253.65546 C 271.71941,253.75247 272.31827,253.86626 272.70274,254.0004 C 272.70753,254.13574 272.70992,254.22317 272.70992,254.25911 C 272.70992,254.66513 272.61291,254.94899 272.42247,255.11547 C 272.16496,255.33945 271.78169,255.45203 271.27506,255.45203 C 270.80076,255.45203 270.44983,255.37059 270.22347,255.2077 C 269.9983,255.04361 269.83181,254.75376 269.72402,254.33935 L 268.7395,254.46751 C 268.82813,254.88431 268.97425,255.22087 269.17906,255.47718 C 269.38267,255.73349 269.67731,255.92992 270.06417,256.06766 C 270.44983,256.20659 270.89658,256.27486 271.40561,256.27486 C 271.90985,256.27486 272.32066,256.21617 272.63566,256.0988 C 272.95066,255.98022 273.18302,255.83171 273.33154,255.65325 C 273.48005,255.47479 273.58306,255.24842 273.64294,254.97654 C 273.67648,254.80646 273.69325,254.49985 273.69325,254.05549 L 273.69325,252.72364 C 273.69325,251.79421 273.71361,251.20733 273.75433,250.9618 C 273.79625,250.71507 273.8765,250.48151 273.99986,250.25634 L 272.96743,250.25634 C 272.86682,250.46714 272.80095,250.71507 272.7734,250.99893"
         style="fill:#000000;fill-opacity:1;fill-rule:nonzero;stroke:none"
         id="path3200" /><path
         d="M 275.21794,250.25634 L 275.21794,256.14671 L 276.12101,256.14671 L 276.12101,255.3083 C 276.55579,255.95268 277.18339,256.27486 278.00382,256.27486 C 278.36074,256.27486 278.68772,256.21258 278.98715,256.08442 C 279.28538,255.95747 279.50935,255.78859 279.65907,255.58258 C 279.80758,255.37538 279.91178,255.12985 279.97167,254.84479 C 280.0088,254.66154 280.02676,254.33816 280.02676,253.87464 L 280.02676,250.25634 L 279.02667,250.25634 L 279.02667,253.83152 C 279.02667,254.23755 278.98595,254.54177 278.9093,254.74298 C 278.83025,254.9442 278.69251,255.10469 278.49249,255.22446 C 278.29487,255.34424 278.06012,255.40412 277.79303,255.40412 C 277.36424,255.40412 276.99535,255.26878 276.68394,254.99929 C 276.37373,254.72981 276.21923,254.21838 276.21923,253.46622 L 276.21923,250.25634"
         style="fill:#000000;fill-opacity:1;fill-rule:nonzero;stroke:none"
         id="path3202" /><path
         d="M 281.55145,256.14671 L 282.55274,256.14671 L 282.55274,250.25634 L 281.55145,250.25634 L 281.55145,256.14671 z M 281.55145,258.39003 L 282.55274,258.39003 L 282.55274,257.26058 L 281.55145,257.26058 L 281.55145,258.39003"
         style="fill:#000000;fill-opacity:1;fill-rule:nonzero;stroke:none"
         id="path3204" /><path
         d="M 283.53846,250.25634 L 283.53846,251.06121 L 287.28611,255.37178 C 286.86212,255.35022 286.48604,255.33945 286.16146,255.33945 L 283.76483,255.33945 L 283.76483,256.14671 L 288.57246,256.14671 L 288.57246,255.48676 L 285.38175,251.74989 L 284.75654,251.04683 C 285.20449,251.08995 285.62608,251.11151 286.01773,251.11151 L 288.75092,251.11151 L 288.75092,250.25634"
         style="fill:#000000;fill-opacity:1;fill-rule:nonzero;stroke:none"
         id="path3206" /><path
         d="M 293.531,253.22548 C 293.1657,253.07576 292.61475,252.95 291.88295,252.8458 C 291.46854,252.78592 291.1751,252.71884 291.00262,252.64339 C 290.83135,252.56913 290.69841,252.46134 290.60498,252.31761 C 290.51156,252.17388 290.46485,252.01459 290.46485,251.83972 C 290.46485,251.57143 290.56666,251.34866 290.77147,251.1702 C 290.97508,250.99054 291.27451,250.90191 291.66855,250.90191 C 292.05781,250.90191 292.40515,250.98575 292.70937,251.15463 C 293.01239,251.32231 293.23517,251.55467 293.37889,251.8493 C 293.48788,252.07687 293.54298,252.41223 293.54298,252.85658 L 293.531,253.22548 z M 293.61125,250.99893 C 293.24594,250.67914 292.89022,250.45397 292.54528,250.32341 C 292.20034,250.19167 291.83025,250.12699 291.4338,250.12699 C 290.77985,250.12699 290.27801,250.28509 289.92708,250.60128 C 289.57615,250.91748 289.40008,251.32231 289.40008,251.81337 C 289.40008,252.10322 289.46596,252.36552 289.5989,252.60386 C 289.73185,252.84341 289.90552,253.03384 290.11991,253.17877 C 290.3343,253.32369 290.57744,253.43149 290.84572,253.50574 C 291.04454,253.55844 291.34278,253.60755 291.74401,253.65546 C 292.55726,253.75247 293.15731,253.86626 293.54298,254.0004 C 293.54537,254.13574 293.54777,254.22317 293.54777,254.25911 C 293.54777,254.66513 293.45195,254.94899 293.26152,255.11547 C 293.00281,255.33945 292.62074,255.45203 292.11291,255.45203 C 291.63861,255.45203 291.28888,255.37059 291.06251,255.2077 C 290.83734,255.04361 290.66966,254.75376 290.56187,254.33935 L 289.57734,254.46751 C 289.66717,254.88431 289.8121,255.22087 290.0181,255.47718 C 290.22171,255.73349 290.51635,255.92992 290.90202,256.06766 C 291.28768,256.20659 291.73563,256.27486 292.24466,256.27486 C 292.7477,256.27486 293.15971,256.21617 293.47351,256.0988 C 293.78971,255.98022 294.02206,255.83171 294.16938,255.65325 C 294.3179,255.47479 294.4209,255.24842 294.48079,254.97654 C 294.51433,254.80646 294.53229,254.49985 294.53229,254.05549 L 294.53229,252.72364 C 294.53229,251.79421 294.55145,251.20733 294.59218,250.9618 C 294.6341,250.71507 294.71554,250.48151 294.83891,250.25634 L 293.80528,250.25634 C 293.70587,250.46714 293.63999,250.71507 293.61125,250.99893"
         style="fill:#000000;fill-opacity:1;fill-rule:nonzero;stroke:none"
         id="path3208" /><path
         d="M 298.25239,251.14744 L 298.38175,250.26473 C 298.10028,250.20484 297.84637,250.1761 297.62599,250.1761 C 297.26188,250.1761 296.98042,250.23359 296.7804,250.34737 C 296.57919,250.46235 296.43905,250.61326 296.35761,250.80011 C 296.27616,250.98695 296.23544,251.381 296.23544,251.98105 L 296.23544,255.37298 L 295.49286,255.37298 L 295.49286,256.14671 L 296.23544,256.14671 L 296.23544,257.60552 L 297.23673,258.20438 L 297.23673,256.14671 L 298.25239,256.14671 L 298.25239,255.37298 L 297.23673,255.37298 L 297.23673,251.92716 C 297.23673,251.6421 297.2535,251.45885 297.28823,251.3786 C 297.32536,251.29716 297.38166,251.23248 297.4631,251.18457 C 297.54335,251.13547 297.65833,251.11271 297.80804,251.11271 C 297.92063,251.11271 298.06914,251.12349 298.25239,251.14744"
         style="fill:#000000;fill-opacity:1;fill-rule:nonzero;stroke:none"
         id="path3210" /><path
         d="M 299.22973,256.14671 L 300.22982,256.14671 L 300.22982,250.25634 L 299.22973,250.25634 L 299.22973,256.14671 z M 299.22973,258.39003 L 300.22982,258.39003 L 300.22982,257.26058 L 299.22973,257.26058 L 299.22973,258.39003"
         style="fill:#000000;fill-opacity:1;fill-rule:nonzero;stroke:none"
         id="path3212" /><path
         d="M 302.39888,253.20512 C 302.39888,252.45175 302.56297,251.88763 302.89234,251.51155 C 303.22171,251.13786 303.63612,250.94982 304.13557,250.94982 C 304.63142,250.94982 305.04464,251.13906 305.37401,251.51514 C 305.70218,251.89242 305.86747,252.46613 305.86747,253.23746 C 305.86747,253.96447 305.70098,254.51662 305.37161,254.8903 C 305.03985,255.26519 304.62783,255.45323 304.13557,255.45323 C 303.63612,255.45323 303.22171,255.26638 302.89234,254.8939 C 302.56297,254.52021 302.39888,253.95728 302.39888,253.20512 M 301.36645,253.20152 C 301.36645,254.29144 301.66948,255.09751 302.27791,255.62211 C 302.78575,256.05807 303.40616,256.27606 304.13557,256.27606 C 304.94882,256.27606 305.61116,256.01136 306.12737,255.48078 C 306.64239,254.95019 306.90109,254.21838 306.90109,253.28536 C 306.90109,252.52841 306.78611,251.93195 306.55735,251.49837 C 306.33098,251.0648 305.99802,250.72824 305.56205,250.4875 C 305.12728,250.24796 304.65179,250.12819 304.13557,250.12819 C 303.30915,250.12819 302.63962,250.39168 302.1306,250.91868 C 301.62037,251.44807 301.36645,252.20742 301.36645,253.20152"
         style="fill:#000000;fill-opacity:1;fill-rule:nonzero;stroke:none"
         id="path3214" /><path
         d="M 308.05569,250.25634 L 308.05569,256.14671 L 308.95877,256.14671 L 308.95877,255.3083 C 309.39354,255.95268 310.01994,256.27486 310.84158,256.27486 C 311.1973,256.27486 311.52547,256.21258 311.8249,256.08442 C 312.12313,255.95747 312.34711,255.78859 312.49682,255.58258 C 312.64414,255.37538 312.74834,255.12985 312.80823,254.84479 C 312.84535,254.66154 312.86332,254.33816 312.86332,253.87464 L 312.86332,250.25634 L 311.86323,250.25634 L 311.86323,253.83152 C 311.86323,254.23755 311.8237,254.54177 311.74585,254.74298 C 311.668,254.9442 311.52907,255.10469 311.33024,255.22446 C 311.13142,255.34424 310.89667,255.40412 310.62958,255.40412 C 310.2008,255.40412 309.8319,255.26878 309.5217,254.99929 C 309.21029,254.72981 309.05578,254.21838 309.05578,253.46622 L 309.05578,250.25634"
         style="fill:#000000;fill-opacity:1;fill-rule:nonzero;stroke:none"
         id="path3216" /></g></g></svg>